<svg preserveAspectRatio="none" width="100%" height="100%" overflow="visible" style="display: block;" viewBox="0 0 639 666" fill="none" xmlns="http://www.w3.org/2000/svg">
<g id="Group 2142">
<path id="Union" d="M267.003 666H266V665H267.003V666ZM271.015 666H269.009V665H271.015V666ZM275.025 666H273.02V665H275.025V666ZM279.037 666H277.031V665H279.037V666ZM283.048 666H281.043V665H283.048V666ZM287.06 666H285.054V665H287.06V666ZM291.071 666H289.065V665H291.071V666ZM295.082 666H293.077V665H295.082V666ZM299.094 666H297.088V665H299.094V666ZM303.105 666H301.1V665H303.105V666ZM307.116 666H305.11V665H307.116V666ZM311.128 666H309.122V665H311.128V666ZM315.14 666H313.134V665H315.14V666ZM319.15 666H317.145V665H319.15V666ZM323.162 666H321.156V665H323.162V666ZM327.173 666H325.168V665H327.173V666ZM331.185 666H329.179V665H331.185V666ZM335.196 666H333.19V665H335.196V666ZM339.207 666H337.202V665H339.207V666ZM343.219 666H341.213V665H343.219V666ZM347.23 666H345.225V665H347.23V666ZM351.241 666H349.235V665H351.241V666ZM355.253 666H353.247V665H355.253V666ZM359.265 666H357.259V665H359.265V666ZM363.275 666H361.27V665H363.275V666ZM367.287 666H365.281V665H367.287V666ZM371.298 666H369.293V665H371.298V666ZM375.31 666H373.304V665H375.31V666ZM379.321 666H377.315V665H379.321V666ZM383.332 666H381.327V665H383.332V666ZM387.344 666H385.338V665H387.344V666ZM391.355 666H389.35V665H391.355V666ZM395.366 666H393.36V665H395.366V666ZM399.378 666H397.372V665H399.378V666ZM403.39 666H401.384V665H403.39V666ZM407.4 666H405.395V665H407.4V666ZM411.412 666H409.406V665H411.412V666ZM415.423 666H413.418V665H415.423V666ZM419.435 666H417.429V665H419.435V666ZM423.446 666H421.44V665H423.446V666ZM427.457 666H425.451V665H427.457V666ZM431.469 666H429.463V665H431.469V666ZM435.48 666H433.475V665H435.48V666ZM439.491 666H437.485V665H439.491V666ZM443.503 666H441.497V665H443.503V666ZM447.514 666H445.509V665H447.514V666ZM451.525 666H449.52V665H451.525V666ZM455.537 666H453.531V665H455.537V666ZM459.548 666H457.543V665H459.548V666ZM463.56 666H461.554V665H463.56V666ZM467.571 666H465.565V665H467.571V666ZM471.582 666H469.576V665H471.582V666ZM475.594 666H473.588V665H475.594V666ZM479.604 666H477.6V665H479.604V666ZM483.616 666H481.61V665H483.616V666ZM487.628 666H485.622V665H487.628V666ZM491.639 666H489.633V665H491.639V666ZM495.65 666H493.645V665H495.65V666ZM499.662 666H497.656V665H499.662V666ZM503.673 666H501.667V665H503.673V666ZM507.685 666H505.679V665H507.685V666ZM511.695 666H509.69V665H511.695V666ZM515.707 666H513.701V665H515.707V666ZM519.719 666H517.713V665H519.719V666ZM523.729 666H521.724V665H523.729V666ZM527.741 666H525.735V665H527.741V666ZM531.753 666H529.747V665H531.753V666ZM535.764 666H533.758V665H535.764V666ZM539.775 666H537.77V665H539.775V666ZM543.786 666H541.781V665H543.786V666ZM547.798 666H545.792V665H547.798V666ZM551.81 666H549.804V665H551.81V666ZM555.82 666H553.815V665H555.82V666ZM559.832 666H557.826V665H559.832V666ZM563.844 666H561.838V665H563.844V666ZM567.854 666H565.849V665H567.854V666ZM571.866 666H569.86V665H571.866V666ZM575.877 666H573.872V665H575.877V666ZM579.889 666H577.883V665H579.889V666ZM583.9 666H581.895V665H583.9V666ZM587.911 666H585.906V665H587.911V666ZM591.923 666H589.917V665H591.923V666ZM595.935 666H593.929V665H595.935V666ZM599.945 666H597.939V665H599.945V666ZM603.957 666H601.951V665H603.957V666ZM607.968 666H605.963V665H607.968V666ZM611.979 666H609.974V665H611.979V666ZM615.991 666H613.985V665H615.991V666ZM619 666H617.996V665H619V666ZM619 663.008H618V661.013H619V663.008ZM619 659.018H618V657.022H619V659.018ZM619 655.027H618V653.032H619V655.027ZM619 651.037H618V649.043H619V651.037ZM619 647.048H618V645.053H619V647.048ZM619 643.058H618V641.062H619V643.058ZM619 639.067H618V637.072H619V639.067ZM619 635.077H618V633.082H619V635.077ZM619 631.088H618V629.093H619V631.088ZM619 627.098H618V625.103H619V627.098ZM619 623.107H618V621.112H619V623.107ZM619 619.117H618V617.122H619V619.117ZM619 615.128H618V613.133H619V615.128ZM619 611.138H618V609.143H619V611.138ZM619 607.147H618V605.152H619V607.147ZM619 603.157H618V601.162H619V603.157ZM619 599.168H618V597.173H619V599.168ZM619 595.178H618V593.183H619V595.178ZM619 591.188H618V589.192H619V591.188ZM619 587.197H618V585.202H619V587.197ZM619 583.207H618V581.213H619V583.207ZM619 579.218H618V577.223H619V579.218ZM619 575.228H618V573.232H619V575.228ZM619 571.237H618V569.242H619V571.237ZM619 567.247H618V565.253H619V567.247ZM619 563.258H618V561.263H619V563.258ZM619 559.268H618V557.272H619V559.268ZM619 555.277H618V553.282H619V555.277ZM619 551H620V552H619V551.287H618V549.292H619V551ZM624 552H622V551H624V552ZM628 552H626V551H628V552ZM632 552H630V551H632V552ZM636 552H634V551H636V552ZM639 552H638V551H639V552ZM619 547.298H618V545.303H619V547.298ZM619 543.308H618V541.312H619V543.308ZM619 539.317H618V537.322H619V539.317ZM619 535.327H618V533.332H619V535.327ZM151 532H152V533H150V531.992H151V532ZM156 533H154V532H156V533ZM160 533H158V532H160V533ZM164 533H162V532H164V533ZM168 533H166V532H168V533ZM172 533H170V532H172V533ZM176 533H174V532H176V533ZM180 533H178V532H180V533ZM184 533H182V532H184V533ZM188 533H186V532H188V533ZM191 533H190V532H191V533ZM619 531.338H618V529.343H619V531.338ZM151 529.978H150V527.962H151V529.978ZM619 527.348H618V525.353H619V527.348ZM151 525.947H150V523.932H151V525.947ZM619 523.357H618V521.362H619V523.357ZM151 521.917H150V519.901H151V521.917ZM619 519.367H618V517.372H619V519.367ZM151 517.887H150V515.871H151V517.887ZM619 515.378H618V513.383H619V515.378ZM151 513.856H150V511.841H151V513.856ZM619 511.388H618V509.393H619V511.388ZM151 509.826H150V507.811H151V509.826ZM619 507.397H618V505.402H619V507.397ZM151 505.796H150V503.78H151V505.796ZM619 503.407H618V501.412H619V503.407ZM151 501.766H150V499.75H151V501.766ZM619 499.418H618V497.423H619V499.418ZM151 497.734H150V495.72H151V497.734ZM619 495.428H618V493.433H619V495.428ZM151 493.704H150V491.689H151V493.704ZM619 491.438H618V489.442H619V491.438ZM151 489.674H150V487.659H151V489.674ZM619 487.447H618V485.452H619V487.447ZM151 485.644H150V483.629H151V485.644ZM619 483.458H618V481.463H619V483.458ZM151 481.613H150V479.599H151V481.613ZM619 479.468H618V477.473H619V479.468ZM151 477.583H150V475.568H151V477.583ZM619 475.478H618V473.482H619V475.478ZM151 473.553H150V471.538H151V473.553ZM619 471.487H618V469.492H619V471.487ZM151 469.522H150V467.508H151V469.522ZM619 467.498H618V465.503H619V467.498ZM151 465.492H150V463.478H151V465.492ZM619 463.508H618V461.513H619V463.508ZM151 461.462H150V459.447H151V461.462ZM619 459.518H618V457.522H619V459.518ZM151 457.432H150V455.417H151V457.432ZM619 455.527H618V453.532H619V455.527ZM151 453.401H150V451.387H151V453.401ZM619 451.538H618V449.543H619V451.538ZM151 449.371H150V447.356H151V449.371ZM1 447V448H0V447H1ZM5 447V448H3V447H5ZM9 447V448H7V447H9ZM13 447V448H11V447H13ZM17 447V448H15V447H17ZM21 447V448H19V447H21ZM25 447V448H23V447H25ZM29 447V448H27V447H29ZM33 447V448H31V447H33ZM37 447V448H35V447H37ZM41 447V448H39V447H41ZM45 447V448H43V447H45ZM49 447V448H47V447H49ZM53 447V448H51V447H53ZM57 447V448H55V447H57ZM61 447V448H59V447H61ZM65 447V448H63V447H65ZM69 447V448H67V447H69ZM73 447V448H71V447H73ZM77 447V448H75V447H77ZM81 447V448H79V447H81ZM85 447V448H83V447H85ZM89 447V448H87V447H89ZM93 447V448H91V447H93ZM97 447V448H95V447H97ZM101 447V448H99V447H101ZM105 447V448H103V447H105ZM109 447V448H107V447H109ZM113 447V448H111V447H113ZM117 447V448H115V447H117ZM121 447V448H119V447H121ZM125 447V448H123V447H125ZM129 447V448H127V447H129ZM133 447V448H131V447H133ZM137 447V448H135V447H137ZM141 447V448H139V447H141ZM145 447V448H143V447H145ZM148 447V448H147V447H148ZM619 447.548H618V445.553H619V447.548ZM151 445.341H150V443.326H151V445.341ZM619 443.558H618V441.562H619V443.558ZM151 441.311H150V439.296H151V441.311ZM619 439.567H618V437.572H619V439.567ZM151 437.28H150V435.265H151V437.28ZM619 435.578H618V433.583H619V435.578ZM151 433.25H150V431.234H151V433.25ZM619 431.588H618V429.593H619V431.588ZM151 429.22H150V427.204H151V429.22ZM619 427.598H618V425.603H619V427.598ZM151 425.189H150V423.174H151V425.189ZM619 423.607H618V421.612H619V423.607ZM151 421.159H150V419.144H151V421.159ZM619 419.618H618V417.623H619V419.618ZM151 417.129H150V415.113H151V417.129ZM619 415.628H618V413.633H619V415.628ZM151 413.099H150V411.083H151V413.099ZM619 411.638H618V409.643H619V411.638ZM151 409.068H150V407.053H151V409.068ZM619 407.647H618V405.652H619V407.647ZM151 405.038H150V403.022H151V405.038ZM619 403.658H618V401.663H619V403.658ZM151 401.008H150V400H151V401.008ZM155 400H154V399H155V400ZM159 400H157V399H159V400ZM163 400H161V399H163V400ZM167 400H165V399H167V400ZM171 400H169V399H171V400ZM175 400H173V399H175V400ZM179 400H177V399H179V400ZM183 400H181V399H183V400ZM187 400H185V399H187V400ZM191 400H189V399H191V400ZM194 400H193V399H194V400ZM267 400H266V399H267V400ZM271 400H269V399H271V400ZM275 400H273V399H275V400ZM279 400H277V399H279V400ZM283 400H281V399H283V400ZM287 400H285V399H287V400ZM291 400H289V399H291V400ZM295 400H293V399H295V400ZM299 400H297V399H299V400ZM303 400H301V399H303V400ZM306 400H305V398.992H306V400ZM619 399.668H618V397.673H619V399.668ZM306 396.978H305V394.962H306V396.978ZM619 395.678H618V393.683H619V395.678ZM306 392.947H305V390.932H306V392.947ZM619 391.688H618V389.692H619V391.688ZM306 388.917H305V386.901H306V388.917ZM619 387.698H618V385.703H619V387.698ZM306 384.887H305V382.871H306V384.887ZM619 383.708H618V381.713H619V383.708ZM306 380.856H305V378.841H306V380.856ZM619 379.718H618V377.723H619V379.718ZM306 376.826H305V374.811H306V376.826ZM619 375.728H618V373.732H619V375.728ZM306 372.796H305V370.78H306V372.796ZM619 371.738H618V369.743H619V371.738ZM306 368.766H305V366.75H306V368.766ZM619 367.748H618V365.753H619V367.748ZM306 364.734H305V362.72H306V364.734ZM619 363.758H618V361.763H619V363.758ZM306 360.704H305V358.689H306V360.704ZM619 359.768H618V357.772H619V359.768ZM306 356.674H305V354.659H306V356.674ZM619 355.778H618V353.783H619V355.778ZM306 352.644H305V350.629H306V352.644ZM619 351.788H618V349.793H619V351.788ZM306 348.613H305V346.599H306V348.613ZM619 347.798H618V345.803H619V347.798ZM306.944 346H306V345H306.944V346ZM310.723 346H308.833V345H310.723V346ZM314.5 346H312.611V345H314.5V346ZM318.277 346H316.389V345H318.277V346ZM322.056 346H320.167V345H322.056V346ZM325.833 346H323.944V345H325.833V346ZM329.611 346H327.723V345H329.611V346ZM333.389 346H331.5V345H333.389V346ZM337.167 346H335.277V345H337.167V346ZM340 346H339.056V345H340V346ZM306 344.583H305V342.568H306V344.583ZM619 343.808H618V341.812H619V343.808ZM306 340.553H305V338.538H306V340.553ZM619 339.818H618V337.823H619V339.818ZM306 336.522H305V334.508H306V336.522ZM619 335.828H618V333.833H619V335.828ZM306 332.492H305V330.478H306V332.492ZM619 331.838H618V329.843H619V331.838ZM306 328.462H305V326.447H306V328.462ZM619 327.848H618V325.853H619V327.848ZM306 324.432H305V322.417H306V324.432ZM619 323.858H618V321.863H619V323.858ZM306 320.401H305V318.387H306V320.401ZM619 319.868H618V317.873H619V319.868ZM306 316.371H305V314.356H306V316.371ZM619 315.878H618V313.883H619V315.878ZM306 312.341H305V310.326H306V312.341ZM619 311.888H618V309.893H619V311.888ZM306 308.311H305V306.296H306V308.311ZM619 307.898H618V305.903H619V307.898ZM306 304.28H305V302.265H306V304.28ZM619 303.908H618V301.913H619V303.908ZM306 300.25H305V298.234H306V300.25ZM619 299.918H618V297.923H619V299.918ZM306 296.22H305V294.204H306V296.22ZM619 295.928H618V293.933H619V295.928ZM306 292.189H305V290.174H306V292.189ZM619 291.938H618V289.943H619V291.938ZM306 288.159H305V286.144H306V288.159ZM619 287.948H618V285.953H619V287.948ZM306 284.129H305V282.113H306V284.129ZM619 283.958H618V281.963H619V283.958ZM306 280.099H305V278.083H306V280.099ZM619 279.968H618V277.973H619V279.968ZM306 276.068H305V274.053H306V276.068ZM619 275.979H618V273.983H619V275.979ZM306 272.038H305V270.022H306V272.038ZM619 271.988H618V269.993H619V271.988ZM306.767 267H306V268.008H305V267H304.778V266H306.767V267ZM619 267.998H618V267H619V267.998ZM152 267H150V266.015H151V266H152V267ZM156 267H154V266H156V267ZM160 267H158V266H160V267ZM164 267H162V266H164V267ZM168 267H166V266H168V267ZM172 267H170V266H172V267ZM176 267H174V266H176V267ZM180 267H178V266H180V267ZM184 267H182V266H184V267ZM188 267H186V266H188V267ZM191 267H190V266H191V267ZM266.994 267H266V266H266.994V267ZM270.972 267H268.983V266H270.972V267ZM274.949 267H272.96V266H274.949V267ZM278.926 267H276.938V266H278.926V267ZM282.903 267H280.915V266H282.903V267ZM286.881 267H284.892V266H286.881V267ZM290.858 267H288.869V266H290.858V267ZM294.835 267H292.847V266H294.835V267ZM298.812 267H296.824V266H298.812V267ZM302.79 267H300.801V266H302.79V267ZM310.744 267H308.756V266H310.744V267ZM314.722 267H312.733V266H314.722V267ZM318.699 267H316.71V266H318.699V267ZM322.676 267H320.688V266H322.676V267ZM326.653 267H324.665V266H326.653V267ZM330.631 267H328.642V266H330.631V267ZM334.608 267H332.619V266H334.608V267ZM338.585 267H336.597V266H338.585V267ZM342.562 267H340.574V266H342.562V267ZM346.54 267H344.551V266H346.54V267ZM350.517 267H348.528V266H350.517V267ZM354.494 267H352.506V266H354.494V267ZM358.472 267H356.483V266H358.472V267ZM362.449 267H360.46V266H362.449V267ZM366.426 267H364.438V266H366.426V267ZM370.403 267H368.415V266H370.403V267ZM374.381 267H372.393V266H374.381V267ZM378.358 267H376.369V266H378.358V267ZM382.335 267H380.347V266H382.335V267ZM386.312 267H384.324V266H386.312V267ZM390.29 267H388.301V266H390.29V267ZM394.268 267H392.278V266H394.268V267ZM398.244 267H396.256V266H398.244V267ZM402.222 267H400.233V266H402.222V267ZM406.199 267H404.21V266H406.199V267ZM410.176 267H408.188V266H410.176V267ZM414.153 267H412.165V266H414.153V267ZM418.131 267H416.143V266H418.131V267ZM422.108 267H420.119V266H422.108V267ZM426.085 267H424.097V266H426.085V267ZM430.062 267H428.074V266H430.062V267ZM434.04 267H432.051V266H434.04V267ZM438.017 267H436.028V266H438.017V267ZM441.994 267H440.006V266H441.994V267ZM445.972 267H443.983V266H445.972V267ZM449.949 267H447.96V266H449.949V267ZM453.926 267H451.938V266H453.926V267ZM457.903 267H455.915V266H457.903V267ZM461.881 267H459.892V266H461.881V267ZM465.858 267H463.869V266H465.858V267ZM469.835 267H467.847V266H469.835V267ZM473.812 267H471.824V266H473.812V267ZM477.79 267H475.801V266H477.79V267ZM481.767 267H479.778V266H481.767V267ZM485.744 267H483.756V266H485.744V267ZM489.722 267H487.732V266H489.722V267ZM493.699 267H491.71V266H493.699V267ZM497.676 267H495.688V266H497.676V267ZM501.653 267H499.665V266H501.653V267ZM505.631 267H503.642V266H505.631V267ZM509.607 267H507.619V266H509.607V267ZM513.585 267H511.597V266H513.585V267ZM517.562 267H515.573V266H517.562V267ZM521.54 267H519.551V266H521.54V267ZM525.517 267H523.528V266H525.517V267ZM529.494 267H527.506V266H529.494V267ZM533.472 267H531.482V266H533.472V267ZM537.449 267H535.46V266H537.449V267ZM541.426 267H539.438V266H541.426V267ZM545.403 267H543.415V266H545.403V267ZM549.381 267H547.392V266H549.381V267ZM553.358 267H551.369V266H553.358V267ZM557.335 267H555.347V266H557.335V267ZM561.312 267H559.324V266H561.312V267ZM565.29 267H563.301V266H565.29V267ZM569.268 267H567.278V266H569.268V267ZM573.244 267H571.256V266H573.244V267ZM577.222 267H575.233V266H577.222V267ZM581.199 267H579.21V266H581.199V267ZM585.177 267H583.188V266H585.177V267ZM589.153 267H587.165V266H589.153V267ZM593.131 267H591.143V266H593.131V267ZM597.108 267H595.119V266H597.108V267ZM601.086 267H599.097V266H601.086V267ZM605.062 267H603.074V266H605.062V267ZM609.04 267H607.052V266H609.04V267ZM613.018 267H611.028V266H613.018V267ZM616 267H615.006V266H616V267ZM151 264.044H150V262.073H151V264.044ZM151 260.103H150V258.133H151V260.103ZM151 256.162H150V254.191H151V256.162ZM151 252.221H150V250.25H151V252.221ZM151 248.279H150V246.309H151V248.279ZM151 244.338H150V242.367H151V244.338ZM151 240.397H150V238.427H151V240.397ZM151 236.456H150V234.485H151V236.456ZM151 232.515H150V230.544H151V232.515ZM151 228.573H150V226.603H151V228.573ZM151 224.633H150V222.662H151V224.633ZM151 220.691H150V218.721H151V220.691ZM151 216.75H150V214.779H151V216.75ZM151 212.809H150V210.838H151V212.809ZM151 208.867H150V206.897H151V208.867ZM151 204.927H150V202.956H151V204.927ZM151 200.985H150V199.015H151V200.985ZM151 197.044H150V195.073H151V197.044ZM151 193.103H150V191.133H151V193.103ZM151 189.162H150V187.191H151V189.162ZM151 185.221H150V183.25H151V185.221ZM1 182H0V181H1V182ZM5 182H3V181H5V182ZM9 182H7V181H9V182ZM13 182H11V181H13V182ZM17 182H15V181H17V182ZM21 182H19V181H21V182ZM25 182H23V181H25V182ZM29 182H27V181H29V182ZM33 182H31V181H33V182ZM37 182H35V181H37V182ZM41 182H39V181H41V182ZM45 182H43V181H45V182ZM49 182H47V181H49V182ZM53 182H51V181H53V182ZM57 182H55V181H57V182ZM61 182H59V181H61V182ZM65 182H63V181H65V182ZM69 182H67V181H69V182ZM73 182H71V181H73V182ZM77 182H75V181H77V182ZM81 182H79V181H81V182ZM85 182H83V181H85V182ZM89 182H87V181H89V182ZM93 182H91V181H93V182ZM97 182H95V181H97V182ZM101 182H99V181H101V182ZM105 182H103V181H105V182ZM109 182H107V181H109V182ZM113 182H111V181H113V182ZM117 182H115V181H117V182ZM121 182H119V181H121V182ZM125 182H123V181H125V182ZM129 182H127V181H129V182ZM133 182H131V181H133V182ZM137 182H135V181H137V182ZM141 182H139V181H141V182ZM145 182H143V181H145V182ZM148 182H147V181H148V182ZM151 181.279H150V179.309H151V181.279ZM151 177.338H150V175.367H151V177.338ZM151 173.397H150V171.427H151V173.397ZM151 169.456H150V167.485H151V169.456ZM151 165.515H150V163.544H151V165.515ZM151 161.573H150V159.603H151V161.573ZM151 157.633H150V155.662H151V157.633ZM151 153.691H150V151.721H151V153.691ZM151 149.75H150V147.779H151V149.75ZM151 145.809H150V143.838H151V145.809ZM151 141.867H150V139.897H151V141.867ZM151 137.927H150V135.956H151V137.927ZM155 134H154V133H155V134ZM159 134H157V133H159V134ZM163 134H161V133H163V134ZM167 134H165V133H167V134ZM171 134H169V133H171V134ZM175 134H173V133H175V134ZM179 134H177V133H179V134ZM183 134H181V133H183V134ZM187 134H185V133H187V134ZM191 134H189V133H191V134ZM194 134H193V133H194V134ZM267 134H266V133H267V134ZM271 134H269V133H271V134ZM275 134H273V133H275V134ZM279 134H277V133H279V134ZM283 134H281V133H283V134ZM287 134H285V133H287V134ZM291 134H289V133H291V134ZM295 134H293V133H295V134ZM299 134H297V133H299V134ZM303 134H301V133H303V134ZM306 134H305V132.992H306V134ZM151 133.985H150V133H151V133.985ZM306 130.978H305V128.962H306V130.978ZM306 126.947H305V124.932H306V126.947ZM306 122.917H305V120.901H306V122.917ZM306 118.887H305V116.871H306V118.887ZM306 114.856H305V112.841H306V114.856ZM306 110.826H305V108.811H306V110.826ZM306 106.796H305V104.78H306V106.796ZM306 102.766H305V100.75H306V102.766ZM306 98.7344H305V96.7197H306V98.7344ZM306 94.7041H305V92.6895H306V94.7041ZM306 90.6738H305V88.6592H306V90.6738ZM306 86.6436H305V84.6289H306V86.6436ZM306 82.6133H305V80.5986H306V82.6133ZM306 78.583H305V76.5684H306V78.583ZM306 74.5527H305V72.5381H306V74.5527ZM306 70.5225H305V68.5078H306V70.5225ZM306 66.4922H305V64.4775H306V66.4922ZM306 62.4619H305V60.4473H306V62.4619ZM306 58.4316H305V56.417H306V58.4316ZM306 54.4014H305V52.3867H306V54.4014ZM306 50H306.944V51H306V50.3711H305V48.3564H306V50ZM310.723 51H308.833V50H310.723V51ZM314.5 51H312.611V50H314.5V51ZM318.277 51H316.389V50H318.277V51ZM322.056 51H320.167V50H322.056V51ZM325.833 51H323.944V50H325.833V51ZM329.611 51H327.723V50H329.611V51ZM333.389 51H331.5V50H333.389V51ZM337.167 51H335.277V50H337.167V51ZM340 51H339.056V50H340V51ZM306 46.3408H305V44.3262H306V46.3408ZM306 42.3105H305V40.2959H306V42.3105ZM306 38.2803H305V36.2646H306V38.2803ZM306 34.25H305V32.2344H306V34.25ZM306 30.2197H305V28.2041H306V30.2197ZM306 26.1895H305V24.1738H306V26.1895ZM306 22.1592H305V20.1436H306V22.1592ZM306 18.1289H305V16.1133H306V18.1289ZM306 14.0986H305V12.083H306V14.0986ZM306 10.0684H305V8.05273H306V10.0684ZM306 6.03809H305V4.02246H306V6.03809ZM306 2.00781H305V0H306V2.00781ZM267 1H266V0H267V1ZM271 1H269V0H271V1ZM275 1H273V0H275V1ZM279 1H277V0H279V1ZM283 1H281V0H283V1ZM287 1H285V0H287V1ZM291 1H289V0H291V1ZM295 1H293V0H295V1ZM299 1H297V0H299V1ZM303 1H301V0H303V1Z" fill="var(--fill-0, #A5A5A5)"/>
</g>
</svg>
