<svg width="1444" height="39" viewBox="0 0 1444 39" fill="none" xmlns="http://www.w3.org/2000/svg">
<circle cx="0.5" cy="0.5" r="0.5" fill="#767676"/>
<circle cx="39.5" cy="0.5" r="0.5" fill="#767676"/>
<circle cx="78.5" cy="0.5" r="0.5" fill="#767676"/>
<circle cx="117.5" cy="0.5" r="0.5" fill="#767676"/>
<circle cx="156.5" cy="0.5" r="0.5" fill="#767676"/>
<circle cx="195.5" cy="0.5" r="0.5" fill="#767676"/>
<circle cx="234.5" cy="0.5" r="0.5" fill="#767676"/>
<circle cx="273.5" cy="0.5" r="0.5" fill="#767676"/>
<circle cx="312.5" cy="0.5" r="0.5" fill="#767676"/>
<circle cx="351.5" cy="0.5" r="0.5" fill="#767676"/>
<circle cx="390.5" cy="0.5" r="0.5" fill="#767676"/>
<circle cx="429.5" cy="0.5" r="0.5" fill="#767676"/>
<circle cx="468.5" cy="0.5" r="0.5" fill="#767676"/>
<circle cx="507.5" cy="0.5" r="0.5" fill="#767676"/>
<circle cx="546.5" cy="0.5" r="0.5" fill="#767676"/>
<circle cx="585.5" cy="0.5" r="0.5" fill="#767676"/>
<circle cx="624.5" cy="0.5" r="0.5" fill="#767676"/>
<circle cx="663.5" cy="0.5" r="0.5" fill="#767676"/>
<circle cx="702.5" cy="0.5" r="0.5" fill="#767676"/>
<circle cx="741.5" cy="0.5" r="0.5" fill="#767676"/>
<circle cx="780.5" cy="0.5" r="0.5" fill="#767676"/>
<circle cx="819.5" cy="0.5" r="0.5" fill="#767676"/>
<circle cx="858.5" cy="0.5" r="0.5" fill="#767676"/>
<circle cx="897.5" cy="0.5" r="0.5" fill="#767676"/>
<circle cx="936.5" cy="0.5" r="0.5" fill="#767676"/>
<circle cx="975.5" cy="0.5" r="0.5" fill="#767676"/>
<circle cx="1014.5" cy="0.5" r="0.5" fill="#767676"/>
<circle cx="1053.5" cy="0.5" r="0.5" fill="#767676"/>
<circle cx="1092.5" cy="0.5" r="0.5" fill="#767676"/>
<circle cx="1131.5" cy="0.5" r="0.5" fill="#767676"/>
<circle cx="1170.5" cy="0.5" r="0.5" fill="#767676"/>
<circle cx="1209.5" cy="0.5" r="0.5" fill="#767676"/>
<circle cx="1248.5" cy="0.5" r="0.5" fill="#767676"/>
<circle cx="1287.5" cy="0.5" r="0.5" fill="#767676"/>
<circle cx="1326.5" cy="0.5" r="0.5" fill="#767676"/>
<circle cx="1365.5" cy="0.5" r="0.5" fill="#767676"/>
<circle cx="1404.5" cy="0.5" r="0.5" fill="#767676"/>
<circle cx="1443.5" cy="0.5" r="0.5" fill="#767676"/>
</svg>
