<svg preserveAspectRatio="none" width="100%" height="100%" overflow="visible" style="display: block;" viewBox="0 0 31.4569 28" fill="none" xmlns="http://www.w3.org/2000/svg">
<g id="PT">
<path id="Vector" d="M8.46085 4.88086V0H31.4569V4.88086H22.8847V28H17.0331V4.88086H8.46085Z" fill="var(--fill-0, black)"/>
<path id="Vector_2" d="M0 28V0H11.0469C13.1706 0 14.9798 0.405599 16.4746 1.2168C17.9694 2.01888 19.1087 3.13542 19.8926 4.56641C20.6855 5.98828 21.082 7.62891 21.082 9.48828C21.082 11.3477 20.681 12.9883 19.8789 14.4102C19.0768 15.832 17.9147 16.9395 16.3926 17.7324C14.8796 18.5254 13.0475 18.9219 10.8965 18.9219H3.85547V14.1777H9.93945C11.0788 14.1777 12.0176 13.9818 12.7559 13.5898C13.5033 13.1888 14.0592 12.6374 14.4238 11.9355C14.7975 11.2246 14.9844 10.4089 14.9844 9.48828C14.9844 8.55859 14.7975 7.7474 14.4238 7.05469C14.0592 6.35286 13.5033 5.81055 12.7559 5.42773C12.0085 5.03581 11.0605 4.83984 9.91211 4.83984H5.91992V28H0Z" fill="var(--fill-0, black)"/>
</g>
</svg>
