<?xml version="1.0" encoding="UTF-8"?>
<svg id="Layer_2" data-name="Layer 2" xmlns="http://www.w3.org/2000/svg" viewBox="0 0 259.88 178.4">
  <defs>
    <style>
      .cls-1 {
        fill: #fcc902;
      }

      .cls-2 {
        fill: #161616;
      }
    </style>
  </defs>
  <g id="Layer_2-2" data-name="Layer 2">
    <g>
      <g>
        <path class="cls-2" d="M14.25,154.18h-3.39L0,178.19h3.52l2.63-6,1.21-2.74,5.18-11.78,5.18,11.78,1.21,2.74,2.63,6h3.6l-10.91-24.01h0Z"/>
        <path class="cls-2" d="M33.94,160.67c-1.1.55-1.97,1.34-2.52,2.39v-3.05h-3.16v18.17h3.29v-9.05c0-1.97.5-3.5,1.53-4.55s2.42-1.6,4.21-1.6c.32,0,.58.03.76.05v-3.21c-1.6,0-2.97.29-4.1.84h-.01Z"/>
        <path class="cls-2" d="M42.1,152.73v25.46h3.29v-25.46h-3.29Z"/>
        <path class="cls-2" d="M67.66,164.33c-.82-1.42-1.92-2.52-3.37-3.31-1.42-.79-3.05-1.18-4.84-1.18s-3.45.39-4.89,1.18c-1.42.79-2.55,1.89-3.37,3.31-.82,1.39-1.21,3-1.21,4.79s.39,3.37,1.21,4.79c.82,1.39,1.95,2.5,3.37,3.31,1.45.79,3.08,1.18,4.89,1.18s3.42-.39,4.84-1.18c1.45-.82,2.55-1.92,3.37-3.31.82-1.42,1.24-3.02,1.24-4.79s-.42-3.39-1.24-4.79ZM64.77,172.45c-.53.97-1.26,1.74-2.18,2.26s-1.97.82-3.13.82-2.21-.29-3.16-.82c-.92-.53-1.66-1.29-2.18-2.26-.55-.97-.82-2.1-.82-3.34s.26-2.39.82-3.37c.53-.97,1.26-1.71,2.18-2.24.95-.53,1.97-.79,3.16-.79s2.21.26,3.13.79,1.66,1.26,2.18,2.24c.53.97.79,2.1.79,3.37s-.26,2.37-.79,3.34Z"/>
        <path class="cls-2" d="M88.67,161.85c-1.37-1.34-3.21-2.03-5.52-2.03-1.42,0-2.71.26-3.84.76s-2.05,1.24-2.71,2.16v-2.74h-3.16v18.17h3.29v-9.36c0-1.95.53-3.42,1.55-4.47,1.03-1.05,2.45-1.55,4.23-1.55,1.58,0,2.79.42,3.63,1.31s1.26,2.24,1.26,4v10.07h3.29v-10.47c0-2.58-.66-4.52-2.03-5.86h.01Z"/>
        <path class="cls-2" d="M117.15,154.18h-3.39l-10.86,24.01h3.52l2.63-6,1.21-2.74,5.18-11.78,5.18,11.78,1.21,2.74,2.63,6h3.6l-10.91-24.01h0Z"/>
        <path class="cls-2" d="M146.37,161.85c-1.34-1.34-3.18-2.03-5.5-2.03-1.45,0-2.74.26-3.87.76s-2.02,1.24-2.68,2.16v-2.74h-3.16v18.17h3.29v-9.36c0-1.95.53-3.42,1.55-4.47,1.03-1.05,2.42-1.55,4.21-1.55,1.58,0,2.79.42,3.63,1.31.87.89,1.29,2.24,1.29,4v10.07h3.29v-10.47c0-2.58-.68-4.52-2.05-5.86h0Z"/>
        <path class="cls-2" d="M185.45,164.33c-.81-1.42-1.95-2.52-3.37-3.31s-3.05-1.18-4.87-1.18-3.42.39-4.87,1.18-2.58,1.89-3.37,3.31c-.82,1.39-1.24,3-1.24,4.79s.42,3.37,1.24,4.79c.79,1.39,1.92,2.5,3.37,3.31,1.45.79,3.08,1.18,4.87,1.18s3.45-.39,4.87-1.18c1.42-.82,2.55-1.92,3.37-3.31.82-1.42,1.21-3.02,1.21-4.79s-.39-3.39-1.21-4.79ZM182.56,172.45c-.53.97-1.26,1.74-2.18,2.26-.92.53-1.97.82-3.16.82s-2.21-.29-3.13-.82c-.92-.53-1.66-1.29-2.21-2.26-.53-.97-.79-2.1-.79-3.34s.26-2.39.79-3.37c.55-.97,1.29-1.71,2.21-2.24.92-.53,1.97-.79,3.13-.79s2.24.26,3.16.79,1.66,1.26,2.18,2.24c.53.97.79,2.1.79,3.37s-.26,2.37-.79,3.34Z"/>
        <path class="cls-2" d="M164.73,174.77c-.71.58-1.55.87-2.55.87-.92,0-1.63-.26-2.13-.79-.47-.53-.74-1.29-.74-2.29v-9.84h5.23v-2.71h-5.23v-3.97h-3.29v3.97h-3.08v2.71h3.08v9.99c0,1.81.5,3.23,1.5,4.21,1.03,1,2.45,1.47,4.26,1.47.76,0,1.5-.11,2.21-.32s1.29-.53,1.79-.95l-1.05-2.37v.02Z"/>
        <path class="cls-2" d="M205.86,161.85c-1.37-1.34-3.21-2.03-5.52-2.03-1.45,0-2.74.26-3.87.76s-2.03,1.24-2.68,2.16v-2.74h-3.16v18.17h3.29v-9.36c0-1.95.53-3.42,1.55-4.47,1.03-1.05,2.45-1.55,4.21-1.55,1.58,0,2.79.42,3.66,1.31.84.89,1.26,2.24,1.26,4v10.07h3.29v-10.47c0-2.58-.68-4.52-2.03-5.86h0Z"/>
        <path class="cls-2" d="M217.25,152.83c-.42-.42-.97-.6-1.6-.6s-1.18.21-1.6.63-.63.92-.63,1.53.21,1.1.63,1.5c.42.42.97.63,1.6.63s1.18-.21,1.6-.63.63-.95.63-1.58c0-.58-.21-1.08-.63-1.47h0ZM213.99,160.01v18.17h3.31v-18.17h-3.31Z"/>
        <path class="cls-2" d="M237.24,160.01v9.39c0,1.92-.5,3.42-1.52,4.47-1,1.05-2.37,1.58-4.1,1.58-1.58,0-2.79-.45-3.66-1.37-.84-.89-1.26-2.24-1.26-4v-10.07h-3.29v10.47c0,2.6.68,4.58,2.08,5.92,1.42,1.34,3.31,2,5.73,2,1.29,0,2.47-.26,3.55-.76,1.1-.53,1.97-1.24,2.63-2.18v2.74h3.13v-18.17h-3.29v-.02Z"/>
        <path class="cls-2" d="M258.91,170.14c-.63-.68-1.39-1.18-2.31-1.47-.89-.29-2.08-.55-3.55-.79-1.1-.21-1.95-.39-2.55-.55s-1.1-.42-1.53-.76c-.42-.34-.63-.82-.63-1.39,0-.76.37-1.37,1.1-1.84.74-.45,1.82-.68,3.21-.68,2,0,3.76.5,5.23,1.45l1.42-2.6c-.79-.5-1.79-.89-3-1.21-1.21-.29-2.42-.45-3.63-.45-2.31,0-4.16.5-5.52,1.5s-2.05,2.31-2.05,3.97c0,1.29.32,2.26.97,2.97.68.71,1.47,1.21,2.39,1.53.92.29,2.13.55,3.58.79,1.08.18,1.92.34,2.5.5.58.13,1.08.37,1.45.68.39.34.6.76.6,1.31,0,1.66-1.45,2.47-4.34,2.47-1.16,0-2.31-.18-3.47-.53-1.13-.34-2.1-.79-2.89-1.37l-1.39,2.6c.79.63,1.87,1.13,3.23,1.53,1.37.42,2.81.6,4.29.6,2.42,0,4.34-.47,5.76-1.45,1.39-.97,2.1-2.29,2.1-3.94,0-1.24-.32-2.18-.97-2.87h0Z"/>
      </g>
      <polygon class="cls-1" points="193.55 110.18 151.14 110.18 129.94 73.45 115.8 97.94 115.8 97.94 129.94 97.94 137 110.18 94.6 110.18 129.94 48.97 158.21 97.94 172.34 97.94 172.34 97.94 129.94 24.49 129.94 24.49 80.46 110.18 66.33 110.18 129.94 0 193.55 110.18"/>
    </g>
  </g>
</svg>