<svg xmlns="http://www.w3.org/2000/svg" xmlns:xlink="http://www.w3.org/1999/xlink" viewBox="0 0 236.13 236.99"><defs><style>.cls-1{fill:url(#linear-gradient);}.cls-2{fill:url(#linear-gradient-2);}.cls-3{fill:url(#linear-gradient-3);}.cls-4{fill:url(#linear-gradient-4);}.cls-5{fill:url(#linear-gradient-5);}.cls-6{fill:#2c3ab8;}.cls-7{fill:#ff9045;}</style><linearGradient id="linear-gradient" x1="110.92" y1="87.42" x2="-5.74" y2="-57.78" gradientTransform="translate(55.83 78.12) rotate(20)" gradientUnits="userSpaceOnUse"><stop offset="0" stop-color="#5a5aef"/><stop offset="1" stop-color="#5a88ef"/></linearGradient><linearGradient id="linear-gradient-2" x1="42.66" y1="142.26" x2="-74" y2="-2.94" xlink:href="#linear-gradient"/><linearGradient id="linear-gradient-3" x1="81.32" y1="111.2" x2="-35.34" y2="-34" xlink:href="#linear-gradient"/><linearGradient id="linear-gradient-4" x1="177.49" y1="33.94" x2="60.83" y2="-111.27" xlink:href="#linear-gradient"/><linearGradient id="linear-gradient-5" x1="196.79" y1="18.44" x2="80.12" y2="-126.77" xlink:href="#linear-gradient"/></defs><g id="Layer_2" data-name="Layer 2"><g id="Layer_7" data-name="Layer 7"><path class="cls-1" d="M79.2,17.92l5.38,18.84-18.3-7A9.8,9.8,0,1,1,79.2,17.92Z"/><path class="cls-2" d="M10.16,125.06l19.57.7L17.42,141a9.69,9.69,0,0,1-8.84,3.56,9.79,9.79,0,0,1,1.58-19.5Z"/><path class="cls-3" d="M90.72,223.83l6.72-18.4,10.69,16.42a9.79,9.79,0,1,1-17.41,2Z"/><path class="cls-4" d="M209.55,177.73l-15.42-12.07L213,160.57a9.79,9.79,0,1,1-3.49,17.16Z"/><path class="cls-5" d="M202.43,50.48,186.18,61.41l1-19.56a9.8,9.8,0,1,1,15.25,8.63Z"/><path class="cls-6" d="M98.07,12.51l5.42,18.82L115.3,15.7a9.8,9.8,0,0,0-6-15.53,9.8,9.8,0,0,0-11.2,12.34Z"/><path class="cls-6" d="M10.85,105.44l19.57.66L19.2,90a9.8,9.8,0,1,0-8.35,15.4Z"/><path class="cls-6" d="M72.27,217.11,79,198.7l-18.74,5.71a9.79,9.79,0,1,0,12.06,12.7Z"/><path class="cls-6" d="M197.46,193.2l-15.44-12-.37,19.59a9.79,9.79,0,1,0,15.81-7.55Z"/><path class="cls-6" d="M213.41,66.75l-16.23,11,18.51,6.4a9.79,9.79,0,1,0-2.28-17.37Z"/><path class="cls-7" d="M135,83a25.1,25.1,0,0,1-3.16-.92,25.58,25.58,0,0,1-3-1.32,24.29,24.29,0,0,1-5.38-39.11L158.7,8.32l5.55,48.21A24.28,24.28,0,0,1,135,83Z"/><path class="cls-7" d="M135,83a25.1,25.1,0,0,1-3.16-.92,25.58,25.58,0,0,1-3-1.32l12-23.51Z"/><path class="cls-7" d="M90.47,91.74a24,24,0,0,1-1.83,2.64,22.6,22.6,0,0,1-2.19,2.37c-11.56,11-31.72,7.74-39.24-7.3L25.66,46.3l48.07,10C90.49,59.79,98.62,78.12,90.47,91.74Z"/><path class="cls-7" d="M90.47,91.74a24,24,0,0,1-1.83,2.64,22.6,22.6,0,0,1-2.19,2.37l-19-18.55Z"/><path class="cls-7" d="M68.88,178.6l-48.12,6.27L44.61,142.6a24.28,24.28,0,0,1,39.24-4.24,25.23,25.23,0,0,1,2,2.6,24.24,24.24,0,0,1-17,37.64Z"/><path class="cls-7" d="M87.52,143.81,64,155.73l19.89-17.37a25.23,25.23,0,0,1,2,2.6A24.24,24.24,0,0,1,87.52,143.81Z"/><path class="cls-7" d="M150.88,232.23l-32.83-35.74a24.21,24.21,0,0,1,11.18-39.74,23.82,23.82,0,0,1,3.22-.7,24.27,24.27,0,0,1,27.33,28.47Z"/><path class="cls-7" d="M136.52,182.14l-10.39-24.28a24.22,24.22,0,0,1,3.1-1.11,23.82,23.82,0,0,1,3.22-.7Z"/><path class="cls-7" d="M236.13,123.12,192,143.29a24.27,24.27,0,0,1-34.23-19.62,24,24,0,0,1-.11-3.3,24.8,24.8,0,0,1,.33-3.27,24.28,24.28,0,0,1,35.53-17.19Z"/><path class="cls-7" d="M184.06,121.3l-26.3,2.37a24,24,0,0,1-.11-3.3,24.8,24.8,0,0,1,.33-3.27Z"/><path class="cls-6" d="M136.86,125.72a19.63,19.63,0,1,1-18.5-26.35l1.73,15,11-10.39A19.65,19.65,0,0,1,136.86,125.72Z"/></g></g></svg>