<?xml version="1.0" encoding="UTF-8"?>
<svg id="Layer_2" data-name="Layer 2" xmlns="http://www.w3.org/2000/svg" viewBox="0 0 246.24 243.19">
  <defs>
    <style>
      .cls-1 {
        fill: #222;
      }
    </style>
  </defs>
  <g id="Layer_1-2" data-name="Layer 1">
    <g>
      <g>
        <g>
          <path class="cls-1" d="M28.18,50.99c-.42-.34-.77-.76-1.05-1.23-.28-.48-.47-1-.57-1.56-.1-.56-.07-1.12.07-1.7s.43-1.12.86-1.64c.51-.62,1.09-1.04,1.74-1.26.65-.22,1.28-.26,1.9-.12l-.13,1.32c-.38-.1-.73-.12-1.06-.05-.32.06-.61.18-.86.36-.25.18-.47.37-.65.59-.3.36-.48.74-.56,1.13-.08.39-.07.77.01,1.15s.24.74.46,1.07c.22.34.48.63.77.87.33.27.69.48,1.09.62.4.14.79.21,1.19.21s.77-.08,1.13-.24c.36-.16.67-.4.93-.72.18-.22.33-.48.45-.78.12-.3.18-.62.18-.96s-.08-.68-.26-1.01l1.25-.48c.22.42.33.88.32,1.38,0,.5-.1.98-.29,1.45-.18.47-.42.89-.72,1.25-.4.48-.86.84-1.39,1.07-.53.23-1.08.35-1.66.37-.58.01-1.14-.08-1.7-.26-.55-.19-1.05-.46-1.48-.81Z"/>
          <path class="cls-1" d="M37.1,34.61l.96-.91,8.62,4.05-1.07,1.02-2.29-1.15-2.57,2.45,1.03,2.35-1.08,1.02-3.6-8.83ZM42.33,37.12l-3.69-1.85,1.66,3.78,2.03-1.93Z"/>
          <path class="cls-1" d="M57.92,29.03l-3.71-5.13.7,5.42-.67.48-4.94-2.35,3.71,5.12-1.13.82-5.2-7.19,1.21-.88,5.56,2.67-.8-6.12,1.22-.88,5.2,7.19-1.14.83Z"/>
          <path class="cls-1" d="M65.62,24.21l-4.22-7.81,3.28-1.77c.35-.19.71-.29,1.09-.3.37-.01.73.04,1.08.17.35.12.67.3.95.54.28.24.5.51.67.83.23.43.36.9.38,1.4s-.09.96-.31,1.4c-.22.43-.57.78-1.04,1.03l-2.11,1.14,1.47,2.72-1.23.67ZM64.79,19.73l2.03-1.1c.24-.13.41-.3.51-.52.11-.22.15-.47.13-.75-.02-.27-.1-.55-.26-.83-.15-.29-.35-.51-.58-.66-.24-.16-.48-.25-.73-.26-.25-.02-.49.03-.71.15l-1.97,1.06,1.58,2.91Z"/>
          <path class="cls-1" d="M85.79,15.07l-2.61-8.48,3.01-.93c.92-.28,1.74-.33,2.47-.14.73.19,1.35.56,1.85,1.1s.88,1.21,1.12,1.99c.27.86.33,1.66.18,2.4-.14.74-.47,1.38-.98,1.92-.51.54-1.19.94-2.03,1.2l-3.01.93ZM90.26,9.04c-.18-.6-.46-1.09-.82-1.48s-.79-.65-1.28-.78c-.49-.13-1.03-.11-1.62.07l-1.67.51,1.88,6.12,1.67-.52c.6-.18,1.06-.47,1.38-.87.33-.4.53-.86.6-1.39s.02-1.08-.16-1.66Z"/>
          <path class="cls-1" d="M100.04,11.25l-1.72-8.71,1.37-.27,1.72,8.71-1.37.27Z"/>
          <path class="cls-1" d="M115.07,7.91l.12,1.23-6.06.6-.87-8.83,5.95-.58.12,1.23-4.55.45.25,2.51,3.94-.39.11,1.16-3.94.39.27,2.7,4.67-.46Z"/>
          <path class="cls-1" d="M125.79,9c-.58-.01-1.13-.15-1.63-.4-.5-.25-.94-.6-1.31-1.03-.37-.43-.66-.92-.86-1.47-.2-.55-.29-1.12-.28-1.73s.13-1.18.36-1.71c.22-.53.53-1,.92-1.41.39-.41.84-.72,1.36-.95.52-.22,1.08-.33,1.69-.31.84.02,1.55.21,2.12.58.57.37,1,.84,1.28,1.43l-1.09.75c-.22-.49-.55-.86-.97-1.11s-.89-.38-1.4-.39c-.42,0-.8.07-1.14.24-.35.17-.64.4-.9.7-.25.3-.45.64-.58,1.03-.13.39-.2.79-.21,1.22,0,.45.05.87.19,1.27s.33.74.58,1.04c.25.3.55.54.9.71.35.17.72.26,1.13.27.48.01.95-.1,1.39-.34.44-.24.86-.6,1.26-1.08l-.03,1.42c-.79.86-1.71,1.28-2.75,1.26ZM128.46,5.54l-1.86-.04.02-1.04,3.04.06-.09,4.49-1.17-.02.07-3.45Z"/>
          <path class="cls-1" d="M140.45,10.26c-.63-.1-1.19-.31-1.66-.63-.47-.32-.86-.73-1.17-1.21-.3-.48-.52-1-.64-1.56s-.14-1.12-.05-1.68c.09-.58.28-1.13.57-1.63.29-.5.66-.93,1.11-1.29.44-.36.94-.62,1.49-.79.55-.16,1.13-.2,1.73-.11.63.1,1.18.31,1.65.64.48.33.87.74,1.17,1.23.3.48.51,1.01.63,1.56.12.56.14,1.11.06,1.66-.09.59-.28,1.13-.57,1.63-.29.5-.66.93-1.1,1.29-.44.36-.94.62-1.49.78-.55.16-1.13.2-1.73.1ZM138.33,5.39c-.06.41-.06.82.02,1.23.07.41.21.78.41,1.12.2.34.46.62.78.84.32.23.7.37,1.12.44.45.07.85.04,1.23-.09.37-.13.7-.33.98-.6.28-.27.51-.59.7-.96.18-.36.3-.74.36-1.13.06-.41.06-.82,0-1.22-.07-.4-.21-.77-.41-1.11-.2-.34-.46-.62-.78-.84-.32-.23-.69-.37-1.1-.43-.45-.07-.86-.04-1.23.09-.37.13-.7.33-.99.6-.29.27-.52.58-.71.94-.19.36-.31.74-.37,1.13Z"/>
          <path class="cls-1" d="M163.64,16.31c-.55-.21-1.02-.51-1.41-.91s-.69-.87-.89-1.4c-.21-.53-.31-1.09-.32-1.67,0-.58.09-1.16.31-1.73.21-.57.51-1.07.9-1.49.39-.42.83-.77,1.33-1.02.5-.26,1.03-.4,1.6-.44.56-.04,1.13.05,1.7.26.79.3,1.39.71,1.81,1.25.42.54.66,1.13.73,1.78l-1.28.35c-.05-.53-.23-.99-.55-1.37-.32-.38-.71-.65-1.19-.83-.39-.15-.78-.2-1.16-.15s-.74.17-1.08.36c-.34.2-.63.46-.88.78s-.45.68-.6,1.08c-.16.42-.24.84-.24,1.26,0,.42.06.81.2,1.18.14.37.34.69.61.97s.59.49.98.63c.45.17.93.22,1.42.14.49-.08,1.01-.28,1.54-.6l-.5,1.33c-1.04.55-2.04.64-3.01.27ZM167.3,13.93l-1.74-.65.37-.97,2.84,1.07-1.58,4.2-1.1-.41,1.21-3.23Z"/>
          <path class="cls-1" d="M180.21,13.93l1.17.62-1.07,9.46-1.31-.69.35-2.54-3.14-1.65-1.89,1.73-1.32-.69,7.21-6.24ZM179.51,19.69l.57-4.09-3.05,2.79,2.48,1.3Z"/>
          <path class="cls-1" d="M186.11,27.59l5.04-7.31,3.18,2.19c.33.23.58.5.76.83.18.33.29.67.34,1.04.05.37.03.73-.05,1.09-.08.36-.22.69-.43.98-.22.32-.49.59-.81.8-.32.21-.66.35-1.02.42-.36.06-.72.04-1.08-.06l-.2,3.96-1.3-.89.17-3.63-1.7-1.17-1.75,2.54-1.15-.79ZM189.72,24.82l2.02,1.39c.21.15.44.22.7.21.25-.01.49-.09.73-.23.24-.14.45-.34.62-.58.18-.25.28-.52.31-.8.03-.28,0-.54-.09-.78s-.24-.44-.44-.58l-1.96-1.35-1.88,2.73Z"/>
          <path class="cls-1" d="M199.92,32.15c.36-.4.78-.74,1.27-1,.49-.26,1.01-.43,1.58-.51.56-.07,1.13-.03,1.7.13.57.16,1.1.47,1.61.92.6.53,1,1.13,1.19,1.78.2.66.21,1.29.05,1.91l-1.31-.18c.11-.38.14-.73.09-1.06-.05-.32-.16-.62-.33-.87-.17-.26-.36-.48-.57-.67-.35-.31-.72-.51-1.1-.6-.39-.09-.77-.1-1.15-.03-.38.07-.74.21-1.09.42-.34.21-.64.45-.9.74-.28.32-.5.67-.66,1.06s-.24.78-.25,1.18.05.78.2,1.14c.14.36.38.68.69.96.21.19.47.35.76.48s.62.2.95.22c.34.02.68-.06,1.02-.22l.43,1.27c-.43.21-.89.3-1.39.27-.5-.03-.97-.14-1.44-.34-.46-.2-.87-.45-1.22-.76-.47-.41-.81-.89-1.02-1.43-.21-.54-.31-1.1-.3-1.67s.12-1.14.32-1.68c.21-.55.49-1.03.87-1.45Z"/>
          <path class="cls-1" d="M207.7,45.79l6.54-6,.95,1.03-6.54,6-.95-1.03Z"/>
          <path class="cls-1" d="M222.38,49.5l.79,1.06-5.05,8.07-.88-1.18,1.42-2.14-2.12-2.85-2.46.74-.89-1.19,9.19-2.52ZM219.26,54.4l2.28-3.44-3.96,1.2,1.67,2.25Z"/>
        </g>
        <g>
          <path class="cls-1" d="M44.09,204.7c0-.12,0-.27-.04-.45-.03-.18-.09-.37-.18-.58-.08-.21-.19-.42-.31-.63-.13-.21-.28-.41-.46-.59-.39-.4-.76-.63-1.09-.68s-.64.05-.9.31c-.19.19-.29.39-.3.61,0,.22.06.47.21.77.14.29.34.65.58,1.08.31.51.54.98.7,1.41.16.44.21.84.14,1.22-.07.38-.28.74-.65,1.1-.31.3-.63.5-.96.61s-.67.12-1.01.05-.68-.21-1-.41c-.33-.21-.64-.46-.94-.77-.3-.3-.56-.64-.79-1-.23-.36-.42-.74-.56-1.13-.14-.39-.24-.79-.28-1.19l1.25-.37c0,.15.02.33.07.56.05.23.12.47.22.74.1.26.23.53.39.81.16.27.35.53.58.75.38.38.73.61,1.06.68.33.07.62-.01.87-.26.21-.2.3-.43.3-.68,0-.25-.09-.55-.25-.88-.16-.34-.37-.72-.62-1.15-.28-.51-.49-.96-.63-1.35s-.17-.76-.09-1.09c.07-.33.26-.65.58-.96.4-.39.83-.62,1.3-.7.47-.08.93-.01,1.4.18s.9.51,1.31.92c.27.27.49.56.67.87.18.3.32.61.43.93s.18.63.22.93l-1.22.33Z"/>
          <path class="cls-1" d="M48.64,217.49c-.53-.43-.91-.88-1.13-1.35-.22-.47-.31-.96-.29-1.45.03-.49.15-.98.37-1.46.22-.48.5-.94.84-1.37l2.7-3.37,1.05.84-2.7,3.37c-.25.31-.45.63-.62.96-.17.33-.27.67-.31,1-.04.34,0,.66.13.98.13.32.36.62.71.89.35.28.7.45,1.04.5.34.05.67.02.99-.1.32-.12.62-.29.91-.53.29-.23.55-.5.79-.8l2.7-3.37,1.06.85-2.7,3.37c-.37.46-.76.84-1.2,1.16-.43.32-.88.53-1.35.65-.47.12-.96.12-1.46,0-.5-.12-1.01-.38-1.53-.79Z"/>
          <path class="cls-1" d="M58.4,224.52l4.45-7.27,3.16,1.94c.33.2.59.45.78.76.19.3.32.63.38.98.06.35.07.7,0,1.05-.06.35-.18.67-.36.96-.2.32-.44.59-.74.82s-.62.37-.96.45c-.34.08-.69.08-1.03,0l.02,3.81-1.29-.79-.03-3.49-1.69-1.03-1.55,2.53-1.15-.7ZM61.72,221.68l2.01,1.23c.21.13.44.18.68.16.24-.02.47-.11.69-.26s.41-.35.56-.59c.15-.25.24-.51.25-.78.01-.27-.03-.52-.13-.75-.1-.23-.25-.41-.46-.53l-1.94-1.19-1.66,2.71Z"/>
          <path class="cls-1" d="M70.9,231.54l3.69-7.68,1.21.58-3.69,7.68-1.21-.58Z"/>
          <path class="cls-1" d="M83.04,236.7c-.53-.19-.98-.47-1.36-.86-.38-.38-.68-.83-.88-1.33-.21-.51-.32-1.04-.33-1.6s.07-1.11.27-1.66c.2-.55.48-1.03.84-1.45s.79-.75,1.26-1c.48-.25.99-.4,1.52-.45.54-.04,1.08.03,1.63.23.76.27,1.35.66,1.75,1.17.41.51.65,1.07.73,1.69l-1.22.35c-.05-.51-.24-.95-.55-1.3s-.69-.62-1.15-.78c-.38-.13-.75-.18-1.11-.13-.37.05-.71.17-1.03.37s-.6.45-.84.76c-.24.31-.43.66-.56,1.04-.15.41-.22.81-.22,1.21,0,.4.07.78.21,1.13.14.35.34.66.6.92.26.26.58.46.95.59.44.16.89.19,1.37.11.47-.08.96-.28,1.47-.6l-.46,1.29c-.98.54-1.95.64-2.89.31ZM86.51,234.36l-1.68-.6.33-.94,2.75.98-1.45,4.06-1.06-.38,1.11-3.12Z"/>
          <path class="cls-1" d="M98.48,232.27l1.24.28,1.39,9.03-1.38-.31-.31-2.44-3.33-.74-1.32,2.08-1.39-.31,5.1-7.6ZM99.29,237.79l-.5-3.93-2.12,3.35,2.63.58Z"/>
          <path class="cls-1" d="M111.8,243.08c-.61-.06-1.16-.23-1.63-.52-.47-.29-.87-.65-1.19-1.1-.32-.44-.55-.93-.7-1.46-.15-.53-.19-1.07-.14-1.61.05-.56.21-1.09.46-1.59.26-.49.59-.92.99-1.29s.87-.64,1.39-.83c.52-.19,1.07-.25,1.65-.2.61.06,1.14.23,1.62.53.47.29.87.67,1.18,1.11.31.45.55.94.69,1.46.15.53.2,1.06.14,1.59-.05.57-.21,1.1-.46,1.59s-.58.93-.98,1.29c-.41.37-.87.64-1.39.83s-1.07.25-1.65.19ZM109.51,238.53c-.04.4,0,.79.08,1.18.09.39.24.74.45,1.05.21.31.47.57.79.77.32.2.68.32,1.1.36.43.04.82-.01,1.17-.15.35-.14.65-.35.91-.63s.46-.6.62-.95c.15-.36.25-.73.29-1.1.04-.4.01-.79-.08-1.17-.09-.38-.24-.73-.45-1.04-.21-.31-.47-.57-.79-.77-.31-.2-.67-.32-1.08-.36-.43-.04-.82.01-1.17.15-.35.14-.66.35-.92.62-.26.27-.47.59-.62.94s-.26.72-.29,1.11Z"/>
          <path class="cls-1" d="M133.12,243.19l-.94-8.47,3-.33c.92-.1,1.7,0,2.35.31s1.17.77,1.55,1.37c.38.61.61,1.3.7,2.08.1.86,0,1.62-.26,2.3-.27.67-.69,1.22-1.27,1.64-.58.42-1.29.68-2.12.77l-3.01.33ZM138.42,238.31c-.07-.6-.23-1.11-.5-1.54s-.62-.76-1.06-.97c-.44-.21-.95-.29-1.54-.22l-1.67.19.68,6.11,1.67-.19c.6-.07,1.08-.26,1.46-.57.38-.31.65-.71.81-1.2.16-.48.21-1.02.15-1.6Z"/>
          <path class="cls-1" d="M153.47,238.48l.27,1.16-5.69,1.34-1.95-8.29,5.58-1.32.27,1.16-4.27,1.01.56,2.36,3.7-.87.26,1.09-3.7.87.6,2.54,4.38-1.03Z"/>
          <path class="cls-1" d="M161.28,237.36l-2.89-8.02,1.26-.46,2.49,6.9,4.3-1.55.4,1.12-5.57,2.01Z"/>
          <path class="cls-1" d="M182.75,220.08c-.11-.04-.26-.06-.44-.06-.18,0-.38,0-.61.03-.22.03-.45.08-.69.16s-.46.18-.68.31c-.48.29-.79.59-.91.9-.13.32-.1.63.09.95.14.23.31.38.52.43.21.06.48.05.8-.02.32-.07.72-.17,1.18-.31.56-.18,1.08-.29,1.54-.35.46-.05.87,0,1.22.15.35.15.66.45.92.89.22.37.34.73.36,1.08.02.35-.04.68-.19,1-.15.32-.36.61-.64.88-.28.27-.6.52-.97.74-.36.22-.75.4-1.16.53-.41.14-.82.23-1.23.28-.42.05-.82.04-1.22,0l-.06-1.3c.14.04.33.06.56.06.23,0,.49,0,.77-.04.28-.04.57-.1.88-.19.3-.09.59-.22.87-.38.46-.27.77-.56.91-.87s.13-.61-.04-.91c-.15-.25-.34-.4-.59-.45-.25-.05-.55-.04-.91.04-.36.08-.79.19-1.27.34-.56.16-1.05.25-1.46.29-.42.04-.78-.02-1.08-.16-.31-.15-.57-.41-.8-.79-.29-.48-.41-.96-.37-1.43.04-.47.21-.91.51-1.32.3-.41.7-.76,1.21-1.06.33-.2.67-.35,1-.45s.67-.17,1-.2c.33-.03.65-.03.96,0l.04,1.26Z"/>
          <path class="cls-1" d="M196.25,218.64c-.54.42-1.06.68-1.57.78-.51.1-1,.09-1.47-.06-.47-.14-.91-.38-1.33-.7-.42-.32-.79-.7-1.13-1.14l-2.65-3.41,1.06-.83,2.65,3.41c.24.31.5.58.79.82.29.24.59.42.9.54.31.12.64.15.98.1.34-.05.68-.21,1.03-.48.35-.28.6-.57.73-.89s.18-.65.13-.98c-.04-.34-.14-.67-.3-1-.16-.33-.35-.65-.59-.96l-2.65-3.41,1.07-.83,2.65,3.41c.36.46.64.94.85,1.43.21.49.31.98.32,1.47,0,.49-.1.96-.33,1.42-.23.46-.61.9-1.13,1.3Z"/>
          <path class="cls-1" d="M205.33,210.79l-6.01-6.04,2.63-2.62c.27-.27.58-.46.92-.57.34-.11.69-.16,1.04-.14.35.02.69.1,1.02.24.32.14.61.33.85.58.26.27.47.57.62.91.15.34.22.69.21,1.04,0,.35-.08.69-.24,1l3.71.88-1.07,1.07-3.4-.8-1.4,1.4,2.09,2.1-.95.95ZM203.36,206.9l1.67-1.66c.18-.17.28-.38.32-.62.03-.24,0-.48-.09-.73-.09-.25-.24-.48-.44-.68-.21-.21-.44-.35-.7-.43-.26-.08-.51-.09-.75-.05s-.46.15-.62.32l-1.62,1.61,2.24,2.25Z"/>
        </g>
      </g>
      <path class="cls-1" d="M4.47,127.09c-.67,0-1.29-.13-1.81-.3-1.57-.52-2.62-1.56-2.67-1.6l1.06-1.06c.34.33,3.38,3.15,6.53,0,3.42-3.42,7.16-1.5,8.65,0l-1.06,1.06c-.33-.33-3.38-3.15-6.53,0-1.46,1.45-2.92,1.91-4.18,1.91Z"/>
      <path class="cls-1" d="M234.47,127.42c-.67,0-1.29-.13-1.81-.3-1.57-.52-2.62-1.56-2.67-1.6l1.06-1.06c.34.33,3.38,3.15,6.53,0,2.23-2.23,4.49-2.1,5.99-1.6,1.57.52,2.62,1.56,2.67,1.6l-1.06,1.06c-.33-.33-3.38-3.15-6.53,0-1.46,1.45-2.92,1.91-4.18,1.91Z"/>
      <g>
        <path class="cls-1" d="M98.87,124.28h-1.5c0-8.39,1.62-16.55,4.81-24.23l1.38.58c-3.12,7.5-4.69,15.46-4.69,23.66Z"/>
        <path class="cls-1" d="M142.23,99.58c-4.18-9.58-10.79-17.99-19.11-24.36-7.78,5.96-14.1,13.76-18.3,22.58l-1.36-.64c4.38-9.22,11.02-17.33,19.21-23.48l.45-.34.45.34c8.75,6.57,15.67,15.32,20.04,25.3l-1.38.6Z"/>
        <path class="cls-1" d="M123.12,175.23l-.45-.34c-8.75-6.57-15.67-15.32-20.04-25.3l1.38-.6c4.18,9.58,10.79,17.99,19.11,24.36,7.7-5.9,13.98-13.6,18.17-22.32l1.35.65c-4.38,9.1-10.98,17.13-19.08,23.21l-.45.34Z"/>
        <path class="cls-1" d="M144.07,148.5l-1.38-.57c3.11-7.5,4.68-15.45,4.68-23.64h1.5c0,8.39-1.61,16.53-4.8,24.21Z"/>
        <polygon class="cls-1" points="123.12 75.23 116.42 70.13 117.32 68.94 123.12 73.34 128.92 68.94 129.82 70.13 123.12 75.23"/>
        <path class="cls-1" d="M145.75,148.8c-.5,0-12.51-.28-24.49-24.8-11.51-23.56-23.03-23.96-23.14-23.96v-1.5c.51,0,12.52.28,24.49,24.8,11.51,23.56,23.03,23.96,23.14,23.96v1.5Z"/>
      </g>
      <g>
        <path class="cls-1" d="M108.97,53.54v.99h-4.87v-7.1h4.78v.99h-3.66v2.02h3.17v.93h-3.17v2.17h3.75Z"/>
        <path class="cls-1" d="M119.33,49.1c-.07-.07-.16-.15-.29-.23-.13-.08-.28-.16-.45-.23s-.36-.13-.56-.18c-.2-.05-.41-.07-.62-.07-.47,0-.81.09-1.04.26s-.34.41-.34.72c0,.23.06.4.19.53.13.13.32.24.58.32s.59.18.98.28c.48.11.9.25,1.25.4.35.16.62.36.81.62.19.26.28.6.28,1.03,0,.36-.07.67-.2.93-.13.26-.32.47-.56.63-.24.16-.52.28-.83.36-.31.08-.65.11-1.01.11s-.71-.04-1.06-.11c-.35-.07-.68-.18-1-.32-.32-.14-.61-.32-.88-.53l.51-.96c.09.09.21.18.38.29.16.1.35.2.57.29s.45.17.71.23c.26.06.52.1.79.1.45,0,.79-.08,1.03-.23.24-.16.35-.38.35-.67,0-.24-.08-.43-.23-.57-.15-.14-.38-.26-.67-.36-.29-.1-.64-.2-1.05-.3-.47-.13-.86-.26-1.17-.41-.31-.15-.55-.34-.71-.58-.16-.24-.23-.54-.23-.9,0-.47.11-.86.34-1.18.23-.32.54-.56.92-.73.39-.16.83-.24,1.32-.24.32,0,.62.03.91.1.29.07.55.17.8.29.25.12.48.26.68.41l-.51.92Z"/>
        <path class="cls-1" d="M131.45,48.42h-2.36v6.11h-1.13v-6.11h-2.37v-.99h5.86v.99Z"/>
        <path class="cls-1" d="M137.4,54.53v-7.1h2.52c.77,0,1.41.16,1.92.48.51.32.9.74,1.15,1.28.26.54.38,1.13.38,1.79,0,.72-.14,1.35-.42,1.88-.28.53-.68.95-1.21,1.24s-1.13.44-1.83.44h-2.52ZM142.24,50.97c0-.5-.09-.94-.27-1.32-.18-.38-.45-.68-.79-.9-.34-.22-.76-.32-1.25-.32h-1.4v5.12h1.4c.5,0,.92-.11,1.26-.34.34-.23.61-.53.79-.92s.27-.82.27-1.31Z"/>
      </g>
      <g>
        <path class="cls-1" d="M104.54,194.58c0-.28.02-.54.07-.78.05-.24.13-.47.25-.68.12-.22.28-.42.49-.61.21-.19.48-.38.8-.55.23-.13.45-.25.66-.36.21-.1.39-.21.55-.31.16-.1.28-.22.38-.34.09-.12.13-.26.13-.42s-.04-.29-.12-.42-.2-.23-.36-.31c-.16-.08-.35-.12-.58-.12-.18,0-.35.02-.5.07-.15.05-.29.11-.41.19-.12.08-.24.16-.33.25-.1.09-.19.18-.26.26l-.69-.79c.07-.08.17-.17.32-.27.14-.1.32-.21.52-.31.2-.1.44-.19.7-.26.26-.07.54-.1.85-.1.43,0,.8.07,1.11.22.31.14.54.34.7.6.16.25.25.54.25.86,0,.25-.05.47-.15.66-.1.19-.22.36-.38.5-.15.15-.32.27-.49.38s-.33.2-.47.28c-.26.13-.48.25-.67.36s-.35.21-.49.32-.24.21-.33.33c-.09.11-.16.25-.22.4h3.3v.99h-4.63Z"/>
        <path class="cls-1" d="M120.26,191.69c0,.58-.11,1.09-.33,1.54-.22.45-.53.8-.91,1.06s-.82.38-1.32.38-.92-.13-1.31-.38-.69-.61-.92-1.06c-.22-.45-.33-.96-.33-1.54s.11-1.09.33-1.54c.22-.45.53-.8.92-1.06s.82-.39,1.31-.39.93.13,1.32.39.69.61.91,1.06c.22.45.33.96.33,1.54ZM119.14,191.69c0-.39-.06-.73-.18-1.03s-.29-.53-.51-.69c-.22-.17-.47-.25-.75-.25s-.54.08-.76.25c-.22.17-.39.4-.51.69s-.18.64-.18,1.03.06.73.18,1.03.29.52.51.69c.22.17.47.25.76.25s.53-.08.75-.25c.22-.17.39-.4.51-.69s.18-.64.18-1.03Z"/>
        <path class="cls-1" d="M126.17,194.58c0-.28.02-.54.07-.78.05-.24.13-.47.24-.68.12-.22.28-.42.49-.61.21-.19.48-.38.8-.55.23-.13.45-.25.66-.36.21-.1.39-.21.55-.31s.29-.22.38-.34c.09-.12.13-.26.13-.42s-.04-.29-.12-.42-.2-.23-.36-.31c-.16-.08-.35-.12-.58-.12-.18,0-.34.02-.49.07-.15.05-.29.11-.41.19s-.24.16-.33.25c-.1.09-.19.18-.26.26l-.69-.79c.07-.08.17-.17.31-.27.14-.1.32-.21.52-.31.2-.1.43-.19.69-.26.26-.07.54-.1.85-.1.43,0,.8.07,1.11.22.31.14.54.34.71.6.16.25.24.54.24.86,0,.25-.05.47-.14.66-.1.19-.22.36-.38.5-.15.15-.31.27-.48.38s-.33.2-.48.28c-.26.13-.49.25-.67.36s-.35.21-.49.32-.24.21-.33.33c-.09.11-.16.25-.22.4h3.3v.99h-4.63Z"/>
        <path class="cls-1" d="M141.89,191.69c0,.58-.11,1.09-.34,1.54-.22.45-.53.8-.91,1.06-.38.26-.82.38-1.31.38s-.92-.13-1.31-.38-.69-.61-.91-1.06c-.22-.45-.34-.96-.34-1.54s.11-1.09.34-1.54c.22-.45.53-.8.91-1.06s.82-.39,1.31-.39.93.13,1.31.39c.38.26.69.61.91,1.06.22.45.34.96.34,1.54ZM140.77,191.69c0-.39-.06-.73-.18-1.03-.12-.3-.29-.53-.51-.69-.22-.17-.47-.25-.75-.25s-.54.08-.76.25c-.22.17-.39.4-.52.69-.12.3-.18.64-.18,1.03s.06.73.18,1.03c.12.29.29.52.52.69.22.17.47.25.76.25s.53-.08.75-.25c.22-.17.39-.4.51-.69.12-.29.18-.64.18-1.03Z"/>
      </g>
    </g>
  </g>
</svg>