<svg width="252" height="140" viewBox="0 0 252 140" fill="none" xmlns="http://www.w3.org/2000/svg">
<g opacity="0.8">
<path d="M198.253 82.529C198.76 82.5303 199.257 82.381 199.68 82.1C200.102 81.819 200.432 81.419 200.627 80.9505C200.822 80.482 200.874 79.9661 200.776 79.4682C200.678 78.9703 200.434 78.5127 200.075 78.1534C199.717 77.7941 199.26 77.5492 198.762 77.4497C198.265 77.3502 197.749 77.4006 197.28 77.5945C196.811 77.7884 196.41 78.1171 196.128 78.539C195.845 78.9608 195.695 79.4569 195.695 79.9644C195.695 80.6446 195.965 81.2969 196.446 81.7778C196.927 82.2588 197.579 82.529 198.26 82.529" fill="#79C8C9"/>
<path d="M188.154 90.791L188.174 85.8423H171.931L171.898 90.791H182.878L171.577 104.355V105.096V109.471H188.522V104.355H176.767L188.154 90.791Z" fill="#79C8C9"/>
<path d="M38.6979 77.3999H29.7547V82.2485H33.8623V104.621H29.7079V109.47H42.5784V104.621H38.7112L38.6979 77.3999Z" fill="#79C8C9"/>
<path d="M106.664 101.016C105.795 103.688 103.852 105.531 101.594 105.531C98.6288 105.531 96.0507 102.339 96.0507 97.8775C96.0507 93.4162 98.4952 90.284 101.474 90.284C103.952 90.284 106.036 92.6549 106.664 95.8672V101.016ZM106.664 89.6629C106.14 88.4741 105.269 87.4714 104.165 86.7861C103.062 86.1008 101.777 85.765 100.479 85.8228C96.0106 85.8228 91.3954 91.2858 91.3954 97.3899C91.3954 105.177 95.2091 109.451 99.9445 109.451C101.301 109.413 102.626 109.036 103.8 108.355C104.973 107.674 105.958 106.71 106.664 105.551V109.451H111.506L111.546 77.3945H106.664V89.6629Z" fill="#79C8C9"/>
<path d="M87.5685 85.8423H82.8197V101.049C82.8197 101.049 82.8197 101.049 82.8197 101.103C82.8197 101.156 82.8197 101.136 82.8197 101.149V101.29C82.7433 102.436 82.2341 103.51 81.3951 104.295C80.5562 105.08 79.4502 105.517 78.3014 105.517C77.1525 105.517 76.0465 105.08 75.2076 104.295C74.3686 103.51 73.8594 102.436 73.783 101.29V85.8423H68.9608V102.412C68.9575 102.469 68.9575 102.527 68.9608 102.585C68.9608 106.392 72.2535 109.471 76.3077 109.471C77.6235 109.486 78.9196 109.151 80.0637 108.501C81.2078 107.851 82.1589 106.909 82.8197 105.771V109.471H87.6419V85.8423H87.5685Z" fill="#79C8C9"/>
<path d="M237.672 98.3904C236.88 98.3904 236.105 98.1554 235.446 97.7151C234.787 97.2748 234.273 96.649 233.97 95.9168C233.667 95.1846 233.587 94.3789 233.742 93.6016C233.897 92.8243 234.278 92.1103 234.839 91.5499C235.399 90.9895 236.113 90.6078 236.891 90.4532C237.668 90.2986 238.474 90.378 239.206 90.6813C239.938 90.9845 240.564 91.4981 241.004 92.1571C241.445 92.8161 241.68 93.5908 241.68 94.3833C241.68 95.4461 241.258 96.4653 240.506 97.2168C239.755 97.9682 238.735 98.3904 237.672 98.3904ZM251.211 86.5895H244.365V89.0739C243.65 88.1689 242.76 87.4178 241.748 86.8658C240.736 86.3137 239.622 85.9721 238.475 85.8615C237.327 85.7508 236.169 85.8735 235.069 86.2221C233.97 86.5707 232.953 87.138 232.079 87.8899C231.205 88.6418 230.492 89.5627 229.983 90.5973C229.474 91.6319 229.18 92.7587 229.118 93.91C229.056 95.0612 229.227 96.2132 229.622 97.2965C230.016 98.3798 230.626 99.3721 231.414 100.214C231.327 100.307 231.234 100.381 231.147 100.481C229.88 101.757 229.161 103.478 229.143 105.276C229.144 105.82 229.259 106.357 229.479 106.854C229.7 107.351 230.023 107.796 230.426 108.161C231.895 109.497 233.885 109.497 234.74 109.497H244.164C244.421 109.532 244.668 109.62 244.89 109.754C245.111 109.889 245.303 110.067 245.453 110.278C246.155 111.467 245.453 113.344 243.67 114.285C242.762 114.759 240.812 115.307 237.906 115.08C235.194 114.873 233.678 113.951 232.884 113.217L232.643 112.99L230.065 116.77L230.265 116.93C232.352 118.547 234.888 119.48 237.525 119.601C237.973 119.601 238.434 119.655 238.861 119.655C241.089 119.652 243.293 119.198 245.34 118.319C247.146 117.617 248.637 116.286 249.541 114.572C249.92 113.698 250.131 112.76 250.162 111.808C250.162 108.949 248.312 104.902 244.685 104.902H233.799C233.881 104.438 234.061 103.996 234.326 103.606C234.623 103.194 235.024 102.866 235.488 102.658C236.752 102.99 238.075 103.026 239.355 102.766C240.635 102.505 241.838 101.953 242.87 101.153C243.903 100.354 244.738 99.3271 245.311 98.1532C245.884 96.9794 246.18 95.6895 246.175 94.3833C246.173 93.1645 245.911 91.9601 245.407 90.8504H251.157L251.211 86.5895Z" fill="#79C8C9"/>
<path d="M61.5069 97.9103C61.5069 102.118 58.7485 105.53 55.3422 105.53C51.9359 105.53 49.1708 102.118 49.1708 97.9103C49.1708 97.9103 49.1708 97.8636 49.1708 97.8369C49.1708 97.8101 49.1708 97.7968 49.1708 97.7767C49.1734 97.3829 49.2069 96.9899 49.2709 96.6013C49.7719 93.015 52.2965 90.2835 55.3422 90.2835C58.3878 90.2835 60.9125 93.015 61.4468 96.6013C61.5086 96.9901 61.5398 97.3831 61.5403 97.7767V97.9103M55.3422 85.8423C49.271 85.8423 44.3285 91.145 44.3285 97.6565C44.3285 104.168 49.271 109.471 55.3422 109.471C61.4134 109.471 66.3492 104.175 66.3492 97.6565C66.3492 91.1383 61.4468 85.8423 55.3422 85.8423Z" fill="#79C8C9"/>
<path d="M139.391 85.8432C137.962 85.8049 136.559 86.2297 135.391 87.0542C134.224 87.8787 133.354 89.0587 132.912 90.418C132.439 89.0834 131.558 87.9314 130.394 87.1249C129.231 86.3183 127.843 85.898 126.427 85.9233C125.22 85.901 124.028 86.1981 122.972 86.7845C121.917 87.3709 121.035 88.2258 120.416 89.2626V85.8566H115.573V109.472H120.416V93.4433C120.506 92.3978 120.987 91.4246 121.763 90.7177C122.538 90.0107 123.552 89.6219 124.601 89.6286C125.651 89.6354 126.659 90.0372 127.426 90.754C128.193 91.4709 128.661 92.4501 128.738 93.4967V109.472H133.58V93.2029C133.59 92.6884 133.701 92.1809 133.908 91.7099C134.115 91.2388 134.414 90.8136 134.787 90.4588C135.16 90.1041 135.599 89.8269 136.08 89.6433C136.561 89.4598 137.073 89.3735 137.587 89.3895C138.099 89.3617 138.612 89.4401 139.092 89.6197C139.572 89.7992 140.01 90.0761 140.378 90.4329C140.746 90.7898 141.037 91.2188 141.231 91.6932C141.426 92.1676 141.52 92.677 141.508 93.1895V109.472H146.357V91.9941C146.357 88.6081 143.111 85.8432 139.404 85.8432" fill="#79C8C9"/>
<path d="M200.704 85.8423H191.768V90.6909H195.869V104.622H191.721V109.471H204.591V104.622H200.724L200.704 85.8423Z" fill="#79C8C9"/>
<path d="M218.517 85.8429C217.199 85.8257 215.9 86.1593 214.753 86.8095C213.607 87.4596 212.654 88.403 211.992 89.5428V86.1568H207.176V109.471H207.236H211.992V94.2645C211.992 94.2645 211.992 94.2311 211.992 94.2111C211.992 94.191 211.992 94.2111 211.992 94.1643V94.0241C211.997 92.8196 212.481 91.6666 213.336 90.8187C214.192 89.9708 215.349 89.4974 216.553 89.5027C217.758 89.508 218.911 89.9916 219.759 90.847C220.607 91.7025 221.08 92.8597 221.075 94.0641V109.471H225.897V92.7284C225.897 88.9284 222.605 85.8429 218.55 85.8429" fill="#79C8C9"/>
<path d="M156.73 105.455C156.099 105.308 155.53 104.967 155.101 104.481C154.673 103.995 154.406 103.388 154.338 102.744C154.338 102.604 154.338 102.47 154.338 102.337C154.338 100.433 156.569 98.8904 159.321 98.8904C160.741 98.8569 162.126 99.3304 163.228 100.226C163.121 103.565 159.662 105.97 156.73 105.462M159.475 85.8474C155 85.8474 151.279 88.5188 150.451 92.0316L154.278 93.7013C154.946 91.6042 156.522 89.9012 159.014 89.9012C161.505 89.9012 163.395 91.6576 163.435 93.8215L163.389 96.8201C161.998 96.1825 160.49 95.8413 158.96 95.8183H158.74C153.777 95.8183 149.737 98.9572 149.476 102.878C149.476 106.45 152.602 109.349 156.469 109.483H156.549C159.675 109.483 162.253 108.007 163.389 105.91V109.483H168.237V93.394C168.191 89.2066 164.517 85.814 159.475 85.814" fill="#79C8C9"/>
<path d="M27.7847 100.414L23.4032 98.1965L23.3031 98.3969C23.0079 98.9652 22.6661 99.508 22.2812 100.02C20.4712 102.798 17.7929 104.394 14.9343 104.394C10.7532 104.394 7.00628 100.855 5.82409 95.7789C5.56461 94.7527 5.43226 93.6985 5.43003 92.64V91.5181C5.43439 89.3403 6.06502 87.2098 7.24672 85.3805C9.03002 82.2416 11.922 80.365 14.961 80.365C17.9999 80.365 20.7517 82.1281 22.575 85.2202L22.6285 85.2937L22.6685 85.3471L22.7888 85.5341L26.903 82.8627V82.8227L27.3839 82.442L27.257 82.2416C25.9482 80.1641 24.1409 78.4466 21.9992 77.2452C19.8576 76.0439 17.4497 75.3968 14.9944 75.3628C6.72576 75.3628 0 82.5956 0 91.4847V92.5866V93.0675C0.247123 102.137 6.97288 109.47 15.0946 109.47C20.5313 109.47 25.5672 106.191 28.2388 100.908L28.3457 100.701L27.7847 100.414Z" fill="#79C8C9"/>
<path d="M81.5373 139.517C80.5673 139.253 79.6592 138.799 78.8657 138.181L79.8542 136.138C80.5676 136.678 81.3638 137.1 82.2119 137.386C83.0757 137.66 83.9774 137.796 84.8835 137.787C85.7479 137.837 86.6088 137.642 87.3681 137.226C87.6414 137.062 87.8664 136.829 88.0201 136.549C88.1738 136.27 88.2507 135.955 88.243 135.637C88.2476 135.36 88.1735 135.087 88.0293 134.851C87.885 134.614 87.6766 134.424 87.4282 134.301C86.5817 133.889 85.6828 133.595 84.7566 133.426C83.2482 133.179 81.8067 132.625 80.5221 131.797C80.079 131.457 79.7257 131.014 79.4929 130.506C79.2601 129.999 79.1548 129.442 79.1863 128.885C79.175 128.018 79.4315 127.169 79.921 126.454C80.4544 125.716 81.1797 125.139 82.0182 124.784C83.0103 124.363 84.0799 124.156 85.1573 124.176C86.2075 124.173 87.2515 124.338 88.2497 124.664C89.1343 124.935 89.9515 125.39 90.6475 126L89.7124 128.043C88.4339 126.977 86.822 126.394 85.1573 126.394C84.3215 126.348 83.4924 126.565 82.7863 127.015C82.5127 127.199 82.2902 127.449 82.1395 127.742C81.9889 128.035 81.915 128.362 81.9247 128.691C81.9134 128.971 81.979 129.248 82.1144 129.493C82.2498 129.738 82.4499 129.941 82.6928 130.08C83.5307 130.517 84.4323 130.819 85.3644 130.975C86.4413 131.207 87.4944 131.538 88.5102 131.964C89.2326 132.247 89.873 132.706 90.3736 133.299C90.8269 133.903 91.0623 134.642 91.0416 135.396C91.0619 136.261 90.8018 137.109 90.3002 137.814C89.7607 138.55 89.0178 139.111 88.1629 139.43C87.1172 139.831 86.0032 140.024 84.8835 139.998C83.7502 140.007 82.6221 139.845 81.5373 139.517Z" fill="#28155A"/>
<path d="M95.4563 139.276C94.6158 138.822 93.9333 138.123 93.4994 137.272C93.0507 136.325 92.818 135.291 92.818 134.243C92.818 133.196 93.0507 132.161 93.4994 131.215C93.9333 130.364 94.6158 129.665 95.4563 129.211C96.3633 128.743 97.3747 128.513 98.3951 128.543C99.4047 128.514 100.405 128.744 101.3 129.211C102.136 129.667 102.813 130.366 103.244 131.215C103.697 132.16 103.932 133.195 103.932 134.243C103.932 135.292 103.697 136.327 103.244 137.272C102.813 138.121 102.136 138.819 101.3 139.276C100.406 139.746 99.405 139.976 98.3951 139.943C97.3744 139.976 96.3625 139.746 95.4563 139.276ZM100.486 136.945C101.024 136.163 101.281 135.221 101.214 134.273C101.277 133.326 101.018 132.384 100.479 131.602C100.213 131.311 99.8895 131.079 99.529 130.921C99.1685 130.762 98.7789 130.68 98.385 130.68C97.9912 130.68 97.6016 130.762 97.2411 130.921C96.8806 131.079 96.5571 131.311 96.2912 131.602C95.8142 132.411 95.5627 133.334 95.5627 134.273C95.5627 135.213 95.8142 136.135 96.2912 136.945C96.5625 137.23 96.8889 137.456 97.2506 137.611C97.6122 137.766 98.0016 137.846 98.3951 137.846C98.7885 137.846 99.1779 137.766 99.5395 137.611C99.9012 137.456 100.228 137.23 100.499 136.945H100.486Z" fill="#28155A"/>
<path d="M109.636 127.904V128.839H112.094V130.883H109.636V139.805H106.924V130.883H104.86V128.839H106.944V127.777C106.871 126.685 107.225 125.607 107.933 124.772C108.304 124.407 108.748 124.124 109.236 123.942C109.724 123.76 110.245 123.683 110.765 123.717C111.348 123.701 111.929 123.789 112.481 123.977V126.121C112.132 126.027 111.774 125.976 111.413 125.967C110.204 125.974 109.636 126.622 109.636 127.904Z" fill="#28155A"/>
<path d="M117.043 130.88V135.782C117.043 137.071 117.644 137.719 118.846 137.719C119.214 137.713 119.578 137.652 119.928 137.539V139.689C119.369 139.876 118.781 139.964 118.192 139.95C117.668 139.984 117.143 139.909 116.65 139.73C116.156 139.551 115.706 139.271 115.326 138.908C114.613 138.081 114.255 137.005 114.331 135.916V130.88H112.207V128.837H114.318V126.165L117.03 125.257V128.837H119.935V130.88H117.043Z" fill="#28155A"/>
<path d="M136.82 128.839H139.491L135.19 139.805H132.826L130.114 132.619L127.442 139.805H125.051L120.75 128.839H123.562L126.38 136.566L129.226 128.839H131.176L134.021 136.633L136.82 128.839Z" fill="#28155A"/>
<path d="M151.467 128.837V139.803H148.795V138.04C148.468 138.647 147.972 139.146 147.366 139.475C146.713 139.825 145.982 140.002 145.242 139.99C144.347 140.015 143.464 139.783 142.697 139.322C141.941 138.838 141.346 138.141 140.987 137.318C140.564 136.384 140.356 135.366 140.379 134.34C140.358 133.305 140.568 132.278 140.994 131.334C141.367 130.506 141.966 129.799 142.724 129.297C143.471 128.808 144.348 128.554 145.242 128.569C145.981 128.555 146.713 128.73 147.366 129.077C147.972 129.402 148.471 129.896 148.802 130.5V128.837H151.467ZM148.06 136.911C148.598 136.146 148.86 135.22 148.802 134.286C148.863 133.338 148.602 132.396 148.06 131.615C147.798 131.316 147.475 131.076 147.113 130.911C146.751 130.747 146.358 130.662 145.96 130.662C145.562 130.662 145.169 130.747 144.807 130.911C144.444 131.076 144.121 131.316 143.859 131.615C143.319 132.397 143.056 133.337 143.111 134.286C143.05 135.215 143.315 136.136 143.859 136.891C144.118 137.196 144.444 137.437 144.811 137.596C145.178 137.755 145.577 137.827 145.976 137.806C146.37 137.831 146.763 137.763 147.126 137.608C147.488 137.452 147.808 137.213 148.06 136.911Z" fill="#28155A"/>
<path d="M161.411 128.75V131.228C160.956 131.041 160.468 130.943 159.975 130.941C159.585 130.916 159.194 130.975 158.829 131.114C158.464 131.254 158.133 131.47 157.858 131.749C157.355 132.339 157.095 133.098 157.13 133.873V139.803H154.459V131.943C154.468 130.905 154.41 129.868 154.285 128.837H156.83L157.043 130.767C157.295 130.092 157.765 129.521 158.379 129.144C158.978 128.765 159.674 128.568 160.383 128.577C160.733 128.577 161.081 128.635 161.411 128.75Z" fill="#28155A"/>
<path d="M172.318 134.461H164.751C164.73 135.402 165.045 136.321 165.639 137.052C165.952 137.348 166.324 137.575 166.73 137.719C167.136 137.863 167.568 137.92 167.997 137.887C169.21 137.882 170.386 137.471 171.337 136.718L172.118 138.588C171.542 139.033 170.894 139.374 170.201 139.596C169.454 139.848 168.672 139.976 167.884 139.977C167.109 140.022 166.334 139.911 165.604 139.649C164.874 139.388 164.205 138.981 163.636 138.454C163.107 137.902 162.698 137.247 162.432 136.531C162.167 135.814 162.051 135.05 162.093 134.287C162.069 133.257 162.299 132.236 162.761 131.315C163.187 130.481 163.843 129.786 164.651 129.312C165.483 128.818 166.436 128.566 167.403 128.584C168.068 128.547 168.733 128.656 169.352 128.905C169.97 129.153 170.527 129.533 170.983 130.019C171.912 131.142 172.389 132.571 172.318 134.027V134.461ZM165.733 131.121C165.242 131.626 164.931 132.279 164.851 132.978H169.954C169.924 132.29 169.66 131.633 169.206 131.115C168.983 130.892 168.717 130.718 168.424 130.603C168.131 130.488 167.817 130.435 167.503 130.447C167.174 130.439 166.847 130.497 166.54 130.618C166.234 130.738 165.955 130.918 165.72 131.148L165.733 131.121Z" fill="#28155A"/>
<path d="M142.501 11.4301C140.543 11.4317 138.6 11.7683 136.756 12.4254C136.693 14.0148 136.458 15.5927 136.055 17.1314C135.725 15.8202 135.268 14.5444 134.689 13.3223C132.724 9.03421 129.477 5.45945 125.395 3.08981C121.312 0.720167 116.595 -0.327943 111.892 0.0896555C107.189 0.507254 102.731 2.37004 99.1309 5.42179C95.5311 8.47353 92.9665 12.5643 91.7899 17.1314C91.3044 18.997 91.0604 20.9172 91.064 22.8449C91.0673 28.8986 93.4766 34.7035 97.7626 38.9842C102.049 43.2649 107.861 45.6711 113.922 45.6744H133.213L136.793 39.9732L142.501 45.6744C144.791 45.7357 147.07 45.3381 149.204 44.5052C151.337 43.6723 153.282 42.4209 154.924 40.8249C156.565 39.2289 157.87 37.3206 158.761 35.2128C159.651 33.1049 160.11 30.8402 160.11 28.5523C160.11 26.2643 159.651 23.9996 158.761 21.8917C157.87 19.7839 156.565 17.8756 154.924 16.2796C153.282 14.6836 151.337 13.4322 149.204 12.5993C147.07 11.7664 144.791 11.3689 142.501 11.4301ZM134.357 39.9732H128.206V22.8449L134.357 28.9885V39.9732Z" fill="#28155A"/>
<path d="M128.218 22.8445L113.922 45.674H122.497V62.8023L136.78 39.9728H128.218V22.8445Z" fill="#6DC2BA"/>
</g>
</svg>
