<svg width="143" height="160" viewBox="0 0 143 160" fill="none" xmlns="http://www.w3.org/2000/svg">
<g opacity="0.8">
<path d="M136.399 159.633L131.857 153.381V159.633H127.288V139.862H131.857V150.789L136.372 144.725H142.009L135.811 152.205L142.063 159.633H136.399Z" fill="#014837"/>
<path d="M123.977 139.862V159.633H119.409V139.862H123.977Z" fill="#014837"/>
<path d="M100.368 152.152C100.368 150.62 100.653 149.276 101.223 148.118C101.81 146.96 102.603 146.07 103.6 145.446C104.598 144.823 105.711 144.511 106.94 144.511C107.991 144.511 108.908 144.725 109.692 145.152C110.493 145.58 111.108 146.141 111.535 146.836V144.725H116.104V159.633H111.535V157.522C111.09 158.217 110.467 158.778 109.665 159.205C108.881 159.633 107.964 159.847 106.913 159.847C105.702 159.847 104.598 159.535 103.6 158.912C102.603 158.27 101.81 157.371 101.223 156.213C100.653 155.038 100.368 153.684 100.368 152.152ZM111.535 152.179C111.535 151.039 111.215 150.14 110.573 149.481C109.95 148.822 109.184 148.492 108.276 148.492C107.367 148.492 106.593 148.822 105.951 149.481C105.328 150.122 105.016 151.012 105.016 152.152C105.016 153.292 105.328 154.201 105.951 154.877C106.593 155.536 107.367 155.866 108.276 155.866C109.184 155.866 109.95 155.536 110.573 154.877C111.215 154.218 111.535 153.319 111.535 152.179Z" fill="#014837"/>
<path d="M98.7311 155.759V159.633H96.4068C94.7503 159.633 93.459 159.233 92.5328 158.431C91.6066 157.612 91.1436 156.285 91.1436 154.45V148.519H89.3268V144.725H91.1436V141.092H95.7121V144.725H98.7044V148.519H95.7121V154.504C95.7121 154.949 95.819 155.27 96.0327 155.465C96.2465 155.661 96.6027 155.759 97.1014 155.759H98.7311Z" fill="#014837"/>
<path d="M81.5835 144.564C83.2934 144.564 84.6649 145.134 85.6979 146.274C86.731 147.396 87.2475 148.946 87.2475 150.923V159.633H82.7057V151.538C82.7057 150.54 82.4474 149.765 81.9309 149.213C81.4143 148.661 80.7197 148.385 79.8469 148.385C78.9742 148.385 78.2796 148.661 77.763 149.213C77.2465 149.765 76.9883 150.54 76.9883 151.538V159.633H72.4197V139.862H76.9883V146.729C77.4513 146.07 78.0836 145.544 78.8851 145.152C79.6867 144.76 80.5861 144.564 81.5835 144.564Z" fill="#014837"/>
<path d="M55.3351 152.179C55.3351 150.629 55.6468 149.276 56.2702 148.118C56.9114 146.96 57.7931 146.07 58.9152 145.446C60.0551 144.823 61.3553 144.511 62.8158 144.511C64.686 144.511 66.2445 145.001 67.4913 145.981C68.7559 146.96 69.5841 148.341 69.9759 150.122H65.1135C64.7038 148.982 63.9112 148.412 62.7357 148.412C61.8985 148.412 61.2306 148.741 60.7319 149.4C60.2332 150.042 59.9838 150.968 59.9838 152.179C59.9838 153.39 60.2332 154.325 60.7319 154.984C61.2306 155.625 61.8985 155.946 62.7357 155.946C63.9112 155.946 64.7038 155.376 65.1135 154.236H69.9759C69.5841 155.982 68.7559 157.353 67.4913 158.351C66.2267 159.348 64.6682 159.847 62.8158 159.847C61.3553 159.847 60.0551 159.535 58.9152 158.912C57.7931 158.288 56.9114 157.398 56.2702 156.24C55.6468 155.082 55.3351 153.729 55.3351 152.179Z" fill="#014837"/>
<path d="M37.2021 152.152C37.2021 150.62 37.4871 149.276 38.057 148.118C38.6448 146.96 39.4374 146.07 40.4348 145.446C41.4322 144.823 42.5454 144.511 43.7744 144.511C44.8253 144.511 45.7426 144.725 46.5263 145.152C47.3278 145.58 47.9422 146.141 48.3697 146.836V144.725H52.9383V159.633H48.3697V157.522C47.9244 158.217 47.301 158.778 46.4995 159.205C45.7158 159.633 44.7986 159.847 43.7477 159.847C42.5365 159.847 41.4322 159.535 40.4348 158.912C39.4374 158.27 38.6448 157.371 38.057 156.213C37.4871 155.038 37.2021 153.684 37.2021 152.152ZM48.3697 152.179C48.3697 151.039 48.0491 150.14 47.4079 149.481C46.7845 148.822 46.0186 148.492 45.1103 148.492C44.2019 148.492 43.4271 148.822 42.7859 149.481C42.1625 150.122 41.8508 151.012 41.8508 152.152C41.8508 153.292 42.1625 154.201 42.7859 154.877C43.4271 155.536 44.2019 155.866 45.1103 155.866C46.0186 155.866 46.7845 155.536 47.4079 154.877C48.0491 154.218 48.3697 153.319 48.3697 152.179Z" fill="#014837"/>
<path d="M0 150.229C0 148.376 0.400752 146.729 1.20226 145.286C2.00376 143.826 3.11696 142.695 4.54186 141.893C5.98457 141.074 7.61429 140.664 9.43104 140.664C11.6574 140.664 13.5632 141.252 15.1484 142.427C16.7336 143.603 17.7934 145.206 18.3277 147.236H13.305C12.9309 146.453 12.3966 145.856 11.702 145.446C11.0251 145.037 10.2504 144.832 9.3776 144.832C7.97052 144.832 6.8306 145.322 5.95785 146.301C5.0851 147.281 4.64873 148.59 4.64873 150.229C4.64873 151.867 5.0851 153.176 5.95785 154.156C6.8306 155.136 7.97052 155.625 9.3776 155.625C10.2504 155.625 11.0251 155.421 11.702 155.011C12.3966 154.601 12.9309 154.005 13.305 153.221H18.3277C17.7934 155.251 16.7336 156.854 15.1484 158.03C13.5632 159.188 11.6574 159.767 9.43104 159.767C7.61429 159.767 5.98457 159.366 4.54186 158.564C3.11696 157.745 2.00376 156.614 1.20226 155.171C0.400752 153.729 0 152.081 0 150.229Z" fill="#014837"/>
<path d="M29.109 143.937H25.9037V160H29.109V143.937Z" fill="#014837"/>
<path d="M34.3084 147.426L32.0419 145.155L20.707 156.513L22.9736 158.784L34.3084 147.426Z" fill="#014837"/>
<path d="M35.5198 153.573V150.361H19.4899V153.573H35.5198Z" fill="#014837"/>
<path d="M32.0412 158.783L34.3077 156.512L22.9729 145.154L20.7063 147.425L32.0412 158.783Z" fill="#014837"/>
<g clip-path="url(#clip0_2087_690)">
<path d="M88.698 17.8172V44.4982C88.698 54.3368 80.7359 62.3154 70.9177 62.3154C61.0994 62.3154 53.1416 54.3368 53.1416 44.4982V17.8172C53.1416 7.97863 61.0994 0 70.9177 0C75.8246 0 80.2708 1.99252 83.4881 5.22075C86.7053 8.4447 88.698 12.8958 88.698 17.8172Z" fill="white"/>
<path opacity="0.12" d="M44.2707 31.1576L53.9694 21.4387V44.8359H88.4207V40.3206L97.5647 31.1576V72.419H44.2707V31.1576Z" fill="#014837"/>
<path d="M88.698 17.8172V44.4982C88.698 54.3368 80.7359 62.3154 70.9177 62.3154C61.0994 62.3154 53.1416 54.3368 53.1416 44.4982V17.8172C53.1416 7.97863 61.0994 0 70.9177 0C75.8246 0 80.2708 1.99252 83.4881 5.22075C86.7053 8.4447 88.698 12.8958 88.698 17.8172Z" fill="white"/>
<path d="M83.4881 5.22075C86.7053 8.4447 88.698 12.8958 88.698 17.8172V44.4982C88.698 54.3368 80.7359 62.3154 70.9177 62.3154C61.0994 62.3154 53.1416 54.3368 53.1416 44.4982V17.8172C53.1416 7.97863 61.0994 0 70.9177 0C75.8246 0 80.2708 1.99252 83.4881 5.22075Z" fill="#014837"/>
<path d="M79.0099 43.1797C79.5102 43.1797 79.9164 43.6115 79.8651 44.1075C79.399 48.5929 75.6106 52.0862 71.0056 52.0862C66.4005 52.0862 62.6079 48.5929 62.1418 44.1075C62.0905 43.6073 62.4967 43.1797 62.997 43.1797H79.0099Z" fill="#BBE96D"/>
<path d="M97.5647 31.1577V44.5238C97.5647 59.2711 85.6344 71.2262 70.9177 71.2262C56.201 71.2262 44.2706 59.2711 44.2706 44.5238V31.1577H26.5031V44.5238C26.5031 69.1054 46.387 89.0349 70.9177 89.0349C95.4483 89.0349 115.337 69.1054 115.337 44.5238V31.1577H97.5647Z" fill="#014837"/>
<path d="M102.327 75.9979L67.8625 110.534C65.712 112.689 62.0339 111.162 62.0339 108.113V80.1283L102.327 75.9937V75.9979Z" fill="#014837"/>
<path d="M73.1407 8.68286H68.6988V30.9427H73.1407V8.68286Z" fill="#BBE96D"/>
<path d="M80.3458 13.5178L77.2049 10.3704L61.4974 26.1104L64.6383 29.2578L80.3458 13.5178Z" fill="#BBE96D"/>
<path d="M82.0244 22.0361V17.585H59.8108V22.0361H82.0244Z" fill="#BBE96D"/>
<path d="M77.2038 29.2563L80.3447 26.1089L64.6372 10.3688L61.4964 13.5162L77.2038 29.2563Z" fill="#BBE96D"/>
</g>
</g>
<defs>
<clipPath id="clip0_2087_690">
<rect width="88.8334" height="111.543" fill="white" transform="translate(26.5031)"/>
</clipPath>
</defs>
</svg>
