<svg width="265" height="70" viewBox="0 0 265 70" fill="none" xmlns="http://www.w3.org/2000/svg">
<path d="M33.3921 69.6007C20.1199 68.1873 7.7641 58.5418 2.6152 46.6908C-4.14127 31.2596 2.52201 13.8637 18.8152 4.39684C26.5269 -0.0841765 43.7365 -2.97315 56.1777 5.06472C70.5915 14.384 71.2206 25.8156 69.2092 33.7992C65.4659 48.6479 48.6291 53.4473 38.8827 52.9813C35.2241 52.8657 31.6271 52.0083 28.3098 50.4611C24.9925 48.9139 22.0239 46.7091 19.584 43.9805L25.6882 38.5054C27.4014 40.4257 29.4913 41.973 31.828 43.0512C34.1647 44.1293 36.6982 44.7153 39.271 44.7726C45.3052 45.0599 58.6163 42.2564 61.2645 31.7722C63.2604 23.8664 60.1384 17.3817 51.7278 11.9532C42.7036 6.12091 28.9732 7.977 22.9312 11.4873C10.3657 18.7951 5.09258 31.9198 10.0939 43.4058C14.1789 52.725 23.9952 60.0096 34.5182 61.4774C36.1764 61.691 37.8477 61.787 39.5195 61.7647C41.2017 61.7874 42.8833 61.6913 44.5519 61.4774C52.9626 60.3047 63.5477 55.6529 71.1119 48.6789L70.5682 56.0412C66.9104 60.9493 60.7519 64.5838 54.3838 67.1466C47.5729 69.8958 40.7233 70.3773 33.3921 69.6007Z" fill="url(#paint0_linear_2111_8704)"/>
<path d="M53.5139 26.0797H41.1658V31.547H53.5139V26.0797Z" fill="black"/>
<path d="M80.9437 67.566C77.4334 67.566 74.679 66.5823 72.6806 64.6149C70.6821 62.6474 69.6829 59.9604 69.6829 56.5537C69.6829 55.6476 71.2361 42.0959 74.3425 15.8983C75.145 9.16775 77.2832 4.91713 80.7573 3.14647C82.5327 2.24442 84.5057 1.80122 86.4964 1.8573C94.0295 1.8573 97.796 5.33909 97.796 12.3027C97.796 12.8773 97.796 13.4753 97.7106 14.0966C97.1359 21.7436 92.3416 29.533 83.3278 37.4647C83.0379 40.2657 82.7247 42.9786 82.3881 45.6035C81.7047 51.4747 81.363 54.7261 81.363 55.3577C81.363 58.3243 82.6574 59.8077 85.246 59.8077C88.047 59.8077 90.659 58.1975 93.082 54.9772C95.7127 51.2506 97.5958 47.0493 98.627 42.6058C99.4156 42.9535 100.14 43.4313 100.77 44.0193C101.498 44.5874 102.132 45.2662 102.65 46.0307C101.647 50.9718 99.5422 55.6229 96.4913 59.6368C94.8772 61.8759 92.8041 63.7451 90.4105 65.1196C87.5367 66.7824 84.2632 67.6283 80.9437 67.566ZM84.2365 28.8754C89.4863 23.113 92.1112 17.9486 92.1112 13.3821C92.1112 10.6485 91.0861 9.27389 89.0048 9.27389C87.6898 9.39297 86.8174 10.2498 86.3877 11.8445C85.8079 14.402 85.4083 16.9971 85.1917 19.6105C84.8189 23.2062 84.5782 25.4273 84.4617 26.2893L84.2365 28.8754Z" fill="url(#paint1_linear_2111_8704)"/>
<path d="M133.714 67.4262C128.465 67.4262 124.983 65.6141 123.269 61.99C121.934 63.7483 120.201 65.1654 118.213 66.1252C116.224 67.0849 114.037 67.5601 111.83 67.5116C109.658 67.5636 107.498 67.1731 105.482 66.3641C103.466 65.555 101.636 64.3442 100.103 62.8054C96.9343 59.6679 95.35 55.526 95.35 50.3797C95.35 42.8984 97.5478 36.9444 101.943 32.5178C106.339 28.0911 111.902 25.8648 118.633 25.839H119.145C121.84 25.8097 124.515 26.3056 127.02 27.299C128.711 26.2869 130.657 25.7803 132.627 25.839C134.822 25.839 136.407 26.1263 137.38 26.701C136.862 30.9257 136.321 35.0676 135.757 39.1267C135.193 43.1858 134.791 46.0825 134.553 47.8169C134.133 50.5954 133.874 53.3959 133.777 56.2043C133.777 58.4875 134.69 59.6291 136.518 59.6291C137.942 59.6291 139.454 58.6739 141.053 56.7634C142.653 54.853 144.051 51.8423 145.247 47.7315C146.797 49.063 147.977 50.7724 148.672 52.694C147.02 58.1251 144.794 61.9356 141.993 64.1256C139.192 66.3157 136.432 67.4159 133.714 67.4262ZM119.93 32.4789C118.255 32.4192 116.59 32.766 115.078 33.4895C113.566 34.213 112.252 35.2919 111.247 36.6338C109.104 39.3985 107.833 43.5197 107.434 48.9974C107.38 49.4822 107.352 49.9695 107.349 50.4574C107.224 52.8495 107.935 55.2105 109.36 57.1362C109.969 57.9259 110.755 58.5615 111.655 58.9918C112.555 59.4221 113.543 59.6351 114.54 59.6136C118.133 59.6136 120.843 57.0741 122.671 51.9951L124.729 33.5041C123.211 32.8576 121.58 32.5172 119.93 32.5022V32.4789Z" fill="url(#paint2_linear_2111_8704)"/>
<path d="M161.874 7.42566C161.874 7.76736 161.097 13.9 159.544 25.8235H172.125V32.4168H158.69L158.426 34.5603C165.104 40.1518 168.444 46.2586 168.444 52.8804C168.444 58.0578 167.116 61.7933 164.46 64.0868C161.811 66.3697 158.411 67.5899 154.915 67.5117C151.213 67.5117 148.503 66.528 146.784 64.5606C145.07 62.5811 144.156 60.0334 144.221 57.4158C144.225 56.7264 144.282 56.0384 144.392 55.3578L147.064 32.6188L146.722 32.4479H139.787C139.733 31.881 139.709 30.9491 139.709 29.6677C139.717 28.3581 139.981 27.0628 140.486 25.8545H147.848L150.582 2.55634C152.13 2.05075 153.754 1.81947 155.381 1.87292C159.709 1.86257 161.874 3.71348 161.874 7.42566ZM162.728 52.8105C162.728 48.8705 161.017 44.9875 157.595 41.1614C156.559 49.6679 156.041 54.5864 156.041 55.917C156.041 58.5056 156.867 59.8 158.519 59.8C159.129 59.7916 159.726 59.6264 160.254 59.3204C160.782 59.0144 161.222 58.5778 161.532 58.0526C162.334 56.9395 162.733 55.1921 162.728 52.8105Z" fill="url(#paint3_linear_2111_8704)"/>
<path d="M195.819 43.5455C197.559 41.4332 198.428 39.3933 198.428 37.4259C198.428 35.4533 197.9 34.1175 196.875 33.403C195.846 32.6934 194.623 32.3191 193.373 32.3313C190.696 32.3313 188.343 33.8302 186.313 36.8279C184.235 40.0028 183.176 43.7364 183.277 47.5295C183.277 51.6714 184.261 54.752 186.228 56.7711C187.169 57.7578 188.306 58.5369 189.566 59.0585C190.826 59.5801 192.18 59.8326 193.544 59.7999C198.035 59.7296 202.375 58.1637 205.876 55.3499C209.92 52.2512 213.198 48.2659 215.459 43.7008C216.806 45.0147 217.959 46.5129 218.884 48.1508C217.005 52.4273 213.665 56.6236 208.866 60.7396C206.308 62.8262 203.421 64.4743 200.323 65.6167C197.087 66.8633 193.649 67.5005 190.181 67.4961C184.486 67.4961 179.976 65.7565 176.652 62.2773C173.111 58.5133 171.343 53.6906 171.348 47.8091C171.337 44.9232 171.921 42.066 173.062 39.4153C174.203 36.7645 175.877 34.377 177.98 32.4012C180.04 30.2802 182.511 28.6016 185.242 27.468C187.972 26.3343 190.906 25.7694 193.862 25.8078C198.25 25.8078 201.822 26.7708 204.556 28.6813C205.852 29.5186 206.915 30.6692 207.648 32.0267C208.381 33.3842 208.76 34.9046 208.75 36.4473C208.794 38.5217 208.339 40.5764 207.424 42.4386C206.509 44.3008 205.161 45.9162 203.492 47.149C199.982 49.893 195.172 51.806 189.063 52.8881L187.936 47.8246C191.439 47.0869 194.072 45.6579 195.819 43.5455Z" fill="url(#paint4_linear_2111_8704)"/>
<path d="M247.261 2.84364C248.852 2.14979 250.575 1.81312 252.309 1.85735C253.828 1.76293 255.346 2.05692 256.72 2.71162C256.146 7.16934 255.232 14.1588 253.979 23.68C251.37 43.6181 250.065 54.5915 250.065 56.6003C250.065 58.6091 250.922 59.6213 252.635 59.6369C254.121 59.6369 255.675 58.7101 257.295 56.8566C258.916 55.0031 260.37 51.964 261.66 47.7392C263.159 49.1315 264.304 50.8623 264.999 52.7872C262.928 59.5851 259.705 63.9858 255.33 65.9895C253.58 66.8961 251.647 67.3927 249.677 67.4417C244.598 67.4417 241.201 65.6297 239.488 62.0055C238.165 63.7667 236.443 65.1891 234.464 66.1557C232.485 67.1223 230.305 67.6057 228.102 67.566C225.943 67.611 223.797 67.217 221.795 66.4081C219.793 65.5991 217.975 64.3919 216.453 62.8598C213.285 59.7223 211.701 55.5804 211.701 50.4341C211.701 42.9528 213.898 36.9988 218.294 32.5721C222.69 28.1455 228.253 25.9192 234.983 25.8933H235.496C237.735 25.8791 239.962 26.2279 242.089 26.9262L244.567 5.28219C245.127 4.15971 246.089 3.28915 247.261 2.84364ZM236.171 32.5022C234.496 32.4425 232.832 32.7893 231.32 33.5128C229.808 34.2363 228.493 35.3152 227.489 36.6571C225.346 39.4218 224.074 43.543 223.676 49.0206C223.622 49.5055 223.594 49.9928 223.59 50.4807C223.466 52.8728 224.177 55.2338 225.602 57.1595C226.211 57.9492 226.997 58.5848 227.897 59.0151C228.796 59.4454 229.785 59.6584 230.782 59.6369C234.375 59.6369 237.085 57.0974 238.913 52.0183L241.142 33.6205C239.569 32.9427 237.883 32.5635 236.171 32.5022Z" fill="url(#paint5_linear_2111_8704)"/>
<path d="M30.8915 36.4396L27.2803 32.7896L31.2953 28.8133L27.2803 24.8293L30.8915 21.1793L38.6032 28.8133L30.8915 36.4396Z" fill="black"/>
<defs>
<linearGradient id="paint0_linear_2111_8704" x1="-0.001958" y1="34.9641" x2="71.1429" y2="34.9641" gradientUnits="userSpaceOnUse">
<stop stop-color="#F9BC49"/>
<stop offset="1" stop-color="#FED304"/>
</linearGradient>
<linearGradient id="paint1_linear_2111_8704" x1="69.6829" y1="34.731" x2="102.642" y2="34.731" gradientUnits="userSpaceOnUse">
<stop stop-color="#F9BC49"/>
<stop offset="1" stop-color="#FED304"/>
</linearGradient>
<linearGradient id="paint2_linear_2111_8704" x1="95.3656" y1="46.6675" x2="148.695" y2="46.6675" gradientUnits="userSpaceOnUse">
<stop stop-color="#F9BC49"/>
<stop offset="1" stop-color="#FED304"/>
</linearGradient>
<linearGradient id="paint3_linear_2111_8704" x1="139.709" y1="34.6845" x2="172.148" y2="34.6845" gradientUnits="userSpaceOnUse">
<stop stop-color="#F9BC49"/>
<stop offset="1" stop-color="#FED304"/>
</linearGradient>
<linearGradient id="paint4_linear_2111_8704" x1="171.379" y1="46.6675" x2="218.884" y2="46.6675" gradientUnits="userSpaceOnUse">
<stop stop-color="#F9BC49"/>
<stop offset="1" stop-color="#FED304"/>
</linearGradient>
<linearGradient id="paint5_linear_2111_8704" x1="211.607" y1="34.6845" x2="264.937" y2="34.6845" gradientUnits="userSpaceOnUse">
<stop stop-color="#F9BC49"/>
<stop offset="1" stop-color="#FED304"/>
</linearGradient>
</defs>
</svg>
