<?xml version="1.0" encoding="UTF-8"?>
<svg width="363px" height="100px" viewBox="0 0 363 100" version="1.1" xmlns="http://www.w3.org/2000/svg" xmlns:xlink="http://www.w3.org/1999/xlink">
    <title>Asset 4</title>
    <defs>
        <linearGradient x1="-9.24798591%" y1="67.8855794%" x2="98.1934211%" y2="34.696961%" id="linearGradient-1">
            <stop stop-color="#FA9BFB" offset="0%"></stop>
            <stop stop-color="#9254FB" offset="53%"></stop>
            <stop stop-color="#87D3FB" offset="100%"></stop>
        </linearGradient>
        <linearGradient x1="85.4693077%" y1="18.6574732%" x2="-54.0823629%" y2="105.831324%" id="linearGradient-2">
            <stop stop-color="#A09BFB" stop-opacity="0.2" offset="1%"></stop>
            <stop stop-color="#87D3FB" stop-opacity="0" offset="98%"></stop>
        </linearGradient>
        <linearGradient x1="-34.1780549%" y1="53.9519965%" x2="84.9674937%" y2="49.3201594%" id="linearGradient-3">
            <stop stop-color="#A09BFB" stop-opacity="0.3" offset="0%"></stop>
            <stop stop-color="#87D3FB" stop-opacity="0" offset="99%"></stop>
        </linearGradient>
        <linearGradient x1="-47.2255018%" y1="50%" x2="902.125148%" y2="50%" id="linearGradient-4">
            <stop stop-color="#A09BFB" stop-opacity="0.2" offset="1%"></stop>
            <stop stop-color="#87D3FB" stop-opacity="0" offset="98%"></stop>
        </linearGradient>
        <linearGradient x1="27.2647318%" y1="50%" x2="1700.38112%" y2="50%" id="linearGradient-5">
            <stop stop-color="#A09BFB" stop-opacity="0.2" offset="1%"></stop>
            <stop stop-color="#87D3FB" stop-opacity="0" offset="98%"></stop>
        </linearGradient>
        <linearGradient x1="-624.608501%" y1="50%" x2="5759.0604%" y2="50%" id="linearGradient-6">
            <stop stop-color="#A09BFB" stop-opacity="0.2" offset="1%"></stop>
            <stop stop-color="#87D3FB" stop-opacity="0" offset="98%"></stop>
        </linearGradient>
        <linearGradient x1="-203.485647%" y1="50%" x2="1468.16052%" y2="50%" id="linearGradient-7">
            <stop stop-color="#A09BFB" stop-opacity="0.2" offset="1%"></stop>
            <stop stop-color="#87D3FB" stop-opacity="0" offset="98%"></stop>
        </linearGradient>
        <linearGradient x1="-352.369904%" y1="49.979448%" x2="1539.24428%" y2="49.979448%" id="linearGradient-8">
            <stop stop-color="#A09BFB" stop-opacity="0.2" offset="1%"></stop>
            <stop stop-color="#87D3FB" stop-opacity="0" offset="98%"></stop>
        </linearGradient>
        <linearGradient x1="-679.592443%" y1="49.9948053%" x2="1614.88194%" y2="49.9948053%" id="linearGradient-9">
            <stop stop-color="#A09BFB" stop-opacity="0.2" offset="1%"></stop>
            <stop stop-color="#87D3FB" stop-opacity="0" offset="98%"></stop>
        </linearGradient>
        <linearGradient x1="-658.912579%" y1="50.038207%" x2="1232.07331%" y2="50.038207%" id="linearGradient-10">
            <stop stop-color="#A09BFB" stop-opacity="0.2" offset="1%"></stop>
            <stop stop-color="#87D3FB" stop-opacity="0" offset="98%"></stop>
        </linearGradient>
        <linearGradient x1="-116.103554%" y1="49.9727961%" x2="2388.06494%" y2="49.9727961%" id="linearGradient-11">
            <stop stop-color="#A09BFB" stop-opacity="0.2" offset="1%"></stop>
            <stop stop-color="#87D3FB" stop-opacity="0" offset="98%"></stop>
        </linearGradient>
        <linearGradient x1="-712.896825%" y1="49.98515%" x2="2117.95635%" y2="49.98515%" id="linearGradient-12">
            <stop stop-color="#A09BFB" stop-opacity="0.2" offset="1%"></stop>
            <stop stop-color="#87D3FB" stop-opacity="0" offset="98%"></stop>
        </linearGradient>
        <linearGradient x1="-658.661809%" y1="50.0382369%" x2="1231.69924%" y2="50.0382369%" id="linearGradient-13">
            <stop stop-color="#A09BFB" stop-opacity="0.2" offset="1%"></stop>
            <stop stop-color="#87D3FB" stop-opacity="0" offset="98%"></stop>
        </linearGradient>
    </defs>
    <g id="Page-1" stroke="none" stroke-width="1" fill="none" fill-rule="evenodd">
        <g id="Asset-4">
            <path d="M141.333333,4.75 L141.765152,3.56818182 L143.060606,0 L141.060606,1.67424242 L139.181818,3.24242424 L134.431818,1.51515152 L137.674242,5.39393939 L137.606061,5.57575758 L137.55303,5.73484848 L137.55303,5.73484848 C129.30877,14.446438 120.167115,22.2625538 110.280303,29.0530303 C108.12908,25.0666184 105.46221,21.3808866 102.348485,18.0909091 C99.385861,14.9900632 96.0258814,12.2949469 92.3560606,10.0757576 C83.3387552,4.59999469 72.7690377,2.24643543 62.280303,3.37878788 L61.6363636,3.4469697 L61.5151515,3.4469697 C37.4062079,6.34027865 19.1693451,26.644137 18.8712121,50.9242424 C17.4469697,52.1161616 16.0909091,53.2954545 14.8030303,54.4621212 C2.63636364,65.5378788 -1.56818182,74.0530303 1.96212121,80.5075758 C4.54545455,85.2727273 10.4090909,87.1212121 19.6969697,85.9924242 C23.4535517,85.5013655 27.1701332,84.7418461 30.8181818,83.719697 L31.1515152,83.6287879 C41.5724815,95.3290877 57.0211969,101.247932 72.5922917,99.5059323 C88.1633866,97.763933 101.922219,88.5775265 109.5,74.8636364 L108.651515,74.4469697 L99.5984848,70.7651515 C93.8925288,80.3646401 84.221173,86.9373594 73.1953099,88.708929 C62.1694469,90.4804986 50.9259026,87.2682602 42.5,79.9393939 C47.1742424,78.2045455 52.3484848,76.0909091 57.5984848,73.7272727 C63.7424242,70.969697 70.0681818,67.8712121 76.0075758,64.6363636 C84.141737,60.2188241 91.9859349,55.2871009 99.4924242,49.8712121 C101.204545,48.6287879 102.893939,47.3661616 104.560606,46.0833333 C107.717172,43.6136364 110.782828,41.040404 113.757576,38.3636364 C121.272574,31.6138097 128.045775,24.0812585 133.962121,15.8939394 C135.719697,13.4469697 137.386364,10.9621212 138.977273,8.41666667 C139.280303,7.93181818 139.575758,7.4469697 139.871212,6.95454545 L144.590909,8.66666667 L141.333333,4.75 Z M10.3333333,75.5227273 C8.59090909,73.3712121 13.2727273,66.6666667 19.6969697,60.5 C20.6161432,65.3422789 22.2717101,70.0151675 24.6060606,74.3560606 C18.1818182,76.719697 11.75,77.2727273 10.3333333,75.5227273 Z M96.8712121,39.0151515 C88.5632582,44.9774957 79.8924759,50.417292 70.9090909,55.3030303 C63.6742424,59.2575758 56.4318182,62.8030303 49.5,65.7878788 C44.5606061,67.9166667 39.7954545,69.7651515 35.3030303,71.2727273 C32.41006,66.6013235 30.5789985,61.3512461 29.9393939,55.8939394 C29.9319304,55.8234293 29.9319304,55.7523283 29.9393939,55.6818182 C29.3983048,51.0094936 29.7479119,46.2769445 30.969697,41.7348485 C34.8867221,27.0847477 47.1870107,16.1985597 62.2045455,14.0909091 L62.7651515,14.0151515 L62.8787879,14.0151515 C63.1212121,14.0151515 63.3712121,13.9545455 63.6363636,13.9393939 L63.8106061,13.9393939 C79.6624601,12.5183533 94.7054863,21.1818763 101.431818,35.6060606 C100,36.7272727 98.4848485,37.8787879 96.8712121,39.0151515 Z" id="Shape" fill="url(#linearGradient-1)" fill-rule="nonzero"></path>
            <path d="M101.431818,35.6060606 C99.969697,36.7348485 98.4469697,37.8787879 96.8863636,39.0227273 C92.4849173,29.8427107 83.3368367,23.8784425 73.1613439,23.5547418 C62.9858512,23.2310412 53.4771828,28.6018046 48.5011608,37.4835071 C43.5251388,46.3652097 43.9102791,57.2790331 49.5,65.7878788 C44.5606061,67.9166667 39.7954545,69.7651515 35.3030303,71.2727273 C32.41006,66.6013235 30.5789985,61.3512461 29.9393939,55.8939394 C29.9319304,55.8234293 29.9319304,55.7523283 29.9393939,55.6818182 C29.3983048,51.0094936 29.7479119,46.2769445 30.969697,41.7348485 C34.8867221,27.0847477 47.1870107,16.1985597 62.2045455,14.0909091 L62.7651515,14.0151515 L62.8787879,14.0151515 C63.1212121,14.0151515 63.3712121,13.9545455 63.6363636,13.9393939 L63.8106061,13.9393939 C79.6624601,12.5183533 94.7054863,21.1818763 101.431818,35.6060606 Z" id="Path" fill="url(#linearGradient-2)"></path>
            <path d="M99.5984848,70.7651515 C93.8925288,80.3646401 84.221173,86.9373594 73.1953099,88.708929 C62.1694469,90.4804986 50.9259026,87.2682602 42.5,79.9393939 C47.1742424,78.2045455 52.3484848,76.0909091 57.5984848,73.7272727 C69.1672862,81.0860312 84.4008977,78.7119619 93.1818182,68.1818182 L99.5984848,70.7651515 Z" id="Path" fill="url(#linearGradient-3)"></path>
            <rect id="Rectangle" fill="url(#linearGradient-4)" x="212.886364" y="35.6363636" width="6.41666667" height="3.74242424"></rect>
            <polygon id="Path" fill="url(#linearGradient-5)" points="207.780303 38.9166667 200.098485 38.9166667 195.234848 46.8181818 190.416667 38.9166667 182.734848 38.9166667 190.727273 51.0606061 182.318182 63.7348485 190 63.7348485 195.234848 55.2348485 200.454545 63.7348485 208.159091 63.7348485 199.69697 51.0606061"></polygon>
            <rect id="Rectangle" fill="url(#linearGradient-6)" x="231.666667" y="38.9166667" width="6.77272727" height="24.8181818"></rect>
            <polygon id="Path" fill="url(#linearGradient-7)" points="255 57.0681818 249.075758 38.9166667 241.992424 38.9166667 251.454545 63.7348485 258.401515 63.7348485 267.856061 38.9166667 260.772727 38.9166667"></polygon>
            <path d="M281.643939,38.4469697 C277.972222,38.4469697 275.098485,39.5833333 273.022727,41.8560606 C270.94697,44.1287879 269.906566,47.3484848 269.901515,51.5151515 C269.901515,55.5555556 271.025253,58.6792929 273.272727,60.8863636 C275.520202,63.0934343 278.643939,64.1969697 282.643939,64.1969697 C284.298359,64.2231527 285.951062,64.078446 287.575758,63.7651515 C288.88874,63.4829581 290.161251,63.0375791 291.363636,62.4393939 L291.363636,57.1893939 C290.029066,57.8390995 288.629987,58.3469321 287.189394,58.7045455 C285.797863,59.0228077 284.374419,59.1804034 282.94697,59.1742424 C281.293288,59.2694195 279.672711,58.6836026 278.462121,57.5530303 C277.327523,56.3147945 276.714252,54.6866419 276.75,53.0075758 L292.757576,53.0075758 L292.757576,49.7272727 C292.757576,46.1919192 291.780303,43.4318182 289.825758,41.4469697 C287.871212,39.4621212 285.143939,38.4621212 281.643939,38.4469697 Z M276.916667,48.4848485 C276.935066,47.0712295 277.428742,45.7049483 278.318182,44.6060606 C279.183367,43.6730151 280.418828,43.1732778 281.689394,43.2424242 C282.972059,43.1804978 284.218522,43.6779775 285.106061,44.6060606 C286.013019,45.6893732 286.480686,47.0734518 286.416667,48.4848485 L276.916667,48.4848485 Z" id="Shape" fill="url(#linearGradient-8)" fill-rule="nonzero"></path>
            <path d="M333.598485,50.8409091 C332.270981,49.9365677 330.838836,49.1963297 329.333333,48.6363636 C327.869454,48.104438 326.454961,47.4453554 325.106061,46.6666667 C324.533922,46.3425339 324.167887,45.747728 324.136364,45.0909091 C324.136364,44.0050505 325.146465,43.4646465 327.166667,43.469697 C328.287229,43.4680051 329.401344,43.6392109 330.469697,43.9772727 C331.55303,44.3181818 332.742424,44.7348485 333.962121,45.2878788 L336,40.4015152 C333.26884,39.1196438 330.289746,38.4524508 327.272727,38.4469697 C324.136364,38.4469697 321.714646,39.0505051 320.007576,40.2575758 C318.319004,41.4032338 317.342075,43.3399022 317.424242,45.3787879 C317.390379,46.4938263 317.599777,47.6028616 318.037879,48.6287879 C318.485575,49.5588528 319.157179,50.363216 319.992424,50.969697 C321.299672,51.875829 322.711367,52.6211022 324.19697,53.1893939 C325.530303,53.75 326.590909,54.2424242 327.393939,54.7045455 C328.005572,55.002598 328.573896,55.3823303 329.083333,55.8333333 C329.414127,56.1844765 329.58898,56.6543957 329.568182,57.1363636 C329.568182,58.5505051 328.340909,59.260101 325.886364,59.2651515 C324.47817,59.2374946 323.078744,59.0364862 321.719697,58.6666667 C320.25829,58.297196 318.835244,57.7898712 317.469697,57.1515152 L317.469697,62.7424242 C318.619078,63.2296217 319.818051,63.5903296 321.045455,63.8181818 C322.568074,64.0880056 324.112918,64.2123034 325.659091,64.1893939 C329.194444,64.1893939 331.840909,63.5227273 333.598485,62.1893939 C335.393257,60.8103282 336.386672,58.6304934 336.25,56.3712121 C336.279589,55.2779251 336.059354,54.1922974 335.606061,53.1969697 C335.139938,52.2590431 334.450545,51.4499824 333.598485,50.8409091 L333.598485,50.8409091 Z" id="Path" fill="url(#linearGradient-9)"></path>
            <path d="M362.878788,49.7272727 C362.878788,46.1919192 361.901515,43.4318182 359.94697,41.4469697 C357.992424,39.4621212 355.262626,38.4520202 351.757576,38.4166667 C348.085859,38.4166667 345.209596,39.5530303 343.128788,41.8257576 C341.04798,44.0984848 340.010101,47.3282828 340.015133,51.5151515 C340.015133,55.5555556 341.138889,58.6792929 343.386364,60.8863636 C345.633838,63.0934343 348.757576,64.1969697 352.757576,64.1969697 C354.409489,64.2232256 356.059687,64.0785159 357.681818,63.7651515 C358.995477,63.485368 360.268286,63.0398849 361.469697,62.4393939 L361.469697,57.1893939 C360.135676,57.8403973 358.736458,58.3482806 357.295455,58.7045455 C355.90656,59.0232226 354.485576,59.1808273 353.060606,59.1742424 C351.406925,59.2694195 349.786347,58.6836026 348.575758,57.5530303 C347.441159,56.3147945 346.827889,54.6866419 346.863636,53.0075758 L362.878788,53.0075758 L362.878788,49.7272727 Z M347.030303,48.4848485 C347.049473,47.0726625 347.540113,45.7074019 348.424242,44.6060606 C349.293601,43.6744683 350.530578,43.1752396 351.80303,43.2424242 C353.085695,43.1804978 354.332158,43.6779775 355.219697,44.6060606 C356.123404,45.6911951 356.590632,47.0739752 356.530303,48.4848485 L347.030303,48.4848485 Z" id="Shape" fill="url(#linearGradient-10)" fill-rule="nonzero"></path>
            <path d="M220.25,58.0984848 C219.667641,57.5502966 219.366514,56.7668088 219.431818,55.969697 L219.431818,44 L226.386364,44 L226.386364,38.9166667 L209.409091,38.9166667 L209.409091,43.1136364 L209.409091,43.1136364 L209.409091,43.9924242 L212.643939,43.9924242 L212.643939,55.9621212 C212.643939,58.6944444 213.262626,60.7449495 214.5,62.1136364 C215.737374,63.4823232 217.722222,64.1717172 220.454545,64.1818182 C222.583726,64.2422997 224.702101,63.8578442 226.674242,63.0530303 L226.674242,58.0075758 C225.297421,58.4680973 223.860288,58.7233607 222.409091,58.7651515 C221.63232,58.8124642 220.864874,58.5754985 220.25,58.0984848 L220.25,58.0984848 Z" id="Path" fill="url(#linearGradient-11)"></path>
            <polygon id="Path" fill="url(#linearGradient-12)" points="304.863636 38.8409091 298.25 38.8560606 298.25 38.9318182 298.242424 38.9318182 298.30303 63.7575758 305.075758 63.7424242 305.045455 47.3636364 313.492424 44.2272727 313.515152 38.25 304.878788 41.2348485"></polygon>
            <polygon id="Path" fill="#444444" points="205.106061 38.9166667 197.424242 38.9166667 192.560606 46.8181818 187.742424 38.9166667 180.060606 38.9166667 188.05303 51.0606061 179.643939 63.7348485 187.325758 63.7348485 192.560606 55.2348485 197.780303 63.7348485 205.484848 63.7348485 197.022727 51.0606061"></polygon>
            <rect id="Rectangle" fill="#444444" x="228.992424" y="38.9166667" width="6.77272727" height="24.8181818"></rect>
            <polygon id="Path" fill="#444444" points="252.325758 57.0681818 246.401515 38.9166667 239.318182 38.9166667 248.772727 63.7348485 255.727273 63.7348485 265.181818 38.9166667 258.098485 38.9166667"></polygon>
            <path d="M278.969697,38.4469697 C275.292929,38.4469697 272.416667,39.5833333 270.340909,41.8560606 C268.265152,44.1287879 267.227273,47.3484848 267.227273,51.5151515 C267.227273,55.5555556 268.35101,58.6792929 270.598485,60.8863636 C272.84596,63.0934343 275.969697,64.1969697 279.969697,64.1969697 C281.621622,64.2235516 283.271853,64.078839 284.893939,63.7651515 C286.207095,63.4835731 287.479681,63.0381677 288.681818,62.4393939 L288.681818,57.1893939 C287.347248,57.8390995 285.948169,58.3469321 284.507576,58.7045455 C283.116045,59.0228077 281.6926,59.1804034 280.265152,59.1742424 C278.61147,59.2694195 276.990893,58.6836026 275.780303,57.5530303 C274.645705,56.3147945 274.032434,54.6866419 274.068182,53.0075758 L290.075758,53.0075758 L290.075758,49.7272727 C290.075758,46.1919192 289.098485,43.4318182 287.143939,41.4469697 C285.189394,39.4621212 282.464646,38.4621212 278.969697,38.4469697 Z M274.242424,48.4848485 C274.261594,47.0726625 274.752235,45.7074019 275.636364,44.6060606 C276.505722,43.6744683 277.7427,43.1752396 279.015152,43.2424242 C280.297816,43.1804978 281.544279,43.6779775 282.431818,44.6060606 C283.338776,45.6893732 283.806443,47.0734518 283.742424,48.4848485 L274.242424,48.4848485 Z" id="Shape" fill="#444444" fill-rule="nonzero"></path>
            <path d="M330.924242,50.8409091 C329.596738,49.9365677 328.164594,49.1963297 326.659091,48.6363636 C325.195211,48.104438 323.780719,47.4453554 322.431818,46.6666667 C321.859679,46.3425339 321.493645,45.747728 321.462121,45.0909091 C321.462121,44.0050505 322.472222,43.4646465 324.492424,43.469697 C325.612987,43.4680051 326.727102,43.6392109 327.795455,43.9772727 C328.876263,44.3207071 330.037879,44.7575758 331.280303,45.2878788 L333.325758,40.4015152 C330.594598,39.1196438 327.615503,38.4524508 324.598485,38.4469697 C321.462121,38.4469697 319.040404,39.0505051 317.333333,40.2575758 C315.650518,41.4067675 314.679632,43.3428129 314.765152,45.3787879 C314.731288,46.4938263 314.940687,47.6028616 315.378788,48.6287879 C315.824043,49.5604226 316.496108,50.3653379 317.333333,50.969697 C318.640581,51.875829 320.052276,52.6211022 321.537879,53.1893939 C322.871212,53.75 323.931818,54.2424242 324.734848,54.7045455 C325.346481,55.002598 325.914805,55.3823303 326.424242,55.8333333 C326.755036,56.1844765 326.929889,56.6543957 326.909091,57.1363636 C326.909091,58.5505051 325.681818,59.260101 323.227273,59.2651515 C321.819041,59.2379567 320.419559,59.0369402 319.060606,58.6666667 C317.599199,58.297196 316.176153,57.7898712 314.810606,57.1515152 L314.810606,62.7424242 C315.959987,63.2296217 317.15896,63.5903296 318.386364,63.8181818 C319.908983,64.0880056 321.453827,64.2123034 323,64.1893939 C326.535354,64.1893939 329.181818,63.5227273 330.939394,62.1893939 C332.734167,60.8103282 333.727581,58.6304934 333.590909,56.3712121 C333.620498,55.2779251 333.400263,54.1922974 332.94697,53.1969697 C332.476572,52.2573367 331.781843,51.4481203 330.924242,50.8409091 Z" id="Path" fill="#444444"></path>
            <path d="M360.204545,49.7272727 C360.204545,46.1919192 359.227273,43.4318182 357.272727,41.4469697 C355.318182,39.4621212 352.588384,38.4520202 349.083333,38.4166667 C345.406566,38.4166667 342.530303,39.5530303 340.454545,41.8257576 C338.378788,44.0984848 337.338384,47.3282828 337.333333,51.5151515 C337.333333,55.5555556 338.459596,58.6792929 340.712121,60.8863636 C342.964646,63.0934343 346.088384,64.1969697 350.083333,64.1969697 C351.735247,64.2232256 353.385445,64.0785159 355.007576,63.7651515 C356.321235,63.485368 357.594043,63.0398849 358.795455,62.4393939 L358.795455,57.1893939 C357.461434,57.8403973 356.062216,58.3482806 354.621212,58.7045455 C353.232318,59.0232226 351.811333,59.1808273 350.386364,59.1742424 C348.732682,59.2694195 347.112105,58.6836026 345.901515,57.5530303 C344.766917,56.3147945 344.153646,54.6866419 344.189394,53.0075758 L360.19697,53.0075758 L360.204545,49.7272727 Z M344.356061,48.4848485 C344.37523,47.0726625 344.865871,45.7074019 345.75,44.6060606 C346.619358,43.6744683 347.856336,43.1752396 349.128788,43.2424242 C350.411453,43.1804978 351.657916,43.6779775 352.545455,44.6060606 C353.449162,45.6911951 353.91639,47.0739752 353.856061,48.4848485 L344.356061,48.4848485 Z" id="Shape" fill="#444444" fill-rule="nonzero"></path>
            <path d="M217.575758,58.0984848 C216.993399,57.5502966 216.692272,56.7668088 216.757576,55.969697 L216.757576,44 L223.712121,44 L223.712121,38.9166667 L206.734848,38.9166667 L206.734848,43.1136364 L206.734848,43.1136364 L206.734848,43.9924242 L209.969697,43.9924242 L209.969697,55.9621212 C209.969697,58.6944444 210.588384,60.7449495 211.825758,62.1136364 C213.063131,63.4823232 215.035354,64.1691919 217.742424,64.1742424 C219.871605,64.2347239 221.98998,63.8502685 223.962121,63.0454545 L223.962121,58.0075758 C222.585299,58.4680973 221.148166,58.7233607 219.69697,58.7651515 C218.932994,58.8032176 218.1806,58.5667511 217.575758,58.0984848 Z" id="Path" fill="#444444"></path>
            <polygon id="Path" fill="#444444" points="302.189394 38.8409091 295.575758 38.8560606 295.575758 38.9318182 295.568182 38.9318182 295.628788 63.7575758 302.401515 63.7424242 302.371212 47.3636364 310.818182 44.2272727 310.840909 38.25 302.204545 41.2348485"></polygon>
            <rect id="Rectangle" fill="#444444" x="210.212121" y="35.6363636" width="6.41666667" height="3.74242424"></rect>
            <path d="M181.007576,49.7272727 C181.007576,46.1919192 180.030303,43.4318182 178.075758,41.4469697 C176.121212,39.4621212 173.391414,38.4520202 169.886364,38.4166667 C166.214646,38.4166667 163.338384,39.5530303 161.257576,41.8257576 C159.176768,44.0984848 158.136364,47.3282828 158.136364,51.5151515 C158.136364,55.5555556 159.262626,58.6792929 161.515152,60.8863636 C163.767677,63.0934343 166.888889,64.1969697 170.878788,64.1969697 C172.533208,64.2231527 174.18591,64.078446 175.810606,63.7651515 C177.124265,63.485368 178.397074,63.0398849 179.598485,62.4393939 L179.598485,57.1893939 C178.264464,57.8403973 176.865246,58.3482806 175.424242,58.7045455 C174.032779,59.0232038 172.609288,59.1808045 171.181818,59.1742424 C169.529794,59.2736242 167.909946,58.6870805 166.704545,57.5530303 C165.569947,56.3147945 164.956676,54.6866419 164.992424,53.0075758 L181,53.0075758 L181.007576,49.7272727 Z M165.151515,48.4848485 C165.176864,47.072502 165.669748,45.7084116 166.55303,44.6060606 C167.418828,43.6739047 168.653854,43.1743436 169.924242,43.2424242 C171.208997,43.1812943 172.457467,43.6784727 173.348485,44.6060606 C174.252192,45.6911951 174.71942,47.0739752 174.659091,48.4848485 L165.151515,48.4848485 Z" id="Shape" fill="url(#linearGradient-13)" fill-rule="nonzero"></path>
            <path d="M178.333333,49.7272727 C178.333333,46.1919192 177.356061,43.4318182 175.401515,41.4469697 C173.44697,39.4621212 170.717172,38.4520202 167.212121,38.4166667 C163.535354,38.4166667 160.659091,39.5530303 158.583333,41.8257576 C156.507576,44.0984848 155.467172,47.3282828 155.462121,51.5151515 C155.462121,55.5555556 156.588384,58.6792929 158.840909,60.8863636 C161.093434,63.0934343 164.207071,64.1919192 168.181818,64.1818182 C169.836238,64.2080012 171.48894,64.0632945 173.113636,63.75 C174.427295,63.4702164 175.700104,63.0247334 176.901515,62.4242424 L176.901515,57.1893939 C175.567495,57.8403973 174.168276,58.3482806 172.727273,58.7045455 C171.335809,59.0232038 169.912319,59.1808045 168.484848,59.1742424 C166.831167,59.2694195 165.21059,58.6836026 164,57.5530303 C162.870856,56.3119701 162.260769,54.6850723 162.295455,53.0075758 L178.333333,53.0075758 L178.333333,49.7272727 Z M162.477273,48.4848485 C162.499175,47.0718686 162.99245,45.7066956 163.878788,44.6060606 C164.744586,43.6739047 165.979612,43.1743436 167.25,43.2424242 C168.534755,43.1812943 169.783225,43.6784727 170.674242,44.6060606 C171.572503,45.6933947 172.034255,47.075948 171.969697,48.4848485 L162.477273,48.4848485 Z" id="Shape" fill="#444444" fill-rule="nonzero"></path>
        </g>
    </g>
</svg>