<?xml version="1.0" encoding="UTF-8"?>
<svg id="Layer_2" data-name="Layer 2" xmlns="http://www.w3.org/2000/svg" xmlns:xlink="http://www.w3.org/1999/xlink" viewBox="0 0 564.26 488.37">
  <defs>
    <style>
      .cls-1 {
        filter: url(#drop-shadow-1);
      }

      .cls-2 {
        fill: #ff6700;
      }

      .cls-3 {
        fill: #010121;
      }

      .cls-4 {
        fill: #c60000;
      }

      .cls-5 {
        fill: #ff4800;
      }

      .cls-6 {
        fill: #e50000;
      }

      .cls-7 {
        fill: #ff9700;
      }

      .cls-8 {
        fill: #ffda00;
      }

      .cls-9 {
        fill: red;
      }

      .cls-10 {
        fill: #a50000;
      }
    </style>
    <filter id="drop-shadow-1" x="206.9" y="454.53" width="150.61" height="33.84" filterUnits="userSpaceOnUse">
      <feOffset dx="-6" dy="6"/>
      <feGaussianBlur result="blur" stdDeviation="3"/>
      <feFlood flood-color="#000" flood-opacity=".2"/>
      <feComposite in2="blur" operator="in"/>
      <feComposite in="SourceGraphic"/>
    </filter>
  </defs>
  <g id="Layer_11" data-name="Layer 11">
    <g>
      <g>
        <path class="cls-5" d="M0,199.61l92.41,97.39c34.19,36.04,83.65,48.93,128.74,38.16,15.36-3.67,30.2-10.1,43.77-19.27,6.05-4.09,11.84-8.73,17.3-13.9l-92.41-97.39c-34.2-36.05-83.65-48.93-128.74-38.16-22.19,5.29-43.32,16.34-61.06,33.17Z"/>
        <path class="cls-2" d="M0,199.61l92.41,97.39c34.19,36.04,83.65,48.93,128.74,38.16,15.36-3.67,30.2-10.1,43.77-19.27,6.05-4.09,11.84-8.73,17.3-13.9C256.35,326.53,43.03,158.78,0,199.61Z"/>
        <path class="cls-5" d="M564.26,199.61l-92.41,97.39c-34.19,36.04-83.65,48.93-128.74,38.16-15.36-3.67-30.2-10.1-43.77-19.27-6.05-4.09-11.84-8.73-17.3-13.9l92.41-97.39c34.2-36.05,83.65-48.93,128.74-38.16,22.19,5.29,43.32,16.34,61.06,33.17Z"/>
        <path class="cls-2" d="M564.26,199.61l-92.41,97.39c-34.19,36.04-83.65,48.93-128.74,38.16-15.36-3.67-30.2-10.1-43.77-19.27-6.05-4.09-11.84-8.73-17.3-13.9,25.87,24.54,239.19-143.21,282.22-102.38Z"/>
      </g>
      <path class="cls-7" d="M454.19,385.48v.33l-86.08-2.26c-9.1-.23-17.84-1.88-26.01-4.72-.04-2.52-.24-5-.59-7.44-2.97-20.67-16.46-37.94-34.86-46.22-.56-.26-1.13-.5-1.7-.73-5.52-2.29-11.46-3.78-17.67-4.31-.88-3.23-1.58-6.52-2.08-9.88-.04-.27-.08-.55-.12-.83-.24-1.7-.42-3.41-.55-5.14-.03-.25-.04-.51-.06-.76-.09-1.3-.15-2.6-.18-3.91-.04-1.42-.04-2.85,0-4.28v-.12l4.07.11,2.47.06,28.07.74,1.49.04,13.46.35,36.52.96c24.56.65,46.45,11.52,61.69,28.44,4.54,5.02,8.48,10.58,11.74,16.56,6.95,12.76,10.75,27.45,10.39,43.01Z"/>
      <path class="cls-8" d="M454.19,385.48v.33l-86.08-2.26c-9.1-.23-17.84-1.88-26.01-4.72-.04-2.52-.24-5-.59-7.44-2.97-20.67-16.46-37.94-34.86-46.22-.56-.26-1.13-.5-1.7-.73-5.52-2.29-11.46-3.78-17.67-4.31-.88-3.23-1.58-6.52-2.08-9.88-.04-.27-.08-.55-.12-.83-.24-1.7-.42-3.41-.55-5.14-.03-.25-.04-.51-.06-.76-.09-1.3-.15-2.6-.18-3.91-.04-1.42-.04-2.85,0-4.28,0,1.05.36,2.1,1.05,3.18.67,1.07,1.68,2.16,2.98,3.26,1.01.86,2.2,1.73,3.55,2.6,4.76,3.1,11.54,6.3,19.64,9.61,1.35.56,2.75,1.11,4.17,1.68,18.21,7.16,41.96,14.84,64.63,23.06,38.48,13.96,73.88,29.51,73.88,46.76Z"/>
      <path class="cls-7" d="M280.55,300.22c-.03,1.01-.08,2.02-.15,3.03-.01.15-.02.31-.04.46-.13,1.92-.33,3.82-.6,5.71-.09.67-.19,1.33-.3,1.99-.48,2.93-1.1,5.82-1.87,8.65-6.45.46-12.61,1.94-18.34,4.29-.58.23-1.15.48-1.72.74-18.51,8.24-32.08,25.56-35.06,46.3-.36,2.53-.57,5.12-.59,7.74-7.92,2.66-16.36,4.19-25.14,4.42l-86.08,2.26v-.33c-.36-15.56,3.44-30.25,10.39-43.01,3.21-5.91,7.1-11.4,11.56-16.37,15.25-17.03,37.21-27.98,61.87-28.63l35.95-.94,13.44-.36,1.52-.04,28.04-.73,2.48-.07,4.65-.12v.12c.05,1.64.04,3.27-.01,4.89Z"/>
      <path class="cls-8" d="M280.55,300.22c-.03,1.01-.08,2.02-.15,3.03-.01.15-.02.31-.04.46-.13,1.92-.33,3.82-.6,5.71-.09.67-.19,1.33-.3,1.99-.48,2.93-1.1,5.82-1.87,8.65-6.45.46-12.61,1.94-18.34,4.29-.58.23-1.15.48-1.72.74-18.51,8.24-32.08,25.56-35.06,46.3-.36,2.53-.57,5.12-.59,7.74-7.92,2.66-16.36,4.19-25.14,4.42l-86.08,2.26v-.33c0-17.25,35.36-32.78,73.82-46.73,22.52-8.18,46.1-15.81,64.26-22.92,1.41-.56,2.78-1.11,4.12-1.65,8.29-3.37,15.22-6.63,20.07-9.78,1.18-.76,2.24-1.51,3.16-2.26,1.36-1.11,2.44-2.2,3.18-3.27.85-1.2,1.29-2.38,1.29-3.54.05,1.64.04,3.27-.01,4.89Z"/>
      <g>
        <path class="cls-4" d="M432.45,168.63c-7.26,23-19.73,44.75-37.45,63.43l-47.92,50.5-13.23,13.95-18.17,19.15-6.15,6.48-2.88,3.03c-.56-.26-1.13-.5-1.7-.73-5.52-2.29-11.46-3.78-17.67-4.31-1.28-.12-2.57-.19-3.87-.22-.41-.02-.81-.02-1.23-.02h0s-.11.11-.11.11c0-.03.02-.07.04-.11h-.11c-.47,0-.94,0-1.41.02-1,.02-2,.07-2.99.15-6.45.46-12.61,1.94-18.34,4.29-.79-1.15-1.56-2.31-2.3-3.47-1.43-2.21-2.79-4.44-4.09-6.7-3.39-5.85-6.39-11.87-8.99-18.01-.13-.28-.24-.57-.36-.85-2.28-5.45-4.25-11-5.91-16.62-2.9-9.8-4.86-19.83-5.88-29.94-1.41-13.75-1.08-27.64.98-41.34,4.85-32.07,19.22-63.04,43.23-88.35l6.2-6.53L388.91,0c21.7,20.59,36.54,45.68,44.42,72.42,9.25,31.33,9,64.92-.88,96.21Z"/>
        <path class="cls-10" d="M331.56,207.42c-14.68,30.29-28.82,59.24-38.81,83.28-.66,1.59-1.3,3.15-1.92,4.68-.88,2.18-1.72,4.31-2.51,6.39-.33.85-.65,1.68-.95,2.51-.24.63-.47,1.26-.7,1.88-.51,1.39-1,2.75-1.47,4.09-1.16,3.33-2.19,6.51-3.07,9.52,0,.04-.02.08-.03.12h-.11c-.47,0-.94,0-1.41.02-1,.02-2,.07-2.99.15-6.45.46-12.61,1.94-18.34,4.29-.79-1.15-1.56-2.31-2.3-3.47-1.43-2.21-2.79-4.44-4.09-6.7-3.39-5.85-6.39-11.87-8.99-18.01-.13-.28-.24-.57-.36-.85-2.28-5.45-4.25-11-5.91-16.62-2.9-9.8-4.86-19.83-5.88-29.94-1.41-13.75-1.08-27.64.98-41.34,4.85-32.07,19.22-63.04,43.23-88.35l6.2-6.53L388.91,0c29.07,27.58-16.28,122.73-57.35,207.42Z"/>
        <path class="cls-9" d="M332.54,248.76c-1.02,10.11-2.98,20.14-5.88,29.94-1.66,5.62-3.63,11.17-5.91,16.62-.11.28-.23.56-.36.84-2.57,6.08-5.53,12.03-8.88,17.82-1.33,2.33-2.73,4.63-4.2,6.9-.76,1.19-1.55,2.38-2.36,3.56-5.52-2.29-11.46-3.78-17.67-4.31-1.28-.12-2.57-.19-3.87-.22-.41-.02-.81-.02-1.23-.02h0s-.11.11-.11.11c0-.03.02-.07.04-.11h-.11c-.47,0-.94,0-1.41.02-1,.02-2,.07-2.99.15-6.45.46-12.61,1.94-18.34,4.29-.58.23-1.15.48-1.72.74l-2.8-2.95-5.99-6.31-18.31-19.3-13.25-13.97-47.92-50.5c-17.72-18.68-30.19-40.43-37.45-63.43-9.88-31.29-10.13-64.88-.88-96.21,7.88-26.74,22.72-51.83,44.42-72.42l106.78,112.54,6.2,6.53c24.01,25.31,38.38,56.28,43.23,88.35,2.06,13.7,2.39,27.59.98,41.34Z"/>
        <path class="cls-6" d="M332.54,248.76c-1.02,10.11-2.98,20.14-5.88,29.94-1.66,5.62-3.63,11.17-5.91,16.62-.11.28-.23.56-.36.84-2.57,6.08-5.53,12.03-8.88,17.82-1.33,2.33-2.73,4.63-4.2,6.9-.76,1.19-1.55,2.38-2.36,3.56-5.52-2.29-11.46-3.78-17.67-4.31-1.28-.12-2.57-.19-3.87-.22-.41-.02-.81-.02-1.23-.02h0s-.03-.08-.04-.12c-.78-2.66-1.67-5.45-2.67-8.36-.59-1.71-1.21-3.46-1.87-5.25-.23-.62-.46-1.25-.7-1.88-.26-.71-.53-1.42-.8-2.14-.84-2.19-1.72-4.44-2.66-6.74-.61-1.54-1.26-3.11-1.92-4.7-9.99-24.04-24.13-52.99-38.81-83.28C191.63,122.73,146.28,27.58,175.35,0l106.78,112.54,6.2,6.53c24.01,25.31,38.38,56.28,43.23,88.35,2.06,13.7,2.39,27.59.98,41.34Z"/>
      </g>
      <path class="cls-3" d="M282.17,319.9l-.11.1s.02-.07.04-.11h.07Z"/>
      <g class="cls-1">
        <path d="M228.52,454.53v12.39h-12.89v-12.39h-8.73v33.84h8.73v-14.91h12.89v14.91h8.73v-33.84h-8.73Z"/>
        <path d="M289.34,454.53l-7.06,13.06-7.3-13.06h-9.93l12.68,21.16v12.68h8.73v-13.09l12.48-20.76h-9.6Z"/>
        <path d="M349.51,454.53v19.39l-12.34-19.39h-10.44v33.84h8v-23.23l14.37,23.23h8.41v-33.84h-8Z"/>
      </g>
    </g>
  </g>
</svg>