<svg xmlns="http://www.w3.org/2000/svg" viewBox="0 0 177.19 177.5"><defs><style>.cls-1{fill:#fff;}.cls-2{fill:#53bad1;}.cls-3{fill:#dd7352;}.cls-4{fill:#dd5252;}</style></defs><title>Asset 1</title><g id="Layer_2" data-name="Layer 2"><g id="Layer_1-2" data-name="Layer 1"><path class="cls-1" d="M173.55,23,135.36,1a7.28,7.28,0,0,0-7.28,0L92.23,21.67a7.28,7.28,0,0,1-7.28,0L49.11,1a7.28,7.28,0,0,0-7.28,0L3.64,23A7.28,7.28,0,0,0,0,29.33v44.1a7.28,7.28,0,0,0,3.64,6.3l36,20.8a7.28,7.28,0,0,1,3.64,6.3v41.35a7.28,7.28,0,0,0,3.64,6.3l38.19,22a7.28,7.28,0,0,0,7.28,0l38.19-22a7.28,7.28,0,0,0,3.64-6.3V106.62a7.28,7.28,0,0,1,3.64-6.3l35.67-20.6a7.28,7.28,0,0,0,3.64-6.3V29.33A7.28,7.28,0,0,0,173.55,23Z"/><path class="cls-2" d="M8.8,23.94c-2.38,1.38-2.38,3.63,0,5L41.14,47.61a9.61,9.61,0,0,0,8.66,0L82.14,28.94c2.38-1.37,2.38-3.62,0-5L49.8,5.27a9.61,9.61,0,0,0-8.66,0Z"/><path class="cls-3" d="M39.9,95.87c2.4,1.34,4.33.19,4.3-2.56l-.47-36.18a9.61,9.61,0,0,0-4.43-7.44L7.73,32c-2.4-1.34-4.33-.19-4.3,2.56L3.9,70.74a9.61,9.61,0,0,0,4.43,7.44Z"/><path class="cls-4" d="M47.12,93.58c0,2.75,1.95,3.88,4.33,2.5L82.79,78a9.61,9.61,0,0,0,4.33-7.5V34.3c0-2.75-1.95-3.88-4.33-2.5L51.45,49.89a9.61,9.61,0,0,0-4.33,7.5Z"/><path class="cls-2" d="M95.4,23.94c-2.38,1.38-2.38,3.63,0,5l32.34,18.67a9.61,9.61,0,0,0,8.66,0l32.34-18.67c2.38-1.37,2.38-3.62,0-5L136.4,5.27a9.61,9.61,0,0,0-8.66,0Z"/><path class="cls-3" d="M126.09,96.08c2.38,1.38,4.33.25,4.33-2.5V57.39a9.61,9.61,0,0,0-4.33-7.5L94.75,31.8c-2.38-1.37-4.33-.25-4.33,2.5V70.49A9.61,9.61,0,0,0,94.75,78Z"/><path class="cls-4" d="M133.72,93.58c0,2.75,1.95,3.88,4.33,2.5L169.39,78a9.61,9.61,0,0,0,4.33-7.5V34.3c0-2.75-1.95-3.88-4.33-2.5L138,49.89a9.61,9.61,0,0,0-4.33,7.5Z"/><path class="cls-2" d="M52.1,98.94c-2.38,1.37-2.38,3.62,0,5l32.34,18.67a9.61,9.61,0,0,0,8.66,0l32.34-18.67c2.38-1.37,2.38-3.62,0-5L93.1,80.27a9.61,9.61,0,0,0-8.66,0Z"/><path class="cls-3" d="M82.7,171.12c2.38,1.38,4.33.26,4.34-2.49l.1-36.19a9.61,9.61,0,0,0-4.31-7.51L51.54,106.75c-2.38-1.38-4.33-.26-4.34,2.49l-.1,36.19a9.61,9.61,0,0,0,4.31,7.51Z"/><path class="cls-4" d="M90.42,168.58c0,2.75,1.95,3.88,4.33,2.5L126.09,153a9.61,9.61,0,0,0,4.33-7.5V109.3c0-2.75-1.95-3.88-4.33-2.5L94.75,124.89a9.61,9.61,0,0,0-4.33,7.5Z"/></g></g></svg>