<?xml version="1.0" encoding="UTF-8"?>
<svg width="468px" height="150px" viewBox="0 0 468 150" version="1.1" xmlns="http://www.w3.org/2000/svg" xmlns:xlink="http://www.w3.org/1999/xlink">
    <title>Asset 10</title>
    <defs>
        <linearGradient x1="148.147803%" y1="148.019738%" x2="25.8846224%" y2="33.2258728%" id="linearGradient-1">
            <stop stop-color="#68DA24" offset="0%"></stop>
            <stop stop-color="#8EEE44" offset="100%"></stop>
        </linearGradient>
        <linearGradient x1="143.145559%" y1="164.125323%" x2="27.1136972%" y2="30.4697224%" id="linearGradient-2">
            <stop stop-color="#68DA24" offset="0%"></stop>
            <stop stop-color="#8EEE44" offset="100%"></stop>
        </linearGradient>
        <linearGradient x1="-42.0822663%" y1="54.6087464%" x2="85.2772298%" y2="58.344728%" id="linearGradient-3">
            <stop stop-color="#000000" offset="0%"></stop>
            <stop stop-color="#000000" stop-opacity="0" offset="100%"></stop>
        </linearGradient>
        <linearGradient x1="147.099331%" y1="164.125323%" x2="26.1422369%" y2="30.4697224%" id="linearGradient-4">
            <stop stop-color="#68DA24" offset="0%"></stop>
            <stop stop-color="#8EEE44" offset="100%"></stop>
        </linearGradient>
    </defs>
    <g id="Page-1" stroke="none" stroke-width="1" fill="none" fill-rule="evenodd">
        <g id="Desktop-HD" transform="translate(-951, -516)">
            <g id="Group-3" transform="translate(951, 516)">
                <polygon id="Path" fill="#7DE535" points="238.736264 5.45787546 238.736264 61.7765568 228.058608 61.7765568 199.981685 27.5732601 199.981685 61.7673993 187.106227 61.7673993 187.106227 5.45787546 197.893773 5.45787546 225.915751 39.6428571 225.915751 5.45787546"></polygon>
                <path d="M284.130037,22.6282051 C287.71978,25.8150183 289.517705,30.6288156 289.52381,37.0695971 L289.52381,61.7948718 L277.774725,61.7948718 L277.774725,56.3736264 C275.412088,60.3968254 271.013431,62.4084249 264.578755,62.4084249 C261.609008,62.4813508 258.659031,61.9063552 255.934066,60.7234432 C253.658655,59.7371527 251.715953,58.1155855 250.338828,56.0531136 C249.045564,54.0387648 248.37358,51.6884138 248.406593,49.2948718 C248.268902,45.5696382 249.983221,42.0175693 252.985348,39.8076923 C256.037851,37.5 260.717338,36.3461538 267.02381,36.3461538 L276.996337,36.3461538 C277.143917,33.9748044 276.231511,31.6602449 274.505495,30.0274725 C272.838828,28.5561661 270.344933,27.8205128 267.02381,27.8205128 C264.712976,27.819255 262.416522,28.1839677 260.21978,28.9010989 C258.169547,29.5337222 256.249578,30.5293766 254.551282,31.8406593 L250.045788,23.0677656 C252.623174,21.3006636 255.485464,19.9903294 258.507326,19.1941392 C261.820575,18.2765267 265.243355,17.8144051 268.681319,17.8204531 C275.384615,17.8327228 280.534188,19.4352869 284.130037,22.6282051 Z M273.434066,52.4725275 C275.096797,51.4776303 276.350155,49.9222981 276.968864,48.0860806 L276.968864,43.6630037 L268.360806,43.6630037 C263.214286,43.6630037 260.641026,45.3540904 260.641026,48.7362637 C260.597974,50.2474691 261.312669,51.6802948 262.545788,52.5549451 C264.071657,53.5766138 265.885565,54.0806555 267.71978,53.992674 C269.72824,54.0222877 271.705808,53.496204 273.434066,52.4725275 L273.434066,52.4725275 Z" id="Shape" fill="#7DE535" fill-rule="nonzero"></path>
                <polygon id="Path" fill="#7DE535" points="319.441392 44.8351648 313.415751 50.7875458 313.415751 61.7765568 300.860806 61.7765568 300.860806 2.06959707 313.415751 2.06959707 313.415751 35.8608059 331.730769 18.4615385 346.694139 18.4615385 328.672161 36.7765568 348.296703 61.7216117 333.095238 61.7216117"></polygon>
                <path d="M364.331502,3.56227106 C365.807897,5.03712818 366.59845,7.06333414 366.510989,9.14835165 C366.508472,10.2352335 366.373159,11.3177359 366.108059,12.3717949 C365.640323,14.0128829 365.074595,15.6244446 364.413919,17.1978022 L359.752747,28.7820513 L351.785714,28.7820513 L355.247253,16.0714286 C353.95384,15.5273651 352.857798,14.600682 352.106227,13.4157509 C351.321756,12.1238455 350.930372,10.6314971 350.979853,9.12087912 C350.892766,7.02880202 351.698353,4.99818938 353.195971,3.53479853 C354.696303,2.10289277 356.709166,1.33404532 358.782051,1.4010989 C360.848832,1.33663232 362.85267,2.11700502 364.331502,3.56227106 L364.331502,3.56227106 Z" id="Path" fill="#7DE535"></path>
                <path d="M377.60989,61.0805861 C374.699541,60.4254035 371.915675,59.2994841 369.368132,57.7472527 L373.553114,48.7362637 C375.728329,50.0715252 378.084676,51.0862347 380.549451,51.7490842 C383.162552,52.5081761 385.868648,52.8996046 388.589744,52.9120879 C393.901099,52.9120879 396.556777,51.5995116 396.556777,48.974359 C396.556777,47.7380952 395.833333,46.8589744 394.386447,46.3186813 C392.215078,45.6313952 389.97753,45.1740636 387.710623,44.9542125 C384.747784,44.5456182 381.816566,43.9336729 378.937729,43.1227106 C376.654496,42.4485211 374.588956,41.1851937 372.948718,39.459707 C371.251526,37.6831502 370.405983,35.1617827 370.412088,31.8956044 C370.362958,29.2573427 371.197865,26.6784798 372.783883,24.5695971 C374.575987,22.2981285 376.97705,20.583083 379.70696,19.6245421 C383.143294,18.3716371 386.782792,17.7691948 390.43956,17.8479853 C393.519615,17.8497105 396.590287,18.1874844 399.59707,18.8553114 C402.232074,19.3699175 404.769378,20.2970689 407.115385,21.6025641 L402.930403,30.5311355 C399.124831,28.3891354 394.824711,27.2809549 390.457875,27.3168498 C388.387397,27.1932225 386.318243,27.5800096 384.432234,28.4432234 C383.257923,28.937471 382.473532,30.0641427 382.417582,31.3369963 C382.402423,32.6657032 383.299669,33.831745 384.587912,34.1575092 C386.850764,34.8738962 389.174157,35.3827131 391.529304,35.6776557 C394.458321,36.1316353 397.357341,36.7615912 400.210623,37.5641026 C402.465094,38.2319315 404.496681,39.4977177 406.089744,41.2271062 C407.750305,42.991453 408.580586,45.4578755 408.580586,48.6263736 C408.617531,51.2293817 407.768234,53.7675844 406.172161,55.8241758 C404.329523,58.0758539 401.888479,59.7614121 399.130037,60.6868132 C395.599426,61.9139212 391.877897,62.500062 388.141026,62.4175824 C384.588144,62.4204538 381.04934,61.9711795 377.60989,61.0805861 Z" id="Path" fill="#7DE535"></path>
                <path d="M198.489011,130.32967 C193.958755,127.931089 190.175957,124.332045 187.554945,119.92674 C182.237394,110.63038 182.237394,99.213942 187.554945,89.9175824 C190.179897,85.5223978 193.962336,81.9331989 198.489011,79.5421245 C207.494648,74.9951556 218.027318,74.5677042 227.371795,78.3699634 C231.22276,80.0194064 234.627832,82.5583034 237.307692,85.7783883 L228.946886,93.4981685 C225.473397,89.2599233 220.259521,86.8332969 214.78022,86.9047619 C211.523976,86.847173 208.30857,87.6360361 205.448718,89.1941392 C202.751242,90.6849959 200.529318,92.9069199 199.038462,95.6043956 C195.980071,101.45274 195.980071,108.428213 199.038462,114.276557 C200.529318,116.974032 202.751242,119.195956 205.448718,120.686813 C208.30857,122.244916 211.523976,123.033779 214.78022,122.97619 C220.282529,123.032248 225.50559,120.557456 228.946886,116.263736 L237.307692,123.992674 C234.634445,127.253187 231.213281,129.819845 227.335165,131.474359 C223.132379,133.23377 218.612551,134.109682 214.056777,134.047619 C208.638335,134.128968 203.285946,132.850691 198.489011,130.32967 L198.489011,130.32967 Z" id="Path" fill="#202830"></path>
                <path d="M284.52381,94.010989 C287.832723,97.2222222 289.484127,101.993284 289.478039,108.324176 L289.478039,133.104396 L276.886447,133.104396 L276.886447,110.25641 C276.886447,106.831502 276.135531,104.270452 274.6337,102.57326 C273.131868,100.876068 270.961538,100.033578 268.122711,100.045788 C265.300773,99.9113098 262.553423,100.975658 260.558608,102.97619 C258.684371,104.935897 257.7442,107.844933 257.738095,111.703297 L257.738095,133.104396 L245.192308,133.104396 L245.192308,73.4157509 L257.738095,73.4157509 L257.738095,94.3315018 C259.449787,92.6370646 261.508751,91.3341996 263.772894,90.5128205 C266.247625,89.6061416 268.866393,89.1562348 271.501832,89.1849817 C276.862027,89.1849817 281.202686,90.7936508 284.52381,94.010989 Z" id="Path" fill="#202830"></path>
                <path d="M309.587912,130.915751 C306.078115,129.109885 303.139131,126.364296 301.098901,122.985348 C297.032648,115.85654 297.032648,107.110493 301.098901,99.981685 C303.137047,96.6033511 306.076793,93.8602224 309.587912,92.0604396 C313.381741,90.1152681 317.596108,89.1340127 321.858974,89.2032967 C326.107865,89.1278983 330.30888,90.1097085 334.084249,92.0604396 C337.581333,93.8665507 340.507674,96.6090047 342.53663,99.981685 C346.602883,107.110493 346.602883,115.85654 342.53663,122.985348 C340.505606,126.358666 337.580016,129.103585 334.084249,130.915751 C330.30888,132.866482 326.107865,133.848292 321.858974,133.772894 C317.596108,133.842178 313.381741,132.860922 309.587912,130.915751 Z M329.78022,120.210623 C331.849817,118.037241 332.881563,115.128205 332.875485,111.483516 C332.869353,107.838828 331.837607,104.929792 329.78022,102.75641 C327.727047,100.587612 324.843957,99.4010459 321.858974,99.496337 C318.862036,99.4089496 315.967945,100.593198 313.891941,102.75641 C311.804029,104.923687 310.760073,107.832723 310.760073,111.483516 C310.760073,115.13431 311.804029,118.043346 313.891941,120.210623 C315.967945,122.373835 318.862036,123.558083 321.858974,123.470696 C324.846776,123.561265 327.730301,122.367853 329.78022,120.192308 L329.78022,120.210623 Z" id="Shape" fill="#202830" fill-rule="nonzero"></path>
                <path d="M354.59707,81.7765568 C353.212936,80.487732 352.426801,78.6815613 352.426801,76.790293 C352.426801,74.8990248 353.212936,73.092854 354.59707,71.8040293 C356.143864,70.4315168 358.162788,69.7125827 360.228938,69.7985348 C362.281126,69.7094842 364.291669,70.3960109 365.860806,71.7216117 C367.267861,72.9260405 368.06373,74.695758 368.031136,76.547619 C368.087287,78.5098217 367.296644,80.40136 365.860806,81.7399267 C362.595274,84.4500304 357.862601,84.4500304 354.59707,81.7399267 L354.59707,81.7765568 Z M353.956044,89.8260073 L366.510989,89.8260073 L366.510989,133.104396 L353.956044,133.104396 L353.956044,89.8260073 Z" id="Shape" fill="#202830" fill-rule="nonzero"></path>
                <path d="M386.657509,130.915751 C379.363364,127.18419 374.774023,119.68133 374.774023,111.488095 C374.774023,103.29486 379.363364,95.7920003 386.657509,92.0604396 C390.506887,90.114745 394.771633,89.1341991 399.084249,89.2032967 C403.232362,89.1143441 407.333107,90.0985229 410.989011,92.0604396 C414.313417,93.8709911 416.934797,96.7438684 418.434066,100.21978 L408.699634,105.448718 C406.446886,101.486569 403.202076,99.502442 398.965201,99.496337 C395.925297,99.3991806 392.981077,100.566259 390.833333,102.71978 C388.690476,104.862637 387.619048,107.783883 387.619048,111.483516 C387.619048,115.18315 388.690476,118.107448 390.833333,120.25641 C392.985692,122.401908 395.92761,123.564761 398.965201,123.470696 C403.238706,123.470696 406.483516,121.486569 408.699634,117.518315 L418.434066,122.82967 C416.890365,126.246486 414.277244,129.068528 410.989011,130.869963 C407.341981,132.859655 403.237806,133.860442 399.084249,133.772894 C394.771633,133.841991 390.506887,132.861445 386.657509,130.915751 Z" id="Path" fill="#202830"></path>
                <path d="M467.307692,115.009158 L434.569597,115.009158 C435.087752,117.587711 436.584342,119.865416 438.745421,121.364469 C441.177858,122.991243 444.063158,123.805538 446.987179,123.690476 C449.030846,123.728174 451.06403,123.389827 452.985348,122.692308 C454.802054,121.968226 456.45542,120.887778 457.847985,119.514652 L464.532967,126.749084 C460.448718,131.419414 454.493284,133.754579 446.666667,133.754579 C442.173939,133.85559 437.722036,132.882325 433.681319,130.915751 C430.087415,129.155248 427.07201,126.403572 424.990842,122.985348 C422.923076,119.509791 421.863982,115.527091 421.932234,111.483516 C421.875812,107.457788 422.92079,103.493205 424.954212,100.018315 C426.91073,96.6530283 429.764199,93.8978456 433.195971,92.0604396 C440.490272,88.2918009 449.148163,88.2441365 456.483516,91.9322344 C459.874431,93.7204232 462.680892,96.444247 464.569597,99.7802198 C466.583877,103.418763 467.595181,107.527186 467.5,111.684982 C467.545788,111.785714 467.472527,112.912088 467.307692,115.009158 Z M437.948718,101.089744 C435.981779,102.764885 434.716731,105.118463 434.404762,107.68315 L455.769231,107.68315 C455.43827,105.134865 454.175862,102.799246 452.225275,101.126374 C450.243746,99.4727589 447.726382,98.5999857 445.14652,98.6721612 C442.533311,98.5774306 439.974903,99.4367432 437.948718,101.089744 L437.948718,101.089744 Z" id="Shape" fill="#202830" fill-rule="nonzero"></path>
                <g id="Group-4">
                    <path d="M40.1031746,16.7539683 C37.7840199,6.84197576 27.8759284,0.680492352 17.9603175,2.98412698 L0,7.14285714 C0.723290041,10.3097524 2.27645389,13.2270707 4.5,15.5952381 C9.00144601,20.4046623 15.7284882,22.4442603 22.1428571,20.9444444 L32.6190476,65.8730159 L32.6190476,65.8730159 C42.5333378,63.5579321 48.6943808,53.6448353 46.3809524,43.7301587 L44.2936508,34.7142857 L98.1587302,22.1428571 L106.015873,55.8174603 C106.19407,56.5790905 106.239711,57.3657289 106.150794,58.1428571 C106.126276,58.4099513 106.083853,58.6750979 106.02381,58.9365079 C105.969231,59.1897191 105.89764,59.4389617 105.809524,59.6825397 C105.637457,60.1679478 105.413963,60.6335592 105.142857,61.0714286 C104.595196,61.9536027 103.854344,62.6998828 102.97619,63.2539683 C102.737169,63.4059718 102.487893,63.5412169 102.230159,63.6587302 C101.787235,63.8659922 101.32459,64.028184 100.849206,64.1428571 L100.849206,64.1428571 L60.4444444,73.5396825 C51.1585746,75.6947774 43.872143,82.8861019 41.5952381,92.1428571 C40.6275863,96.0301709 40.6003796,100.092137 41.515873,103.992063 C43.0371807,110.544362 47.1026868,116.222261 52.815588,119.773283 C58.5284892,123.324304 65.4193958,124.456685 71.968254,122.920635 L119.103175,111.904762 C129.017926,109.589455 135.181322,99.6782884 132.873016,89.7619048 L68.0079365,104.912698 C64.5771691,105.766389 61.0436589,103.952158 59.7380952,100.666667 C59.0342332,98.8041811 59.1686196,96.7285134 60.1067672,94.9723376 C61.0449148,93.2161618 62.6954941,91.9504431 64.6349206,91.5 L105.039683,82.0714286 C107.317907,81.5470484 109.511259,80.7055067 111.555556,79.5714286 C111.555556,79.5714286 111.555556,79.5714286 111.555556,79.5714286 C113.491157,78.4863139 115.276199,77.1522022 116.865079,75.6031746 L116.865079,75.6031746 C117.31746,75.1666667 117.746032,74.7142857 118.166667,74.2460317 C123.130474,68.6950526 125.39783,61.2397782 124.365079,53.8650794 L124.468254,53.8650794 L111.904762,1.13686838e-13 L40.1031746,16.7539683 Z" id="Path" fill="url(#linearGradient-1)"></path>
                    <path d="M75.8571429,131.261905 L75.8571429,131.261905 C71.1382037,132.614646 68.3060291,137.426936 69.4143441,142.209188 C70.522659,146.99144 75.1829598,150.067306 80.015873,149.206349 L80.015873,149.206349 C84.9115071,147.992826 87.9240729,143.071464 86.7780419,138.159593 C85.6320108,133.247721 80.7525758,130.16771 75.8253968,131.246032 L75.8571429,131.261905 Z" id="Path" fill="url(#linearGradient-2)"></path>
                    <path d="M44.2936508,34.7142857 C44.2936508,34.7142857 39.531746,16.8888889 57.2698413,12.7460317 L77.0238095,8.14285714 L81.3174603,26.0714286 L44.2936508,34.7142857 Z" id="Path" fill="url(#linearGradient-3)" style="mix-blend-mode: overlay;"></path>
                    <path d="M116.857143,121.698413 L116.857143,121.698413 C111.890963,122.846814 108.796043,127.803662 109.944445,132.769841 C111.092846,137.736021 116.049694,140.830941 121.015873,139.68254 L121.015873,139.68254 C125.911507,138.469017 128.924073,133.547655 127.778042,128.635783 C126.632011,123.723911 121.752576,120.6439 116.825397,121.722222 L116.857143,121.698413 Z" id="Path" fill="url(#linearGradient-4)"></path>
                </g>
            </g>
        </g>
    </g>
</svg>