<svg width="100" height="100" viewBox="0 0 100 100" fill="none" xmlns="http://www.w3.org/2000/svg">
<path d="M50 0C59.7832 0 68.908 2.81205 76.6172 7.66797L68.499 15.7861C62.9984 12.804 56.6968 11.1113 50 11.1113C41.2483 11.1113 33.1712 14.0031 26.6719 18.8838C23.6954 21.1169 21.0508 23.767 18.8232 26.749C13.981 33.2346 11.1113 41.284 11.1113 50C11.1113 58.7352 13.9921 66.798 18.8535 73.2891C21.084 76.2685 23.7315 78.916 26.7109 81.1465C33.202 86.0079 41.2648 88.8887 50 88.8887C58.7161 88.8887 66.7654 86.019 73.251 81.1768L61.2451 69.1719C64.485 67.2652 67.2015 64.5627 69.1191 61.3311L79.2871 71.501H79.2891L80.0107 72.2227L81.1162 73.3311L89.0342 81.248C86.7105 84.1451 84.0744 86.7794 81.1719 89.0977C72.6232 95.9207 61.786 100 50 100C38.1948 100 27.3442 95.9067 18.79 89.0645C15.8902 86.7462 13.2536 84.1098 10.9326 81.21C4.09313 72.6558 0 61.8079 0 50C3.97086e-06 38.214 4.0793 27.3768 10.9023 18.8281C13.2206 15.9256 15.8549 13.2893 18.752 10.9629C27.3116 4.10427 38.1784 5.05008e-06 50 0ZM81.21 9.81152C84.1096 12.1324 86.7465 14.7683 89.0674 17.668C95.9068 26.2221 99.9999 37.0728 100 48.8779C100 58.6802 97.1797 67.8245 92.3047 75.5391L84.1895 67.4238C87.1879 61.9123 88.8887 55.5911 88.8887 48.8779C88.8886 40.1428 86.0079 32.0799 81.1465 25.5889L80.0791 26.6562L77.1689 29.5645L69.1436 37.5889C67.2313 34.3543 64.5234 31.6438 61.2861 29.7344C57.9776 27.7784 54.1178 26.6563 50 26.6562C45.8601 26.6562 41.9858 27.7862 38.6689 29.7588C35.4372 31.6765 32.735 34.3928 30.8311 37.6328C28.8888 40.9304 27.7774 44.7766 27.7773 48.8779C27.7773 52.9986 28.8967 56.8564 30.8555 60.165C32.7649 63.4023 35.4756 66.113 38.7129 68.0225C42.0215 69.9813 45.8793 71.1006 50 71.1006C51.9725 71.1006 53.8823 70.8451 55.7012 70.3623L64.3232 78.9854C59.9832 81.0538 55.1274 82.2119 50 82.2119C42.8011 82.2119 36.1341 79.9289 30.6855 76.0469C27.6486 73.885 24.9901 71.2264 22.8311 68.1895C18.9491 62.7409 16.666 56.0768 16.666 48.8779C16.6661 41.6957 18.9381 35.0457 22.8008 29.6055C24.9599 26.5657 27.6132 23.9019 30.6475 21.7373C36.1043 17.8388 42.7846 15.5449 50 15.5449C57.1988 15.545 63.863 17.828 69.3115 21.71L81.21 9.81152Z" fill="#3470B7"/>
</svg>
