<svg width="230" height="26" viewBox="0 0 230 26" fill="none" xmlns="http://www.w3.org/2000/svg">
<g clip-path="url(#clip0_2095_2156)">
<path d="M29.2713 8.11195C29.2713 15.7087 23.5856 19.9648 16.3726 19.9648H9.59487L7.95683 24.9699H0L7.86979 0.800491H20.08C25.9991 0.804453 29.2713 2.90477 29.2713 8.11195ZM21.1127 9.58214C21.1127 8.14364 20.3095 7.4224 18.3826 7.4224H13.7019L11.7196 13.434L16.6891 13.4063C19.2175 13.4063 21.1127 11.9401 21.1127 9.58214ZM51.0527 17.2067L52.8333 24.9738H45.1929L43.8436 18.7601H37.4656L35.4833 24.9738H27.5265L35.2814 0.804458H47.8636C53.9807 0.804458 56.9401 3.13461 56.9401 7.85437C56.9442 12.1976 54.3883 15.4194 51.0527 17.2067ZM39.3648 12.9189L44.8804 12.8911C46.6054 12.8911 48.8449 11.7697 48.8449 9.5544C48.8449 7.94154 47.927 7.42635 46.0594 7.42635H41.1176L39.3648 12.9189ZM57.4348 15.8236C57.4348 7.48184 64.7585 0 74.5275 0C81.5939 0 85.6457 3.76867 85.6457 9.95467C85.6457 18.2965 78.322 25.7783 68.553 25.7783C61.4824 25.7783 57.4348 22.0096 57.4348 15.8236ZM77.7125 11.2188C77.7125 8.31405 75.6749 6.87554 73.2298 6.87554C68.5174 6.87554 65.4153 10.9612 65.36 14.5555C65.36 17.4603 67.3975 18.8988 69.8429 18.8988C74.5553 18.9028 77.6572 14.8171 77.7125 11.2188ZM112.99 8.11195C112.99 15.7087 107.304 19.9648 100.092 19.9648H93.3135L91.6755 24.9699H83.7187L91.5885 0.800491H103.799C109.714 0.804453 112.99 2.90477 112.99 8.11195ZM104.831 9.58214C104.831 8.14364 104.028 7.4224 102.101 7.4224H97.4206L95.4383 13.434L100.408 13.4063C102.936 13.4063 104.831 11.9401 104.831 9.58214ZM143.884 0.804458L136.129 24.9738H128.172L130.902 16.5171H121.651L118.921 24.9738H110.964L118.719 0.804458H126.676L123.744 9.89521H132.995L135.927 0.804458H143.884ZM152.493 7.16482L151.488 10.2717H165.277L163.612 15.3639H149.85L148.786 18.6135H162.63L160.561 24.9699H138.787L146.574 0.800491H168.435L166.365 7.16087H152.493V7.16482ZM193.908 7.45014H185.405L179.687 24.9699H171.731L177.448 7.45014H168.743L170.868 0.804458H196.06L193.908 7.45014Z" fill="#140045"/>
<path d="M209.272 17.7698L214.028 24.9742H222.863L215.163 13.3433L209.272 17.7698Z" fill="url(#paint0_linear_2095_2156)"/>
<path d="M218.475 0.804443L219.381 2.13992L212.215 7.52938L211.594 7.98116L205.703 12.4077L205.077 12.8911L197.912 18.2489L197.038 16.9174L190.861 24.9738H202.359L201.481 23.6106L208.646 18.2489L209.271 17.7694L215.163 13.3429L215.784 12.8872L222.95 7.52938L223.828 8.8609L230 0.804443H218.475Z" fill="url(#paint1_linear_2095_2156)"/>
<path d="M197.999 0.804443L205.703 12.4077L211.594 7.98116L206.807 0.804443H197.999Z" fill="url(#paint2_linear_2095_2156)"/>
</g>
<defs>
<linearGradient id="paint0_linear_2095_2156" x1="221.633" y1="26.2069" x2="198.169" y2="2.77933" gradientUnits="userSpaceOnUse">
<stop stop-color="#1DC29A"/>
<stop offset="0.1032" stop-color="#19BE9D"/>
<stop offset="0.6255" stop-color="#06ADAA"/>
<stop offset="1" stop-color="#00A7AF"/>
</linearGradient>
<linearGradient id="paint1_linear_2095_2156" x1="209.275" y1="12.889" x2="175.752" y2="12.889" gradientUnits="userSpaceOnUse">
<stop stop-color="#1DC29A"/>
<stop offset="1" stop-color="#00A7AF"/>
</linearGradient>
<linearGradient id="paint2_linear_2095_2156" x1="196.895" y1="1.18567" x2="213.688" y2="10.881" gradientUnits="userSpaceOnUse">
<stop stop-color="#1DC29A"/>
<stop offset="0.3631" stop-color="#18BD9E"/>
<stop offset="0.802" stop-color="#09AFA8"/>
<stop offset="1" stop-color="#00A7AF"/>
</linearGradient>
<clipPath id="clip0_2095_2156">
<rect width="230" height="26" fill="white"/>
</clipPath>
</defs>
</svg>
