<svg width="257" height="44" viewBox="0 0 257 44" fill="none" xmlns="http://www.w3.org/2000/svg">
<g opacity="0.8" clip-path="url(#clip0_2087_426)">
<path d="M26.3552 8.80156C31.2123 8.80156 35.148 12.7412 35.148 17.6031C35.148 20.378 33.8596 22.8403 31.8761 24.4505L38.1076 30.6882C41.6919 27.4678 43.9331 22.7934 43.9331 17.5953C43.9409 7.8792 36.0695 0 26.3552 0H0V0.0156333L8.77725 8.80156H26.3552Z" fill="#79C8C9"/>
<path d="M17.5701 17.5952V30.0393L31.509 43.9999H43.9409L17.5701 17.5952Z" fill="#79C8C9"/>
<path d="M76.6916 24.6146C78.1284 23.9424 79.2451 22.9888 80.0182 21.7459C80.7991 20.5031 81.1817 19.0179 81.1817 17.2982C81.1817 15.5786 80.8069 14.0621 80.0572 12.7958C79.3076 11.5295 78.2299 10.5446 76.8243 9.84895C75.4187 9.15326 73.732 8.80151 71.7719 8.80151H61.511V35.1906H66.8445V25.6152H71.3424L76.3011 35.1906H82.1266L76.5666 24.6615C76.6057 24.6459 76.6525 24.6303 76.6916 24.6146ZM66.8445 13.2336H71.1472C72.1546 13.2336 73.0136 13.3977 73.7086 13.7182C74.4035 14.0387 74.9346 14.5077 75.2938 15.1174C75.653 15.7193 75.8326 16.4462 75.8326 17.2982C75.8326 18.1502 75.653 18.8537 75.2938 19.4556C74.9346 20.0575 74.4114 20.5109 73.7164 20.8314C73.0214 21.1518 72.178 21.3082 71.1628 21.3082H66.8445V13.2336Z" fill="black"/>
<path d="M97.6195 16.7824C96.2139 15.9616 94.5506 15.5552 92.6374 15.5552C90.7242 15.5552 89.0922 15.9616 87.6709 16.7824C86.2497 17.6031 85.1565 18.7522 84.3756 20.2295C83.5947 21.7069 83.212 23.4266 83.212 25.3885C83.212 27.3505 83.6025 29.0546 84.3756 30.5241C85.1565 31.9936 86.2497 33.1427 87.6709 33.9634C89.0844 34.7842 90.7399 35.1906 92.6374 35.1906C94.535 35.1906 96.2139 34.7842 97.6195 33.9634C99.0251 33.1427 100.118 32.0014 100.899 30.5241C101.68 29.0546 102.071 27.3427 102.071 25.3885C102.071 23.4344 101.68 21.6991 100.899 20.2295C100.118 18.7522 99.0251 17.6031 97.6195 16.7824ZM96.3311 28.3589C95.9953 29.2109 95.5111 29.8675 94.8942 30.3365C94.2695 30.8055 93.5198 31.04 92.6374 31.04C91.755 31.04 91.0132 30.8055 90.3885 30.3365C89.7637 29.8675 89.2796 29.2031 88.9516 28.3589C88.6236 27.5147 88.4518 26.5141 88.4518 25.3729C88.4518 24.2317 88.6158 23.2233 88.9516 22.3791C89.2796 21.5349 89.7637 20.8783 90.3885 20.4093C91.0132 19.9403 91.7628 19.7058 92.6374 19.7058C93.512 19.7058 94.2695 19.9403 94.8942 20.4093C95.5189 20.8783 95.9953 21.5427 96.3311 22.3869C96.6668 23.2311 96.8386 24.2317 96.8386 25.3729C96.8386 26.5141 96.6668 27.5069 96.3311 28.3589Z" fill="black"/>
<path d="M117.111 29.1405C116.908 29.547 116.65 29.8909 116.345 30.1802C116.041 30.4616 115.674 30.6804 115.268 30.8368C114.854 30.9853 114.393 31.0634 113.886 31.0634C113.003 31.0634 112.246 30.8289 111.621 30.3521C110.996 29.8753 110.52 29.2109 110.192 28.3667C109.864 27.5225 109.708 26.522 109.708 25.3807C109.708 24.2395 109.872 23.2468 110.192 22.3869C110.52 21.5349 110.996 20.8705 111.621 20.4015C112.246 19.9325 113.003 19.698 113.886 19.698C114.393 19.698 114.862 19.7762 115.268 19.9247C115.682 20.0732 116.041 20.2921 116.353 20.5813C116.666 20.8627 116.923 21.2066 117.118 21.5896C117.314 21.9805 117.462 22.4182 117.556 22.9028L122.468 22.5042C122.343 21.4568 122.038 20.5109 121.57 19.6589C121.101 18.8069 120.484 18.08 119.734 17.4703C118.977 16.8606 118.102 16.3916 117.103 16.0554C116.103 15.7271 115.01 15.5552 113.823 15.5552C111.933 15.5552 110.278 15.9695 108.872 16.7902C107.467 17.611 106.381 18.7678 105.608 20.2452C104.835 21.7225 104.452 23.4344 104.452 25.3885C104.452 27.3427 104.835 29.0389 105.608 30.5085C106.381 31.978 107.467 33.127 108.872 33.9556C110.278 34.7842 111.926 35.1906 113.823 35.1906C115.018 35.1906 116.119 35.0187 117.126 34.6826C118.134 34.3464 119.016 33.8696 119.774 33.2443C120.531 32.619 121.148 31.8842 121.609 31.0322C122.077 30.1802 122.366 29.2187 122.483 28.1635L117.556 27.7804C117.462 28.2807 117.314 28.7341 117.111 29.1405Z" fill="black"/>
<path d="M143.395 15.8834H137.367L130.956 23.1373H130.8V8.80151H125.622V35.1906H130.8V28.7575L132.276 27.1081L137.999 35.1906H144.059L136.164 24.0987L143.395 15.8834Z" fill="black"/>
<path d="M159.81 18.119C158.998 17.2827 158.037 16.6417 156.928 16.2118C155.82 15.774 154.609 15.5552 153.297 15.5552C151.47 15.5552 149.877 15.9773 148.495 16.8137C147.12 17.65 146.043 18.8069 145.27 20.2843C144.497 21.7616 144.114 23.4656 144.114 25.3964C144.114 27.3271 144.497 29.0624 145.262 30.5319C146.027 32.0014 147.113 33.1505 148.518 33.9712C149.924 34.792 151.587 35.1984 153.5 35.1984C155 35.1984 156.351 34.9561 157.553 34.4637C158.756 33.9712 159.755 33.2912 160.552 32.4157C161.348 31.5403 161.879 30.5241 162.145 29.375L157.444 28.992C157.28 29.4688 157.022 29.8831 156.671 30.2271C156.319 30.5788 155.882 30.8446 155.375 31.0322C154.867 31.2198 154.281 31.3136 153.633 31.3136C152.727 31.3136 151.939 31.1182 151.275 30.7273C150.603 30.3365 150.096 29.7737 149.736 29.0389C149.408 28.3667 149.237 27.5772 149.205 26.6783H162.403V25.2635C162.403 23.7392 162.176 22.3791 161.723 21.1832C161.27 19.9872 160.638 18.9711 159.826 18.1347L159.81 18.119ZM151.119 20.0654C151.743 19.6746 152.485 19.4791 153.36 19.4791C154.234 19.4791 154.992 19.6746 155.609 20.0576C156.226 20.4406 156.694 20.9878 157.022 21.6991C157.249 22.1993 157.397 22.7621 157.459 23.3875H149.213C149.276 22.7621 149.432 22.1915 149.682 21.6834C150.018 20.9878 150.502 20.4484 151.119 20.0576V20.0654Z" fill="black"/>
<path d="M174.702 31.0554C174.327 31.0789 174.007 31.0867 173.749 31.0867C173.085 31.0867 172.624 30.9538 172.351 30.6959C172.086 30.4379 171.953 29.9924 171.953 29.3592V20.1825H175.686V16.1569H171.953V11.3105H166.799V16.1569H163.839V20.1825H166.799V30.0158C166.799 31.7355 167.291 33.0252 168.283 33.8851C169.274 34.7449 170.766 35.1748 172.757 35.1748C173.304 35.1748 173.858 35.1592 174.42 35.1279C174.983 35.0967 175.482 35.0419 175.912 34.9638L175.584 30.9851C175.373 30.9929 175.084 31.0164 174.702 31.0398V31.0554Z" fill="black"/>
<path d="M178.786 35.1906H184.119V24.5208H195.411V20.1044H184.119V13.3195H196.403V8.80151H178.786V35.1906Z" fill="black"/>
<path d="M204.68 8.80151H199.503V35.1906H204.68V8.80151Z" fill="black"/>
<path d="M222.258 16.7824C220.852 15.9616 219.189 15.5552 217.276 15.5552C215.363 15.5552 213.731 15.9616 212.309 16.7824C210.896 17.6031 209.795 18.7522 209.014 20.2295C208.233 21.7069 207.843 23.4266 207.843 25.3885C207.843 27.3505 208.233 29.0546 209.014 30.5241C209.795 31.9936 210.888 33.1427 212.309 33.9634C213.723 34.7842 215.378 35.1906 217.276 35.1906C219.174 35.1906 220.852 34.7842 222.258 33.9634C223.664 33.1427 224.757 32.0014 225.538 30.5241C226.319 29.0546 226.701 27.3427 226.701 25.3885C226.701 23.4344 226.311 21.6991 225.538 20.2295C224.757 18.7522 223.664 17.6031 222.258 16.7824ZM220.97 28.3589C220.634 29.2109 220.15 29.8675 219.533 30.3365C218.908 30.8055 218.158 31.04 217.276 31.04C216.394 31.04 215.652 30.8055 215.027 30.3365C214.402 29.8675 213.918 29.2031 213.59 28.3589C213.262 27.5069 213.09 26.5141 213.09 25.3729C213.09 24.2317 213.254 23.2233 213.59 22.3791C213.918 21.5349 214.402 20.8783 215.027 20.4093C215.652 19.9403 216.401 19.7058 217.276 19.7058C218.151 19.7058 218.908 19.9403 219.533 20.4093C220.157 20.8783 220.634 21.5427 220.97 22.3869C221.305 23.2311 221.477 24.2317 221.477 25.3729C221.477 26.5141 221.305 27.5069 220.97 28.3589Z" fill="black"/>
<path d="M251.456 15.5552L249.581 23.0748C249.277 24.4036 248.972 25.7872 248.66 27.2411C248.457 28.1869 248.254 29.1718 248.051 30.1723C247.832 29.1718 247.614 28.1869 247.387 27.2333C247.036 25.7716 246.7 24.388 246.38 23.0748L244.451 15.5552H240.125L238.157 23.0748C237.821 24.388 237.478 25.7794 237.126 27.2411C236.9 28.2025 236.681 29.1953 236.462 30.1958C236.259 29.1796 236.056 28.1791 235.846 27.2176C235.525 25.7559 235.213 24.3802 234.893 23.0748L233.019 15.5552H227.545L233.479 35.1984H238.758L240.937 27.7883C241.148 27.0691 241.351 26.2953 241.546 25.4667C241.741 24.6381 241.944 23.8096 242.14 22.9654C242.179 22.7934 242.218 22.6293 242.265 22.4573C242.304 22.6293 242.343 22.7934 242.389 22.9654C242.585 23.8096 242.788 24.6381 242.983 25.4589C243.178 26.2796 243.381 27.0535 243.592 27.7883L245.732 35.1984H251.05L257.008 15.5552H251.463H251.456Z" fill="black"/>
</g>
<defs>
<clipPath id="clip0_2087_426">
<rect width="257" height="44" fill="white"/>
</clipPath>
</defs>
</svg>
