<svg width="265" height="70" viewBox="0 0 265 70" fill="none" xmlns="http://www.w3.org/2000/svg">
<path d="M93.9234 22.2402H84.2918V17.2496H109.47V22.2402H99.8382V51.3024H93.9234V22.2402Z" fill="#F9322C"/>
<path d="M109.253 38.1508C109.253 29.9895 114.905 24.9875 120.803 24.9875C127.574 24.9875 131.148 29.898 131.148 36.9146C131.152 37.8744 131.066 38.8324 130.891 39.7761H114.985C115.476 44.2345 118.33 46.7698 122.373 46.7698C124.445 46.7416 126.465 46.1092 128.185 44.9499L130.189 48.6127C127.655 50.336 124.67 51.2717 121.608 51.3026C114.682 51.3026 109.253 46.4379 109.253 38.1508ZM126.067 35.7413C126.067 31.8725 124.354 29.5202 120.928 29.5202C118.011 29.5202 115.442 31.7122 114.933 35.7413H126.067Z" fill="#F9322C"/>
<path d="M136.766 25.5766H142.189V28.9704C144.439 26.7842 146.985 24.9642 150.416 24.9642C155.783 24.9642 158.124 28.6041 158.124 34.9454V51.3022H152.249V35.7009C152.249 31.5687 151.067 30.012 148.355 30.012C146.152 30.012 144.702 31.0994 142.646 33.1426V51.3022H136.766V25.5766Z" fill="#F9322C"/>
<path d="M163.982 43.9426C163.982 38.5628 168.429 35.7585 178.712 34.6539C178.632 31.9583 177.57 29.7034 174.144 29.7034C171.655 29.7034 169.309 30.848 167.105 32.1815L164.941 28.2554C167.698 26.5385 171.221 24.9589 175.218 24.9589C181.498 24.9589 184.564 28.8277 184.564 35.8329V51.3026H179.157V47.9087C176.913 49.8317 174.344 51.3026 171.387 51.3026C167.002 51.3026 163.982 48.3208 163.982 43.9426ZM178.712 43.9426V38.3453C171.918 39.2038 169.651 40.9837 169.651 43.4962C169.651 45.7168 171.164 46.6897 173.265 46.6897C175.366 46.6897 176.856 45.6767 178.7 43.9598L178.712 43.9426Z" fill="#F9322C"/>
<path d="M191.643 25.5766H197.073V28.9704C199.317 26.7842 201.863 24.9642 205.294 24.9642C210.661 24.9642 213.007 28.6041 213.007 34.9454V51.3022H207.133V35.7009C207.133 31.5687 205.945 30.012 203.233 30.012C201.029 30.012 199.579 31.0994 197.524 33.1426V51.3022H191.643V25.5766Z" fill="#F9322C"/>
<path d="M218.551 38.1506C218.551 29.7891 224.449 24.9874 231.112 24.9874C233.822 24.9672 236.439 25.9775 238.437 27.8146L235.582 31.6377C234.257 30.493 232.996 29.7948 231.42 29.7948C227.383 29.7948 224.569 33.1486 224.569 38.1792C224.569 43.2099 227.349 46.495 231.226 46.495C233.153 46.4052 234.988 45.6395 236.41 44.3316L238.796 48.2177C236.544 50.1996 233.652 51.2956 230.655 51.3024C223.804 51.3024 218.551 46.4778 218.551 38.1506Z" fill="#F9322C"/>
<path d="M242.359 60.488L243.444 55.9095C244.027 56.0882 244.628 56.2052 245.236 56.2586C249.164 56.4589 251.071 51.2852 251.071 51.2852L240.852 25.5596H246.806L251.134 37.8701C251.888 40.0964 252.601 42.5745 253.338 44.9668H253.543C254.177 42.6375 254.805 40.1594 255.462 37.8701L259.201 25.5767H264.87L255.804 51.8346C253.726 57.4891 251.094 60.9917 245.625 60.9917C244.515 61.0084 243.412 60.8381 242.359 60.488Z" fill="#F9322C"/>
<path d="M39.9021 8.00098L31.9206 15.9962L15.9574 31.9982H0L31.9206 0L39.9021 8.00098Z" fill="#F9322C"/>
<path d="M63.8412 31.9978H47.8838L31.9206 15.9959L39.9022 8.00061L63.8412 31.9978Z" fill="url(#paint0_linear_2111_8670)"/>
<path d="M15.9632 45.9969L27.9298 57.9984L15.9632 69.9998V45.9969Z" fill="#F9322C"/>
<path d="M15.9632 41.9963V45.9968L27.9298 57.9983V53.9978V30.0006L15.9632 41.9963Z" fill="url(#paint1_linear_2111_8670)"/>
<path d="M35.9113 53.9978L47.8837 41.9963L35.9113 30.0006V53.9978Z" fill="#F9322C"/>
<path d="M35.9113 57.9985V53.9981L47.8837 41.9966V45.9971V70L35.9113 57.9985Z" fill="url(#paint2_linear_2111_8670)"/>
<defs>
<linearGradient id="paint0_linear_2111_8670" x1="60.8724" y1="37.2574" x2="35.7867" y2="11.7759" gradientUnits="userSpaceOnUse">
<stop stop-color="#EA2D2D"/>
<stop offset="1" stop-color="#9E2525"/>
</linearGradient>
<linearGradient id="paint1_linear_2111_8670" x1="21.9465" y1="30.241" x2="21.9465" y2="49.1961" gradientUnits="userSpaceOnUse">
<stop stop-color="#EA2D2D"/>
<stop offset="1" stop-color="#9E2525"/>
</linearGradient>
<linearGradient id="paint2_linear_2111_8670" x1="41.8946" y1="69.7596" x2="41.8946" y2="50.7988" gradientUnits="userSpaceOnUse">
<stop stop-color="#EA2D2D"/>
<stop offset="1" stop-color="#9E2525"/>
</linearGradient>
</defs>
</svg>
