<?xml version="1.0" encoding="UTF-8"?>
<svg id="Layer_2" data-name="Layer 2" xmlns="http://www.w3.org/2000/svg" xmlns:xlink="http://www.w3.org/1999/xlink" viewBox="0 0 295.85 89.1">
  <defs>
    <style>
      .cls-1 {
        fill: url(#linear-gradient-3);
      }

      .cls-2 {
        fill: url(#linear-gradient-2);
      }

      .cls-3 {
        fill: url(#linear-gradient);
        opacity: .3;
      }

      .cls-4 {
        fill: #242c56;
      }

      .cls-5 {
        opacity: .07;
      }
    </style>
    <linearGradient id="linear-gradient" x1="41.12" y1="82.61" x2="112.32" y2="94.21" gradientUnits="userSpaceOnUse">
      <stop offset="0" stop-color="#b878ff"/>
      <stop offset="1" stop-color="#609cff" stop-opacity="0"/>
    </linearGradient>
    <linearGradient id="linear-gradient-2" x1="80.15" y1="124.37" x2="17.81" y2="-14.79" gradientUnits="userSpaceOnUse">
      <stop offset="0" stop-color="#b878ff"/>
      <stop offset="1" stop-color="#609cff"/>
    </linearGradient>
    <linearGradient id="linear-gradient-3" x1="121.8" y1="95.03" x2="47.38" y2="49.28" xlink:href="#linear-gradient"/>
  </defs>
  <g id="Layer_1-2" data-name="Layer 1">
    <g>
      <g>
        <path class="cls-3" d="M101.65,83.1c0,3.09-23.23,5.62-53.13,5.96,0,0-.02.01-.03,0-2.24.03-4.51.04-6.82.04-13.49,0-25.94-.44-35.96-1.19v-9.61c9.99-.75,22.4-1.2,35.84-1.2h.12c10.42,0,20.23.27,28.77.73,18.6,1.02,31.21,3,31.21,5.27Z"/>
        <path class="cls-2" d="M86.71,8.1c-3.51,3.51-8.93,5.29-15.11,5.29-9.69,0-21.24-4.38-30.25-13.39L14.26,27.09c-5.47,5.48-8.55,12.9-8.55,20.65v41.36h41.36c.47,0,.95-.01,1.42-.04.01.01.02,0,.03,0,7.22-.35,14.06-3.38,19.2-8.51l27.09-27.09c-14.76-14.76-17.1-36.36-8.1-45.36ZM59.23,72.06c-3.24,3.25-7.56,5.04-12.16,5.04h-5.52c-1.79-5.38-4.82-10.44-9.11-14.73-4.29-4.29-9.35-7.32-14.73-9.11v-5.52c0-4.6,1.79-8.92,5.04-12.16l19.47-19.48c8.37,5.51,17.93,8.8,27.25,9.24h.01c.44,9.05,3.58,18.68,9.22,27.25l-19.47,19.47Z"/>
        <path class="cls-1" d="M69.56,17.25h-.01c-12.31-.94-24.83-5.66-35.69-13.27L7.35,28.99C2.92,33.15.39,38.8.21,44.89l-.21,7.3c7.05,2.58,13.62,6.78,19.13,12.62,5.51,5.84,9.32,12.65,11.48,19.84l7.3.21c6.09.18,11.87-2.02,16.28-6.2l26.51-25.01c-7.13-11.55-10.91-24.41-11.15-36.4ZM50.01,68.14c-3.05,2.89-7.05,4.42-11.26,4.29l-5.05-.15c-1.5-4.97-4.13-9.68-7.94-13.72-3.81-4.04-8.36-6.94-13.24-8.73l.15-5.05c.12-4.21,1.88-8.11,4.94-10.99l18.33-17.31c7.51,5.26,16.18,8.53,24.7,9.18.08,4.15.77,8.44,2.07,12.7,1.29,4.26,3.18,8.49,5.65,12.48l-18.34,17.3Z"/>
        <path class="cls-5" d="M94.81,53.46l-27.09,27.09c-5.48,5.47-12.9,8.55-20.65,8.55H5.71l26.73-26.73c4.29,4.29,7.32,9.35,9.11,14.73h5.52c4.6,0,8.92-1.79,12.16-5.04l19.47-19.47c-5.64-8.57-8.78-18.2-9.22-27.25l17.23-17.24c-9,9-6.66,30.6,8.1,45.36Z"/>
      </g>
      <g>
        <path class="cls-4" d="M123.03,37.29v-3.57h18.76v3.57h-7.27v19.97h-4.2v-19.97h-7.28Z"/>
        <path class="cls-4" d="M149.13,47.12v10.15h-4.08v-23.54h4.04v10.43h-.52c.5-1.52,1.22-2.66,2.19-3.43s2.17-1.15,3.61-1.15c1.2,0,2.25.26,3.16.77s1.61,1.27,2.12,2.26.76,2.2.76,3.62v11.05h-4.09v-10.41c0-1.2-.3-2.13-.91-2.8-.61-.66-1.45-1-2.54-1-.72,0-1.36.16-1.92.47-.56.31-1.01.77-1.34,1.37-.33.6-.49,1.34-.49,2.23Z"/>
        <path class="cls-4" d="M164.58,57.26v-17.45h3.95v2.91h.16c.32-1.01.85-1.79,1.61-2.32.76-.54,1.65-.81,2.69-.81.24,0,.5,0,.77.02.27.02.5.04.69.07v3.73c-.17-.04-.44-.08-.81-.13-.37-.04-.75-.06-1.11-.06-.73,0-1.38.16-1.97.47-.58.32-1.04.76-1.38,1.34-.34.57-.5,1.26-.5,2.05v10.18h-4.08Z"/>
        <path class="cls-4" d="M184.24,57.63c-1.75,0-3.26-.37-4.53-1.12s-2.25-1.8-2.93-3.14c-.69-1.35-1.03-2.93-1.03-4.74s.34-3.35,1.02-4.72,1.64-2.43,2.88-3.19c1.24-.76,2.68-1.15,4.34-1.15,1.11,0,2.15.18,3.12.55.97.36,1.83.91,2.58,1.64.74.73,1.32,1.65,1.75,2.77.42,1.11.63,2.42.63,3.91v1.23h-14.44v-2.78h12.41l-1.9.81c0-.99-.16-1.85-.47-2.59-.32-.74-.78-1.31-1.38-1.71-.61-.41-1.36-.61-2.25-.61s-1.64.21-2.28.62c-.63.41-1.11.97-1.45,1.68-.33.71-.5,1.51-.5,2.39v1.88c0,1.08.18,2.01.55,2.77.37.76.89,1.33,1.57,1.72s1.47.58,2.38.58c.61,0,1.16-.09,1.66-.27.5-.18.92-.44,1.27-.78.35-.34.62-.76.8-1.26l3.76.6c-.26.98-.74,1.84-1.43,2.58-.69.74-1.56,1.31-2.6,1.72s-2.22.62-3.52.62Z"/>
        <path class="cls-4" d="M200.68,57.61c-1.12,0-2.12-.2-3.01-.6-.89-.4-1.59-.99-2.11-1.77-.52-.78-.77-1.74-.77-2.89,0-.99.18-1.81.55-2.45.37-.64.87-1.16,1.51-1.54.64-.38,1.36-.68,2.16-.88.8-.2,1.63-.34,2.48-.43,1.03-.12,1.87-.22,2.5-.3.63-.08,1.09-.22,1.38-.41.29-.19.43-.48.43-.87v-.09c0-.56-.12-1.04-.36-1.43-.24-.4-.58-.7-1.04-.91-.45-.21-1.02-.32-1.69-.32s-1.25.1-1.75.31c-.5.21-.91.48-1.22.82s-.53.72-.66,1.13l-3.81-.6c.28-1.06.78-1.95,1.48-2.66.7-.71,1.56-1.25,2.58-1.61,1.02-.36,2.15-.55,3.39-.55.88,0,1.75.11,2.6.32.85.21,1.61.55,2.3,1.02.68.47,1.23,1.08,1.63,1.85.41.76.61,1.7.61,2.81v11.71h-3.93v-2.42h-.14c-.25.5-.61.95-1.06,1.38-.45.42-1.01.76-1.68,1.01s-1.46.38-2.38.38ZM201.72,54.58c.84,0,1.57-.17,2.19-.5.62-.33,1.09-.77,1.42-1.32.33-.55.5-1.15.5-1.8v-2.02c-.14.1-.36.2-.66.29-.3.09-.64.17-1.03.24-.38.07-.77.13-1.15.19-.38.06-.72.1-1.02.13-.6.08-1.15.22-1.64.42-.49.2-.88.46-1.16.79s-.43.77-.43,1.3c0,.5.13.91.38,1.25.25.34.6.59,1.04.77s.96.26,1.55.26Z"/>
        <path class="cls-4" d="M222.36,39.82v3.21h-10.1v-3.21h10.1ZM214.87,35.54h4.08v16.8c0,.62.13,1.08.4,1.36s.72.43,1.35.43c.2,0,.46-.02.77-.05.32-.03.57-.06.76-.09l.51,3.18c-.41.11-.85.18-1.31.23-.46.05-.92.07-1.36.07-1.7,0-2.99-.41-3.87-1.22-.89-.81-1.33-1.98-1.33-3.51v-17.19Z"/>
        <path class="cls-4" d="M225.69,57.26v-23.54h4.71l8.17,13c.32.5.66,1.07,1.04,1.73.37.66.76,1.39,1.17,2.2s.8,1.68,1.19,2.62l-.47.24c-.07-.84-.13-1.72-.18-2.64-.05-.92-.08-1.79-.11-2.62s-.04-1.52-.04-2.07v-12.45h4.27v23.54h-4.72l-7.36-11.71c-.42-.67-.84-1.37-1.26-2.09s-.87-1.54-1.35-2.46-1.05-2-1.71-3.24l.6-.13c.07,1.15.13,2.23.18,3.26.05,1.02.08,1.93.11,2.73.03.8.04,1.44.04,1.92v11.73h-4.27Z"/>
        <path class="cls-4" d="M257.4,57.63c-1.7,0-3.17-.38-4.43-1.13-1.26-.75-2.23-1.81-2.92-3.16-.69-1.35-1.04-2.93-1.04-4.73s.34-3.38,1.04-4.74c.69-1.36,1.66-2.42,2.92-3.17,1.26-.75,2.74-1.13,4.43-1.13s3.19.38,4.45,1.13c1.26.75,2.23,1.81,2.92,3.17.69,1.36,1.04,2.94,1.04,4.74s-.35,3.38-1.04,4.73c-.69,1.35-1.67,2.41-2.92,3.16-1.26.75-2.74,1.13-4.45,1.13ZM257.4,54.29c.94,0,1.72-.25,2.35-.75.63-.5,1.11-1.18,1.43-2.04.32-.86.48-1.83.48-2.9s-.16-2.07-.48-2.93c-.32-.86-.8-1.54-1.43-2.03s-1.42-.74-2.35-.74-1.71.25-2.34.74c-.63.5-1.11,1.17-1.42,2.03-.32.86-.47,1.84-.47,2.93s.16,2.04.47,2.9.79,1.54,1.42,2.04c.63.5,1.41.75,2.34.75Z"/>
        <path class="cls-4" d="M277.52,39.82v3.21h-10.1v-3.21h10.1ZM270.03,35.54h4.08v16.8c0,.62.13,1.08.4,1.36s.72.43,1.35.43c.2,0,.46-.02.77-.05.32-.03.57-.06.76-.09l.51,3.18c-.41.11-.85.18-1.31.23-.46.05-.92.07-1.36.07-1.7,0-2.99-.41-3.87-1.22-.89-.81-1.33-1.98-1.33-3.51v-17.19Z"/>
        <path class="cls-4" d="M288.03,57.63c-1.75,0-3.26-.37-4.53-1.12s-2.25-1.8-2.93-3.14c-.69-1.35-1.03-2.93-1.03-4.74s.34-3.35,1.02-4.72,1.64-2.43,2.88-3.19c1.24-.76,2.68-1.15,4.34-1.15,1.11,0,2.15.18,3.12.55.97.36,1.83.91,2.58,1.64.74.73,1.32,1.65,1.75,2.77.42,1.11.63,2.42.63,3.91v1.23h-14.44v-2.78h12.41l-1.9.81c0-.99-.16-1.85-.47-2.59-.32-.74-.78-1.31-1.38-1.71-.61-.41-1.36-.61-2.25-.61s-1.64.21-2.28.62c-.63.41-1.11.97-1.45,1.68-.33.71-.5,1.51-.5,2.39v1.88c0,1.08.18,2.01.55,2.77.37.76.89,1.33,1.57,1.72s1.47.58,2.38.58c.61,0,1.16-.09,1.66-.27.5-.18.92-.44,1.27-.78.35-.34.62-.76.8-1.26l3.76.6c-.26.98-.74,1.84-1.43,2.58-.69.74-1.56,1.31-2.6,1.72s-2.22.62-3.52.62Z"/>
      </g>
    </g>
  </g>
</svg>