<?xml version="1.0" encoding="UTF-8"?>
<svg id="Layer_2" data-name="Layer 2" xmlns="http://www.w3.org/2000/svg" xmlns:xlink="http://www.w3.org/1999/xlink" viewBox="0 0 513.67 184.55">
  <defs>
    <style>
      .cls-1 {
        fill: #2b2b2b;
      }

      .cls-2 {
        fill: url(#linear-gradient-5);
      }

      .cls-3 {
        fill: url(#linear-gradient-6);
      }

      .cls-4 {
        fill: url(#linear-gradient-2);
      }

      .cls-5 {
        fill: url(#linear-gradient);
      }

      .cls-6, .cls-7, .cls-8, .cls-9 {
        isolation: isolate;
      }

      .cls-7 {
        fill: url(#linear-gradient-3);
        opacity: .2;
      }

      .cls-8 {
        fill: url(#linear-gradient-4);
        opacity: .5;
      }

      .cls-9 {
        fill: url(#linear-gradient-7);
        opacity: .4;
      }
    </style>
    <linearGradient id="linear-gradient" x1="-8.1" y1="199.55" x2="55.12" y2="-5.91" gradientTransform="translate(0 133.24) scale(1 -1)" gradientUnits="userSpaceOnUse">
      <stop offset="0" stop-color="#fff060"/>
      <stop offset=".63" stop-color="#ffcd73"/>
      <stop offset="1" stop-color="#ff9f73"/>
    </linearGradient>
    <linearGradient id="linear-gradient-2" x1="178.46" y1="171.71" x2="27.19" y2="14.42" xlink:href="#linear-gradient"/>
    <linearGradient id="linear-gradient-3" x1="1627.96" y1="922.36" x2="1584.58" y2="856.96" gradientTransform="translate(1640.27 -893.19) rotate(176.57) scale(1 -1)" gradientUnits="userSpaceOnUse">
      <stop offset="0" stop-color="#000" stop-opacity=".1"/>
      <stop offset="1" stop-color="#000" stop-opacity=".7"/>
    </linearGradient>
    <linearGradient id="linear-gradient-4" x1="18.72" y1="133.36" x2="69.89" y2="-104.46" gradientTransform="translate(0 133.24) scale(1 -1)" xlink:href="#linear-gradient-3"/>
    <linearGradient id="linear-gradient-5" x1="195.78" y1="-16.7" x2="125.03" y2="36.74" gradientTransform="translate(0 133.24) scale(1 -1)" gradientUnits="userSpaceOnUse">
      <stop offset=".08" stop-color="#c49fee"/>
      <stop offset=".3" stop-color="#c454ee"/>
      <stop offset="1" stop-color="#7144c5"/>
    </linearGradient>
    <linearGradient id="linear-gradient-6" x1="74.22" y1="120.57" x2="113.35" y2="-40.98" xlink:href="#linear-gradient-5"/>
    <linearGradient id="linear-gradient-7" x1="1485.09" y1="1026.64" x2="1605" y2="821.43" gradientTransform="translate(1670.97 -845.45) rotate(-180) scale(1 -1)" xlink:href="#linear-gradient-3"/>
  </defs>
  <g id="Layer_6" data-name="Layer 6">
    <path class="cls-5" d="M4.4,72.78c-.41.02-.83,0-1.24-.06-.3-.04-.59-.1-.88-.17l-1.82,7c-1.99,7.66,2.59,15.48,10.24,17.5l13.9,3.65c3.93,1.04,8.05,1.23,12.06.56h0c11.14-1.89,20.13-10.12,23-21.05l7.32-27.79-27.8-7.31-13.9-3.65c-5.89-1.54-12.12.8-15.53,5.85h0c-.91,1.34-1.59,2.82-2,4.38l-1.77,6.96c.29.08.57.17.85.28.39.16.76.34,1.12.56.98.63,1.79,1.5,2.36,2.51h0c.97,1.64,1.24,3.61.75,5.45-.18.7-.46,1.38-.84,2-1.28,2-3.45,3.24-5.82,3.33Z"/>
    <path class="cls-4" d="M24.6,100.7c3.93,1.04,8.05,1.23,12.06.56h0c11.14-1.89,20.13-10.12,23-21.05L77.98,10.72c1.56-5.9,6.66-10.17,12.74-10.67,1.61-.13,3.23.01,4.79.43l7,1.82c-.18.69-.26,1.41-.23,2.12.06,1.17.4,2.32,1,3.33h0c.58,1.02,1.42,1.88,2.42,2.49l1,.51c.33.13.66.24,1,.33.69.18,1.4.26,2.11.23,2.38-.1,4.56-1.37,5.82-3.39.38-.62.67-1.29.84-2l7,1.82c7.68,2.02,12.27,9.88,10.25,17.56l-9.81,37.31-.84,3.2-.47,1.19c-.22.83-.45,1.65-.71,2.47-8.41,27.03-35.26,43.92-63.27,39.79-.89-.13-1.78-.29-2.68-.47h0c-1.18-.23-2.37-.5-3.55-.81l-27.79-7.28Z"/>
    <path class="cls-7" d="M55.98,108.82c12.65-27.72,36.75-43.08,67-43l-.38,1.18c-.22.83-.45,1.65-.71,2.47-8.41,27.03-35.26,43.92-63.27,39.79-.89-.13-1.78-.29-2.68-.47l.04.03Z"/>
    <path class="cls-8" d="M4.4,72.78c-.41.02-.83,0-1.24-.06-.3-.04-.59-.1-.88-.17l-1.82,7c-1.99,7.66,2.59,15.48,10.24,17.5l13.9,3.65c3.93,1.04,8.05,1.23,12.06.56h0c11.14-1.89,20.13-10.12,23-21.05l7.32-27.79-27.8-7.31-13.9-3.65c-5.89-1.54-12.12.8-15.53,5.85h0c-.91,1.34-1.59,2.82-2,4.38l-1.77,6.96c.29.08.57.17.85.28.39.16.76.34,1.12.56.98.63,1.79,1.5,2.36,2.51h0c.97,1.64,1.24,3.61.75,5.45-.18.7-.46,1.38-.84,2-1.28,2-3.45,3.24-5.82,3.33Z"/>
    <path class="cls-2" d="M176.14,111.77c.42-.02.84,0,1.25.06.29.03.59.09.87.17l1.83-7c1.98-7.66-2.6-15.48-10.25-17.5l-13.86-3.65c-3.94-1.04-8.05-1.23-12.07-.56h0c-11.12,1.88-20.11,10.1-23,21l-7.3,27.79,27.8,7.31,13.89,3.65c5.91,1.55,12.15-.79,15.57-5.85h0c.91-1.34,1.59-2.82,2-4.38l1.83-6.95c-.29-.08-.57-.17-.85-.29-.39-.15-.76-.33-1.11-.55-.99-.62-1.82-1.47-2.42-2.48h0c-.6-1.01-.94-2.16-1-3.33-.02-.71.06-1.43.24-2.12.78-3.06,3.49-5.24,6.65-5.35l-.07.03Z"/>
    <path class="cls-3" d="M155.98,83.85c-3.94-1.04-8.05-1.23-12.07-.56h0c-11.12,1.88-20.11,10.1-23,21l-18.33,69.53c-2,7.67-9.84,12.26-17.51,10.26-.01,0-.03,0-.04-.01l-7-1.83c.18-.69.26-1.41.23-2.12-.06-1.17-.4-2.31-1-3.32h0c-.59-1.02-1.42-1.88-2.42-2.5l-1-.5c-.32-.14-.66-.25-1-.33-.69-.19-1.41-.27-2.12-.24-3.16.13-5.86,2.3-6.66,5.36l-7-1.82c-7.61-2.1-12.11-9.93-10.08-17.56l11-41.69c8.06-30.71,39.49-49.06,70.19-41,0,0,0,0,0,0l27.8,7.33Z"/>
    <path class="cls-9" d="M176.14,111.77c.42-.02.84,0,1.25.06.29.03.59.09.87.17l1.83-7c1.98-7.66-2.6-15.48-10.25-17.5l-13.86-3.65c-3.94-1.04-8.05-1.23-12.07-.56h0c-11.12,1.88-20.11,10.1-23,21l-7.3,27.79,27.8,7.31,13.89,3.65c5.91,1.55,12.15-.79,15.57-5.85h0c.91-1.34,1.59-2.82,2-4.38l1.83-6.95c-.29-.08-.57-.17-.85-.29-.39-.15-.76-.33-1.11-.55-.99-.62-1.82-1.47-2.42-2.48h0c-.6-1.01-.94-2.16-1-3.33-.02-.71.06-1.43.24-2.12.78-3.06,3.49-5.24,6.65-5.35l-.07.03Z"/>
    <g class="cls-6">
      <path class="cls-1" d="M250.51,98.13h-5.81v-22.55h-7.43v-4.83h20.67v4.83h-7.43v22.55Z"/>
      <path class="cls-1" d="M269.83,98.13v-27.38h5.81v27.38h-5.81Z"/>
      <path class="cls-1" d="M301.82,75.19c-2.19,0-3.88.82-5.07,2.46-1.2,1.64-1.8,3.93-1.8,6.86,0,6.1,2.29,9.16,6.87,9.16,1.92,0,4.25-.48,6.98-1.44v4.87c-2.25.94-4.76,1.41-7.53,1.41-3.98,0-7.03-1.21-9.14-3.62-2.11-2.42-3.16-5.88-3.16-10.4,0-2.85.52-5.34,1.55-7.48,1.04-2.14,2.52-3.78,4.47-4.92,1.94-1.14,4.22-1.71,6.83-1.71s5.33.64,8.01,1.93l-1.87,4.72c-1.02-.49-2.05-.91-3.09-1.27-1.04-.36-2.05-.54-3.05-.54Z"/>
      <path class="cls-1" d="M344.32,98.13h-6.59l-7.17-11.54-2.45,1.76v9.77h-5.81v-27.38h5.81v12.53l2.28-3.22,7.42-9.31h6.44l-9.55,12.12,9.62,15.26Z"/>
      <path class="cls-1" d="M371.2,98.13h-15.77v-27.38h15.77v4.76h-9.96v6.01h9.27v4.76h-9.27v7.06h9.96v4.79Z"/>
      <path class="cls-1" d="M395.15,98.13h-5.81v-22.55h-7.43v-4.83h20.67v4.83h-7.43v22.55Z"/>
      <path class="cls-1" d="M430.62,90.53c0,2.47-.89,4.42-2.67,5.84-1.78,1.42-4.25,2.13-7.42,2.13-2.92,0-5.51-.55-7.75-1.65v-5.39c1.85.82,3.41,1.4,4.69,1.74,1.28.34,2.45.51,3.51.51,1.27,0,2.25-.24,2.93-.73.68-.49,1.02-1.21,1.02-2.17,0-.54-.15-1.01-.45-1.43-.3-.42-.74-.82-1.32-1.21s-1.76-1-3.55-1.85c-1.67-.79-2.93-1.54-3.76-2.27-.84-.72-1.5-1.57-2-2.53-.5-.96-.75-2.08-.75-3.37,0-2.42.82-4.33,2.46-5.71,1.64-1.39,3.91-2.08,6.81-2.08,1.42,0,2.78.17,4.07.51s2.64.81,4.05,1.42l-1.87,4.51c-1.46-.6-2.67-1.02-3.62-1.25s-1.89-.36-2.82-.36c-1.1,0-1.94.26-2.53.77s-.88,1.18-.88,2c0,.51.12.96.36,1.34.24.38.61.75,1.13,1.1.52.36,1.74,1,3.68,1.92,2.56,1.22,4.31,2.45,5.26,3.68s1.42,2.74,1.42,4.52Z"/>
      <path class="cls-1" d="M442,95.45c0-1.05.28-1.84.84-2.38.56-.54,1.38-.81,2.45-.81s1.84.28,2.41.82c.57.55.85,1.34.85,2.36s-.29,1.76-.86,2.33c-.57.57-1.37.85-2.4.85s-1.86-.28-2.43-.83c-.57-.55-.86-1.34-.86-2.35Z"/>
      <path class="cls-1" d="M478.02,90.53c0,2.47-.89,4.42-2.67,5.84-1.78,1.42-4.25,2.13-7.42,2.13-2.92,0-5.51-.55-7.75-1.65v-5.39c1.85.82,3.41,1.4,4.69,1.74,1.28.34,2.45.51,3.51.51,1.27,0,2.25-.24,2.93-.73.68-.49,1.02-1.21,1.02-2.17,0-.54-.15-1.01-.45-1.43-.3-.42-.74-.82-1.32-1.21s-1.76-1-3.55-1.85c-1.67-.79-2.93-1.54-3.76-2.27-.84-.72-1.5-1.57-2-2.53-.5-.96-.75-2.08-.75-3.37,0-2.42.82-4.33,2.46-5.71,1.64-1.39,3.91-2.08,6.81-2.08,1.42,0,2.78.17,4.07.51s2.64.81,4.05,1.42l-1.87,4.51c-1.46-.6-2.67-1.02-3.62-1.25s-1.89-.36-2.82-.36c-1.1,0-1.94.26-2.53.77s-.88,1.18-.88,2c0,.51.12.96.36,1.34.24.38.61.75,1.13,1.1.52.36,1.74,1,3.68,1.92,2.56,1.22,4.31,2.45,5.26,3.68s1.42,2.74,1.42,4.52Z"/>
      <path class="cls-1" d="M507.41,98.13l-1.98-6.52h-9.98l-1.98,6.52h-6.25l9.66-27.49h7.1l9.7,27.49h-6.25ZM504.04,86.74c-1.84-5.91-2.87-9.24-3.1-10.02-.23-.77-.4-1.39-.5-1.83-.41,1.6-1.59,5.55-3.54,11.85h7.13Z"/>
    </g>
  </g>
</svg>