<svg width="338" height="50" viewBox="0 0 338 50" fill="none" xmlns="http://www.w3.org/2000/svg">
<g opacity="0.8">
<g opacity="0.08">
<path d="M80.3848 22.8509L60.8257 33.6222L56.1564 31.1153L75.7154 20.3302L80.3848 22.8509ZM68.2224 16.2944L72.8917 18.8151L53.3327 29.6001L48.6633 27.0795L68.2224 16.2944ZM3.87036 27.2861L23.4294 16.501L28.0988 19.0217L8.53974 29.8068L3.87036 27.2861ZM11.3496 31.3357L30.8949 20.5506L35.5643 23.0713L16.019 33.8563L11.3496 31.3357ZM18.8427 35.3577L38.3879 24.5864L43.0573 27.107L23.512 37.8783L18.8427 35.3577ZM45.9774 49.9995L26.3219 39.4073L30.9775 36.8453L50.633 47.4375L45.9774 49.9995ZM53.4153 45.8948L33.7737 35.2888L38.4293 32.7268L58.071 43.3328L53.4153 45.8948ZM60.8671 41.7902L41.2254 31.1979L45.881 28.636L65.5227 39.2282L60.8671 41.7902ZM68.3188 37.6717L63.6494 35.1511L83.1947 24.3798L87.8641 26.9004L68.3188 37.6717Z" fill="#545554"/>
<path d="M87.8641 26.9013L68.3188 37.6726L63.6494 35.1519L83.1947 24.3806L87.8641 26.9013Z" fill="#545554"/>
<path d="M80.3849 22.8522L60.8259 33.6373L56.1565 31.1166L75.7155 20.3315L80.3849 22.8522Z" fill="#545554"/>
<path d="M72.8917 18.8153L53.3327 29.6004L48.6633 27.0797L68.2224 16.2947L72.8917 18.8153Z" fill="#545554"/>
<path d="M65.5226 39.2143L60.867 41.79L41.2253 31.184L45.8809 28.6221L65.5226 39.2143Z" fill="#545554"/>
<path d="M58.0707 43.3323L53.4151 45.8943L33.7734 35.2883L38.429 32.7263L58.0707 43.3323Z" fill="#545554"/>
<path d="M50.6331 47.4377L45.9775 49.9997L26.322 39.4074L30.9776 36.8455L50.6331 47.4377Z" fill="#545554"/>
<path d="M43.0572 27.1076L23.5257 37.8788L18.8425 35.3582L38.3878 24.5869L43.0572 27.1076Z" fill="#545554"/>
<path d="M35.5645 23.0724L16.033 33.8575L11.3499 31.3368L30.8951 20.5518L35.5645 23.0724Z" fill="#545554"/>
<path d="M28.0988 19.0226L8.53974 29.8077L3.87036 27.287L23.4156 16.502L28.0988 19.0226Z" fill="#545554"/>
</g>
<path d="M50.564 31.1436L45.9087 33.7051L26.2388 23.1133L30.895 20.5508L30.9019 20.5537L30.9087 20.5508L50.564 31.1436ZM57.9878 27.0381L53.3325 29.6006L33.6909 18.9941L38.3462 16.4326L57.9878 27.0381ZM65.4399 22.9199L65.4341 22.9229L65.4536 22.9336L60.7983 25.4961L41.1567 14.9033L45.7983 12.3281L65.4399 22.9199ZM38.3188 8.29199L42.9888 10.8125L23.4429 21.584L18.7739 19.0635L38.3052 8.29199L38.312 8.29492L38.3188 8.29199ZM87.7954 10.6064L68.2495 21.377L63.5669 18.8564L83.1118 8.08496L83.1187 8.08789L83.1255 8.08496L87.7954 10.6064ZM35.4956 6.77637L15.9497 17.5615L11.2808 15.041L30.812 4.25586L30.8188 4.25879L30.8257 4.25586L35.4956 6.77637ZM75.6401 4.03906L75.646 4.03613L80.3159 6.55566L78.9712 7.29688L60.7573 17.3408L56.0737 14.8203L75.6323 4.03516L75.6401 4.03906ZM28.0161 2.72656H28.0151L28.0161 2.72754L8.45654 13.5127L3.7876 10.9912V10.9902L23.3472 0.206055L28.0161 2.72656ZM72.8228 2.52051L53.2642 13.3057L53.2563 13.3008L53.2495 13.3057L48.5806 10.7852L68.1392 0H68.1401L72.8228 2.52051Z" fill="url(#paint0_linear_2087_580)"/>
<path d="M337.482 29.8887V32.9565H326.882V17.0908H330.453V29.8887H337.482Z" fill="#222222"/>
<path d="M319.308 32.9565C318.285 31.1403 317.179 29.3469 315.988 27.5764C314.798 25.8059 313.531 24.1346 312.188 22.5625V32.9565H308.662V17.0908H311.57C312.073 17.5945 312.63 18.2126 313.241 18.9453C313.852 19.6779 314.47 20.4639 315.095 21.3034C315.736 22.1276 316.37 22.9899 316.996 23.8904C317.621 24.7757 318.209 25.6304 318.759 26.4546V17.0908H322.307V32.9565H319.308Z" fill="#222222"/>
<path d="M305.226 31.1492C305.226 31.8361 305.005 32.3626 304.562 32.7289C304.135 33.08 303.646 33.2555 303.097 33.2555C302.547 33.2555 302.051 33.08 301.609 32.7289C301.181 32.3626 300.968 31.8361 300.968 31.1492C300.968 30.4624 301.181 29.9435 301.609 29.5924C302.051 29.2261 302.547 29.043 303.097 29.043C303.646 29.043 304.135 29.2261 304.562 29.5924C305.005 29.9435 305.226 30.4624 305.226 31.1492Z" fill="#222222"/>
<path d="M287.313 32.9565V17.0908H298.027V20.09H290.884V23.2036H297.226V26.1341H290.884V29.9574H298.554V32.9565H287.313Z" fill="#222222"/>
<path d="M284.102 17.0908V20.1358H279.317V32.9565H275.745V20.1358H270.96V17.0908H284.102Z" fill="#222222"/>
<path d="M261.019 16.908C263.4 16.908 265.224 17.3353 266.491 18.19C267.757 19.0295 268.391 20.3421 268.391 22.1278C268.391 23.242 268.131 24.1502 267.612 24.8523C267.109 25.5391 266.376 26.0809 265.415 26.4778C265.735 26.8746 266.071 27.3325 266.422 27.8514C266.773 28.3551 267.116 28.8893 267.452 29.454C267.803 30.0035 268.139 30.5835 268.459 31.194C268.78 31.7892 269.078 32.3768 269.352 32.9568H265.346C265.056 32.4379 264.758 31.9113 264.453 31.3771C264.163 30.8429 263.858 30.324 263.537 29.8203C263.232 29.3166 262.927 28.8435 262.621 28.4009C262.316 27.943 262.011 27.5309 261.706 27.1646H259.943V32.9568H256.371V17.3201C257.15 17.1674 257.951 17.0606 258.775 16.9995C259.615 16.9385 260.362 16.908 261.019 16.908ZM261.225 19.9529C260.965 19.9529 260.729 19.9605 260.515 19.9758C260.317 19.9911 260.126 20.0063 259.943 20.0216V24.3257H260.95C262.293 24.3257 263.255 24.1578 263.835 23.822C264.415 23.4862 264.705 22.9139 264.705 22.105C264.705 21.3266 264.407 20.7771 263.812 20.4566C263.232 20.1208 262.37 19.9529 261.225 19.9529Z" fill="#222222"/>
<path d="M241.57 32.9565V17.0908H252.285V20.09H245.141V23.2036H251.483V26.1341H245.141V29.9574H252.811V32.9565H241.57Z" fill="#222222"/>
<path d="M227.509 32.9565V17.0908H238.132V20.09H231.08V23.4096H237.354V26.4088H231.08V32.9565H227.509Z" fill="#222222"/>
<path d="M213.447 32.9565V17.0908H224.07V20.09H217.018V23.4096H223.291V26.4088H217.018V32.9565H213.447Z" fill="#222222"/>
<path d="M197.442 25.0114C197.442 25.7898 197.533 26.4918 197.717 27.1176C197.915 27.7434 198.19 28.2852 198.541 28.7431C198.907 29.1857 199.35 29.5292 199.869 29.7734C200.388 30.0176 200.983 30.1397 201.654 30.1397C202.311 30.1397 202.898 30.0176 203.417 29.7734C203.952 29.5292 204.394 29.1857 204.745 28.7431C205.112 28.2852 205.386 27.7434 205.569 27.1176C205.768 26.4918 205.867 25.7898 205.867 25.0114C205.867 24.2329 205.768 23.5309 205.569 22.9051C205.386 22.264 205.112 21.7222 204.745 21.2796C204.394 20.8217 203.952 20.4707 203.417 20.2265C202.898 19.9822 202.311 19.8601 201.654 19.8601C200.983 19.8601 200.388 19.9899 199.869 20.2493C199.35 20.4936 198.907 20.8446 198.541 21.3025C198.19 21.7451 197.915 22.2869 197.717 22.928C197.533 23.5538 197.442 24.2482 197.442 25.0114ZM209.553 25.0114C209.553 26.3697 209.347 27.5679 208.935 28.6057C208.538 29.6284 207.989 30.4907 207.286 31.1928C206.584 31.8796 205.745 32.3986 204.768 32.7496C203.807 33.1007 202.769 33.2762 201.654 33.2762C200.571 33.2762 199.548 33.1007 198.587 32.7496C197.625 32.3986 196.786 31.8796 196.068 31.1928C195.351 30.4907 194.786 29.6284 194.374 28.6057C193.962 27.5679 193.756 26.3697 193.756 25.0114C193.756 23.653 193.97 22.4625 194.397 21.4398C194.824 20.402 195.397 19.532 196.114 18.8299C196.847 18.1278 197.686 17.6012 198.632 17.2502C199.594 16.8992 200.601 16.7236 201.654 16.7236C202.738 16.7236 203.761 16.8992 204.722 17.2502C205.684 17.6012 206.523 18.1278 207.241 18.8299C207.958 19.532 208.523 20.402 208.935 21.4398C209.347 22.4625 209.553 23.653 209.553 25.0114Z" fill="#222222"/>
<path d="M184.04 24.5779H190.68V27.6686H184.04V24.5779Z" fill="#222222"/>
<path d="M174.208 16.908C176.589 16.908 178.413 17.3353 179.68 18.19C180.946 19.0295 181.58 20.3421 181.58 22.1278C181.58 23.242 181.32 24.1502 180.801 24.8523C180.298 25.5391 179.565 26.0809 178.603 26.4778C178.924 26.8746 179.26 27.3325 179.611 27.8514C179.962 28.3551 180.305 28.8893 180.641 29.454C180.992 30.0035 181.328 30.5835 181.648 31.194C181.969 31.7892 182.267 32.3768 182.541 32.9568H178.535C178.245 32.4379 177.947 31.9113 177.642 31.3771C177.352 30.8429 177.047 30.324 176.726 29.8203C176.421 29.3166 176.116 28.8435 175.81 28.4009C175.505 27.943 175.2 27.5309 174.895 27.1646H173.132V32.9568H169.56V17.3201C170.339 17.1674 171.14 17.0606 171.964 16.9995C172.804 16.9385 173.551 16.908 174.208 16.908ZM174.414 19.9529C174.154 19.9529 173.918 19.9605 173.704 19.9758C173.506 19.9911 173.315 20.0063 173.132 20.0216V24.3257H174.139C175.482 24.3257 176.444 24.1578 177.024 23.822C177.604 23.4862 177.894 22.9139 177.894 22.105C177.894 21.3266 177.596 20.7771 177.001 20.4566C176.421 20.1208 175.559 19.9529 174.414 19.9529Z" fill="#222222"/>
<path d="M154.76 32.9565V17.0908H165.475V20.09H158.332V23.2036H164.674V26.1341H158.332V29.9574H166.002V32.9565H154.76Z" fill="#222222"/>
<path d="M138.756 25.0114C138.756 25.7898 138.848 26.4918 139.031 27.1176C139.229 27.7434 139.504 28.2852 139.855 28.7431C140.221 29.1857 140.664 29.5292 141.183 29.7734C141.702 30.0176 142.297 30.1397 142.969 30.1397C143.625 30.1397 144.213 30.0176 144.732 29.7734C145.266 29.5292 145.708 29.1857 146.059 28.7431C146.426 28.2852 146.7 27.7434 146.884 27.1176C147.082 26.4918 147.181 25.7898 147.181 25.0114C147.181 24.2329 147.082 23.5309 146.884 22.9051C146.7 22.264 146.426 21.7222 146.059 21.2796C145.708 20.8217 145.266 20.4707 144.732 20.2265C144.213 19.9822 143.625 19.8601 142.969 19.8601C142.297 19.8601 141.702 19.9899 141.183 20.2493C140.664 20.4936 140.221 20.8446 139.855 21.3025C139.504 21.7451 139.229 22.2869 139.031 22.928C138.848 23.5538 138.756 24.2482 138.756 25.0114ZM150.867 25.0114C150.867 26.3697 150.661 27.5679 150.249 28.6057C149.852 29.6284 149.303 30.4907 148.601 31.1928C147.899 31.8796 147.059 32.3986 146.082 32.7496C145.121 33.1007 144.083 33.2762 142.969 33.2762C141.885 33.2762 140.862 33.1007 139.901 32.7496C138.939 32.3986 138.1 31.8796 137.382 31.1928C136.665 30.4907 136.1 29.6284 135.688 28.6057C135.276 27.5679 135.07 26.3697 135.07 25.0114C135.07 23.653 135.284 22.4625 135.711 21.4398C136.138 20.402 136.711 19.532 137.428 18.8299C138.161 18.1278 139 17.6012 139.947 17.2502C140.908 16.8992 141.916 16.7236 142.969 16.7236C144.052 16.7236 145.075 16.8992 146.037 17.2502C146.998 17.6012 147.838 18.1278 148.555 18.8299C149.272 19.532 149.837 20.402 150.249 21.4398C150.661 22.4625 150.867 23.653 150.867 25.0114Z" fill="#222222"/>
<path d="M132.988 29.8887V32.9565H122.388V17.0908H125.959V29.8887H132.988Z" fill="#222222"/>
<path d="M109.667 32.9565C109.041 31.6287 108.423 30.2474 107.812 28.8127C107.202 27.378 106.622 25.9585 106.072 24.5543C105.523 23.1502 105.011 21.807 104.538 20.525C104.08 19.2429 103.684 18.0982 103.348 17.0908H107.286C107.591 18.0066 107.919 18.9987 108.27 20.0671C108.636 21.1202 109.003 22.1733 109.369 23.2265C109.751 24.2796 110.117 25.287 110.468 26.2485C110.819 27.2101 111.147 28.0419 111.452 28.744C111.742 28.0419 112.063 27.2101 112.414 26.2485C112.78 25.287 113.147 24.2796 113.513 23.2265C113.894 22.1733 114.261 21.1202 114.612 20.0671C114.978 18.9987 115.314 18.0066 115.619 17.0908H119.42C119.069 18.0982 118.664 19.2429 118.206 20.525C117.748 21.807 117.245 23.1502 116.695 24.5543C116.146 25.9585 115.566 27.378 114.955 28.8127C114.345 30.2474 113.727 31.6287 113.101 32.9565H109.667Z" fill="#222222"/>
</g>
<defs>
<linearGradient id="paint0_linear_2087_580" x1="-22.383" y1="-53.5129" x2="69.2152" y2="24.3099" gradientUnits="userSpaceOnUse">
<stop offset="0.05" stop-color="#FBB040"/>
<stop offset="1" stop-color="#F37321"/>
</linearGradient>
</defs>
</svg>
