<?xml version="1.0" encoding="UTF-8"?>
<svg width="111px" height="47px" viewBox="0 0 111 47" version="1.1" xmlns="http://www.w3.org/2000/svg" xmlns:xlink="http://www.w3.org/1999/xlink">
    <title>Logo Text Copy</title>
    <g id="Page-1" stroke="none" stroke-width="1" fill="none" fill-rule="evenodd">
        <g id="Logo" transform="translate(0.4295, 0.5)">
            <path d="M102.280644,7.66666667 L102.280644,0 L63.683861,0 L63.683861,46 L79.122574,46 L79.122574,30.6666667 L102.280644,30.6666667 L102.280644,23 L110,23 L110,7.66666667 L102.280644,7.66666667 Z M86.8419305,23 L79.122574,23 L79.122574,7.66666667 L94.561287,7.66666667 L94.561287,23 L86.8419305,23 Z" id="Shape" fill="#FBDA4F" fill-rule="nonzero"></path>
            <polygon id="Path" fill="#FBDA4F" points="40.5257916 0 40.5257916 30.6666667 32.8064351 30.6666667 32.8064351 23 25.0870786 23 25.0870786 30.6666667 17.3677221 30.6666667 17.3677221 0 1.92900909 0 1.92900909 30.6666667 9.64836558 30.6666667 9.64836558 38.3333333 17.3677221 38.3333333 17.3677221 46 25.0870786 46 25.0870786 38.3333333 32.8064351 38.3333333 32.8064351 46 40.5257916 46 40.5257916 38.3333333 48.245148 38.3333333 48.245148 30.6666667 55.9645045 30.6666667 55.9645045 0"></polygon>
            <rect id="Rectangle" fill="#FFFAA6" x="0" y="1.91584229" width="1.92900909" height="28.7508244"></rect>
            <rect id="Rectangle" fill="#FFFAA6" x="38.5967825" y="1.91584229" width="1.92900909" height="28.7508244"></rect>
            <rect id="Rectangle" fill="#FFFAA6" x="61.754852" y="1.91584229" width="1.92900909" height="44.0841577"></rect>
            <rect id="Rectangle" fill="#FFFAA6" x="92.6322779" y="7.66666667" width="1.92900909" height="15.3333333"></rect>
            <rect id="Rectangle" fill="#E9B549" x="77.1935649" y="9.58250896" width="1.92900909" height="13.417491"></rect>
            <rect id="Rectangle" fill="#E9B549" x="77.1935649" y="32.582509" width="1.92900909" height="13.417491"></rect>
            <rect id="Rectangle" fill="#FFFAA6" x="7.71935649" y="30.6666667" width="1.92900909" height="7.66666667"></rect>
            <rect id="Rectangle" fill="#FFFAA6" x="15.438713" y="38.3333333" width="1.92900909" height="7.66666667"></rect>
            <rect id="Rectangle" fill="#FFFAA6" x="30.877426" y="38.3333333" width="1.92900909" height="7.66666667"></rect>
            <rect id="Rectangle" fill="#FFFAA6" x="23.1580695" y="23" width="1.92900909" height="7.66666667"></rect>
            <rect id="Rectangle" fill="#E9B549" x="23.1580695" y="40.2491756" width="1.92900909" height="5.75082437"></rect>
            <rect id="Rectangle" fill="#E9B549" x="100.351634" y="24.9158423" width="1.92900909" height="5.75082437"></rect>
            <rect id="Rectangle" fill="#E9B549" x="100.351634" y="0" width="1.92900909" height="7.66666667"></rect>
            <rect id="Rectangle" fill="#E9B549" x="108.070991" y="7.66666667" width="1.92900909" height="15.3333333"></rect>
            <rect id="Rectangle" fill="#E9B549" x="38.5967825" y="40.2491756" width="1.92900909" height="5.75082437"></rect>
            <rect id="Rectangle" fill="#E9B549" x="46.316139" y="32.582509" width="1.92900909" height="5.75082437"></rect>
            <rect id="Rectangle" fill="#E9B549" x="30.877426" y="23" width="1.92900909" height="7.66666667"></rect>
            <rect id="Rectangle" fill="#E9B549" x="15.438713" y="0" width="1.92900909" height="30.6666667"></rect>
            <rect id="Rectangle" fill="#E9B549" x="54.0354955" y="0" width="1.92900909" height="30.6666667"></rect>
        </g>
    </g>
</svg>