<svg preserveAspectRatio="none" width="100%" height="100%" overflow="visible" style="display: block;" viewBox="0 0 14.6575 10.2292" fill="none" xmlns="http://www.w3.org/2000/svg">
<path id="Union" d="M9.79785 0.146447C9.99311 -0.0488155 10.3096 -0.0488155 10.5049 0.146447L14.0811 3.72262C14.8496 4.49131 14.8497 5.73815 14.0811 6.5068L10.5049 10.083C10.3096 10.2779 9.99301 10.278 9.79785 10.083C9.60281 9.88782 9.60297 9.57119 9.79785 9.37594L13.374 5.79977C13.4312 5.74255 13.4787 5.67864 13.5186 5.61227H0.5C0.224098 5.61204 7.82217e-05 5.3882 0 5.11227C0 4.83626 0.22405 4.61249 0.5 4.61227H13.5166C13.4772 4.54733 13.4301 4.48575 13.374 4.42965L9.79785 0.853478C9.60271 0.658332 9.60294 0.341737 9.79785 0.146447Z" fill="var(--fill-0, #0C8CE9)"/>
</svg>
